<svg width="136" height="89" viewBox="0 0 136 89" fill="none" xmlns="http://www.w3.org/2000/svg">
<g clip-path="url(#clip0_57_4729)">
<rect x="0.590365" y="0.48511" width="134.135" height="87.8661" rx="7.27665" fill="white" stroke="url(#paint0_linear_57_4729)" stroke-width="0.970221"/>
<g clip-path="url(#clip1_57_4729)">
<path d="M80.4589 57.2285L69.9711 31.7865C69.8886 31.5546 69.8449 31.3107 69.8418 31.0646C69.8213 30.5426 70.0065 30.0334 70.3576 29.6465C70.5374 29.4622 70.7546 29.3186 70.9945 29.2252C71.2344 29.1319 71.4916 29.0909 71.7486 29.1051C72.1382 29.1103 72.5166 29.2364 72.8314 29.466C73.1631 29.7106 73.4228 30.0399 73.5833 30.4195L83.5568 55.3156L93.5243 30.421C93.6847 30.0414 93.9444 29.712 94.2762 29.4675C94.591 29.2379 94.9693 29.1118 95.3589 29.1066C95.616 29.0924 95.8732 29.1334 96.1131 29.2267C96.353 29.3201 96.5702 29.4638 96.75 29.648C97.1011 30.0349 97.2863 30.5441 97.2658 31.0661C97.2627 31.3122 97.219 31.5561 97.1365 31.788L86.6442 57.2285C86.464 57.7874 86.1139 58.2761 85.6427 58.6266C85.1714 58.977 84.6026 59.1717 84.0155 59.1834H83.0876C82.5005 59.1717 81.9316 58.977 81.4604 58.6266C80.9892 58.2761 80.6391 57.7874 80.4589 57.2285Z" fill="url(#paint1_linear_57_4729)"/>
<path d="M101.719 58.4105C101.541 58.2314 101.401 58.018 101.308 57.7833C101.215 57.5486 101.17 57.2974 101.177 57.045V31.2676C101.168 30.7508 101.363 30.2511 101.719 29.8766C101.893 29.6908 102.105 29.5444 102.341 29.4471C102.576 29.3499 102.83 29.304 103.084 29.3126H120.126C120.367 29.3058 120.606 29.3506 120.829 29.444C121.051 29.5374 121.251 29.6772 121.415 29.854C121.589 30.0195 121.728 30.2195 121.821 30.4414C121.914 30.6633 121.96 30.9022 121.956 31.1428C121.963 31.38 121.918 31.6159 121.824 31.834C121.731 32.0521 121.591 32.2473 121.415 32.406C121.244 32.5728 121.043 32.7043 120.822 32.7928C120.601 32.8814 120.364 32.9252 120.126 32.9219H105.044V42.3028H118.599C118.84 42.2961 119.08 42.341 119.302 42.4343C119.524 42.5277 119.724 42.6674 119.888 42.8442C120.061 43.0112 120.198 43.2115 120.291 43.433C120.384 43.6546 120.431 43.8927 120.43 44.133C120.436 44.3702 120.391 44.606 120.298 44.8242C120.204 45.0423 120.065 45.2375 119.888 45.3962C119.718 45.563 119.517 45.6945 119.295 45.783C119.074 45.8715 118.838 45.9154 118.599 45.912H105.044V55.3456H120.126C120.367 55.3388 120.606 55.3836 120.829 55.477C121.051 55.5704 121.251 55.7102 121.415 55.887C121.589 56.0525 121.728 56.2525 121.821 56.4744C121.914 56.6963 121.96 56.9352 121.956 57.1758C121.963 57.413 121.918 57.6489 121.824 57.867C121.731 58.0851 121.591 58.2803 121.415 58.439C121.244 58.6058 121.043 58.7373 120.822 58.8258C120.601 58.9144 120.364 58.9582 120.126 58.9549H103.084C102.83 58.9732 102.575 58.9338 102.339 58.8395C102.102 58.7452 101.89 58.5985 101.719 58.4105Z" fill="url(#paint2_linear_57_4729)"/>
<path d="M72.3412 56.5036L61.8534 31.0616C61.6732 30.5027 61.3231 30.0139 60.8518 29.6635C60.3806 29.313 59.8118 29.1184 59.2247 29.1066H58.2968C57.7096 29.1184 57.1408 29.313 56.6696 29.6635C56.1984 30.0139 55.8483 30.5027 55.6681 31.0616L51.1069 42.1434H47.6481C47.151 42.1489 46.6761 42.3499 46.3261 42.7028C45.976 43.0557 45.7789 43.5322 45.7773 44.0292V44.0548C45.7801 44.5529 45.9792 45.0298 46.3314 45.382C46.6836 45.7342 47.1605 45.9333 47.6586 45.9361H49.5144L45.1532 56.5036C45.0707 56.7355 45.027 56.9794 45.0239 57.2254C45.0033 57.7475 45.1885 58.2568 45.5397 58.6436C45.7195 58.8278 45.9367 58.9714 46.1766 59.0648C46.4166 59.1582 46.6737 59.1992 46.9307 59.185C47.3204 59.1798 47.6987 59.0536 48.0135 58.824C48.3453 58.5795 48.605 58.2502 48.7654 57.8706L53.5582 45.9376H56.8561C57.3542 45.9348 57.8311 45.7358 58.1833 45.3835C58.5355 45.0313 58.7346 44.5544 58.7374 44.0563V44.0037C58.7346 43.5056 58.5355 43.0287 58.1833 42.6764C57.8311 42.3242 57.3542 42.1251 56.8561 42.1224H55.0786L58.763 32.973L68.7365 57.8691C68.8969 58.2486 69.1567 58.578 69.4884 58.8225C69.8032 59.0521 70.1815 59.1783 70.5711 59.1834C70.8282 59.1977 71.0853 59.1567 71.3253 59.0633C71.5652 58.9699 71.7824 58.8263 71.9622 58.6421C72.3134 58.2553 72.4986 57.746 72.478 57.2239C72.4851 56.9768 72.4384 56.731 72.3412 56.5036Z" fill="url(#paint3_linear_57_4729)"/>
<path d="M41.0039 56.502L30.5161 31.0601C30.3359 30.5011 29.9858 30.0124 29.5146 29.6619C29.0433 29.3115 28.4745 29.1168 27.8874 29.1051H26.9595C26.3724 29.1168 25.8035 29.3115 25.3323 29.6619C24.8611 30.0124 24.511 30.5011 24.3308 31.0601L19.7696 42.1464H16.3108C15.8145 42.1519 15.3403 42.3522 14.9904 42.7041C14.6404 43.056 14.4428 43.5314 14.44 44.0277V44.0532C14.4428 44.5513 14.6419 45.0283 14.9941 45.3805C15.3463 45.7327 15.8232 45.9318 16.3213 45.9346H18.1726L13.8114 56.502C13.7289 56.7339 13.6852 56.9778 13.6821 57.2239C13.6615 57.7459 13.8467 58.2552 14.1979 58.642C14.3777 58.8263 14.5949 58.9699 14.8348 59.0633C15.0748 59.1566 15.3319 59.1976 15.589 59.1834C15.9786 59.1782 16.3569 59.0521 16.6717 58.8225C17.0035 58.578 17.2632 58.2486 17.4237 57.869L22.2164 45.9361H25.5414C26.04 45.9337 26.5175 45.7346 26.8701 45.382C27.2227 45.0294 27.4218 44.5519 27.4242 44.0532V44.0021C27.4214 43.504 27.2223 43.0271 26.8701 42.6749C26.5179 42.3227 26.041 42.1236 25.5429 42.1208H23.7638L27.4227 32.9714L37.3962 57.8675C37.5566 58.2471 37.8163 58.5765 38.1481 58.821C38.4629 59.0506 38.8412 59.1767 39.2309 59.1819C39.4879 59.1961 39.7451 59.1551 39.985 59.0618C40.2249 58.9684 40.4421 58.8248 40.6219 58.6405C40.9731 58.2537 41.1583 57.7444 41.1377 57.2224C41.1457 56.9754 41.1 56.7297 41.0039 56.502Z" fill="url(#paint4_linear_57_4729)"/>
</g>
</g>
<rect x="0.605255" y="0.5" width="134.105" height="87.8363" rx="3.5" stroke="white"/>
<defs>
<linearGradient id="paint0_linear_57_4729" x1="144.81" y1="30.1043" x2="0.417471" y2="39.416" gradientUnits="userSpaceOnUse">
<stop stop-color="#52DEF1" stop-opacity="0.11"/>
<stop offset="1" stop-color="#52DEF1" stop-opacity="0.28"/>
</linearGradient>
<linearGradient id="paint1_linear_57_4729" x1="15.0134" y1="60.2062" x2="124.602" y2="36.9479" gradientUnits="userSpaceOnUse">
<stop stop-color="#30BAC6"/>
<stop offset="1" stop-color="#B6509E"/>
</linearGradient>
<linearGradient id="paint2_linear_57_4729" x1="17.0596" y1="68.2983" x2="127.462" y2="54.4471" gradientUnits="userSpaceOnUse">
<stop stop-color="#30BAC6"/>
<stop offset="1" stop-color="#B6509E"/>
</linearGradient>
<linearGradient id="paint3_linear_57_4729" x1="14.1879" y1="56.9617" x2="123.778" y2="33.6541" gradientUnits="userSpaceOnUse">
<stop stop-color="#30BAC6"/>
<stop offset="1" stop-color="#B6509E"/>
</linearGradient>
<linearGradient id="paint4_linear_57_4729" x1="12.2801" y1="49.47" x2="121.877" y2="26.1342" gradientUnits="userSpaceOnUse">
<stop stop-color="#30BAC6"/>
<stop offset="1" stop-color="#B6509E"/>
</linearGradient>
<clipPath id="clip0_57_4729">
<rect x="0.105255" width="135.105" height="88.8363" rx="4" fill="white"/>
</clipPath>
<clipPath id="clip1_57_4729">
<rect width="108.26" height="30.0768" fill="white" transform="translate(13.6884 29.1066)"/>
</clipPath>
</defs>
</svg>
