<svg width="77" height="59" viewBox="0 0 77 59" fill="none" xmlns="http://www.w3.org/2000/svg">
<path id="logo-svg" d="M0.907672 0.742878L0 3.9278H2.31465V17.8809H5.84779V3.9278H8.16243L7.30602 0.742878H0.907672ZM18.0823 0.742878H14.5492V8.0723H12.6628V0.742878H9.12797V17.8874H12.6628V11.0231H14.5492V17.8809H18.0823V0.742878ZM19.5042 17.8874H26.0943L26.6912 14.6943H23.0621V10.951H25.9273V8.00352H23.0621V3.9278H26.835L26.2382 0.742878H19.5042V17.8874ZM37.5882 17.8874L38.2098 14.6943H34.89C34.6519 14.6943 34.5808 14.5764 34.5808 14.3668V4.25858C34.5808 4.0457 34.6519 3.93108 34.89 3.93108H38.2098L37.613 0.742878H33.0515C31.9057 0.742878 31.0229 1.4994 31.0229 2.84706V15.238C31.0229 17.1309 31.7388 17.8874 33.7211 17.8874H37.5882ZM44.5503 3.73949C44.7901 3.73949 44.881 3.88032 44.881 4.09319V9.29551C44.881 9.55587 44.8099 9.65084 44.5503 9.65084H42.8557V3.73949H44.5503ZM48.2984 2.95841C48.2984 1.61075 47.5825 0.736328 45.9589 0.736328H39.3936V17.8809H42.8557V12.4182H43.3087L44.9802 17.8809H48.5613L46.7426 12.4182C46.9464 12.4254 47.1495 12.3913 47.3395 12.318C47.5295 12.2447 47.7024 12.1337 47.8476 11.9919C47.9928 11.8501 48.1073 11.6804 48.1839 11.4933C48.2606 11.3061 48.2978 11.1054 48.2934 10.9035L48.2984 2.95841ZM54.9265 3.73949C55.1646 3.73949 55.2374 3.85739 55.2374 4.06699V14.5191C55.2374 14.7795 55.1894 14.8744 54.9067 14.8744H53.5923C53.3063 14.8744 53.2617 14.7795 53.2617 14.5191V4.07027C53.2617 3.85739 53.3327 3.74277 53.5725 3.74277L54.9265 3.73949ZM58.754 2.95841C58.754 1.61075 58.0298 0.742878 56.4063 0.742878H52.1076C50.4841 0.742878 49.7682 1.6173 49.7682 2.96496V15.4508C49.7682 16.751 50.3171 17.8874 52.2482 17.8874H56.2591C58.1919 17.8874 58.7391 16.751 58.7391 15.4508L58.754 2.95841ZM65.3077 17.8809C67.2917 17.8809 67.953 17.1702 67.953 15.2789V9.62792C67.953 8.35067 67.3331 7.87744 66.2352 7.87744H64.0595C63.7024 7.87744 63.5354 7.78246 63.5354 7.42877V4.30606C63.5354 4.0457 63.6776 3.9278 63.9652 3.9278H67.8803L67.2834 0.742878H62.5087C60.8851 0.742878 60.1692 1.6173 60.1692 2.96496V8.78297C60.1692 10.4843 61.0752 10.7218 62.102 10.7218H63.8925C64.3703 10.7218 64.5373 10.7447 64.5373 11.213V14.3341C64.5373 14.5944 64.443 14.6894 64.1322 14.6894H60.4073L61.0273 17.8825L65.3077 17.8809ZM74.3547 17.8809C76.3387 17.8809 77 17.1702 77 15.2789V9.62792C77 8.35067 76.38 7.87744 75.2822 7.87744H73.1064C72.7493 7.87744 72.5823 7.78246 72.5823 7.42877V4.30606C72.5823 4.0457 72.7245 3.9278 73.0122 3.9278H76.9273L76.3304 0.742878H71.5556C69.9321 0.742878 69.2145 1.6173 69.2145 2.96496V8.78297C69.2145 10.4843 70.1222 10.7218 71.1489 10.7218H72.9395C73.4173 10.7218 73.5843 10.7447 73.5843 11.213V14.3341C73.5843 14.5944 73.4884 14.6894 73.1792 14.6894H69.4543L70.0742 17.8825L74.3547 17.8809ZM7.0514 38.0221L7.66644 34.8289H4.34657C4.10684 34.8289 4.03575 34.711 4.03575 34.5014V24.3998C4.03575 24.1869 4.10684 24.0723 4.34657 24.0723H7.66644L7.06794 20.8841H2.50808C1.36233 20.8841 0.477809 21.6406 0.477809 22.9882V35.3791C0.477809 37.2721 1.1937 38.0286 3.17603 38.0286L7.0514 38.0221ZM17.8029 20.8841H14.2681V28.2135H12.3817V20.8841H8.84856V38.0286H12.3817V31.1642H14.2681V38.0221H17.8029V20.8841ZM24.9122 35.8999L25.223 38.0286H28.7082L25.5752 20.8841H21.8751L18.7437 38.0221H22.2322L22.543 35.8933L24.9122 35.8999ZM23.7417 27.1032L24.5303 33.1734H22.9299L23.7417 27.1032ZM29.6556 38.0221H33.1176V20.8841H29.6556V38.0221ZM34.5511 38.0221H37.7519V30.8564L39.6135 38.0221H43.1632V20.8841H39.6052V27.7615L37.8378 20.8841H34.5428L34.5511 38.0221ZM7.05306 58.1632L7.66644 54.9701H4.34657C4.10684 54.9701 4.03575 54.8522 4.03575 54.6426V44.5409C4.03575 44.328 4.10684 44.2134 4.34657 44.2134H7.66644L7.06794 41.0252H2.50808C1.36233 41.0252 0.477809 41.7817 0.477809 43.1294V55.5203C0.477809 57.4133 1.1937 58.1698 3.17603 58.1698L7.05306 58.1632ZM13.9672 44.0218C14.207 44.0218 14.2781 44.1397 14.2781 44.3493V54.8015C14.2781 55.0618 14.2301 55.1568 13.9474 55.1568H12.6264C12.3387 55.1568 12.2957 55.0618 12.2957 54.8015V44.3526C12.2957 44.1397 12.3685 44.0251 12.6066 44.0251L13.9672 44.0218ZM17.7881 43.2408C17.7881 41.8931 17.0722 41.0187 15.4486 41.0187H11.1384C9.51485 41.0187 8.79896 41.8931 8.79896 43.2408V55.7266C8.79896 57.0268 9.34786 58.1632 11.2789 58.1632H15.2899C17.2243 58.1632 17.7699 57.0268 17.7699 55.7266L17.7881 43.2408ZM24.732 56.0345L25.0428 58.1632H28.528L25.3884 41.0252H21.6882L18.5602 58.1698H22.0503L22.3595 56.041L24.732 56.0345ZM23.5614 47.2379L24.3501 53.3146H22.7497L23.5614 47.2379ZM29.4721 58.1632H35.92L36.5168 54.9701H33.0184V41.0252H29.4605L29.4721 58.1632ZM37.5865 58.1632H41.0486V41.0252H37.575L37.5865 58.1632ZM42.9003 41.0252L41.9943 44.2167H44.3089V58.1698H47.8421V44.2102H50.1567L49.3003 41.0252H42.9003ZM51.1223 58.1698H54.5843V41.0252H51.1223V58.1698ZM61.1761 44.0284C61.4142 44.0284 61.4853 44.1463 61.4853 44.3559V54.808C61.4853 55.0684 61.4373 55.1633 61.1546 55.1633H59.8419C59.5558 55.1633 59.5112 55.0684 59.5112 54.808V44.3526C59.5112 44.1397 59.5823 44.0251 59.8204 44.0251L61.1761 44.0284ZM64.9953 43.2473C64.9953 41.8996 64.2794 41.0252 62.6558 41.0252H58.3572C56.7336 41.0252 56.0177 41.8996 56.0177 43.2473V55.7332C56.0177 57.0334 56.5666 58.1698 58.4977 58.1698H62.5087C64.443 58.1698 64.9886 57.0334 64.9886 55.7332L64.9953 43.2473ZM66.4171 58.1698H69.6163V50.9976L71.4845 58.1632H75.0408V41.0252H71.4845V47.9027L69.7171 41.0252H66.4171V58.1698Z" fill="#09032F"/>
</svg>
