<svg width="136" height="89" viewBox="0 0 136 89" fill="none" xmlns="http://www.w3.org/2000/svg">
<g clip-path="url(#clip0_57_4728)">
<rect width="135.105" height="88.8363" rx="10.1792" fill="white"/>
<g clip-path="url(#clip1_57_4728)">
<path fill-rule="evenodd" clip-rule="evenodd" d="M27.9276 35.0368C27.8122 35.0116 27.6966 34.9698 27.5811 34.9279H26.9131C26.2597 35.0977 25.7449 35.5019 25.22 35.914L25.1645 35.9576C24.2901 36.6524 23.0942 36.6524 22.2694 35.9492C21.7497 35.5055 21.2218 35.1205 20.562 34.9279H19.9021C19.201 35.0954 18.6567 35.5223 18.104 35.9576C17.2215 36.6524 16.0172 36.6524 15.1842 35.9241C14.6645 35.4721 14.1284 35.1037 13.4686 34.9279H12.8087C12.652 34.9865 12.487 35.0451 12.3221 35.1037V35.1037L12.3221 35.1037C11.522 35.4051 11.0271 35.9911 10.7797 36.8031C10.7632 36.8533 10.7446 36.9036 10.726 36.9538C10.7075 37.004 10.6889 37.0542 10.6724 37.1044V37.7741C10.8374 38.469 11.2168 39.0131 11.6869 39.5321C12.4293 40.3943 12.4375 41.6751 11.7034 42.5206C11.2415 43.048 10.8621 43.6005 10.6807 44.2869V44.9566C10.8539 45.6431 11.2415 46.1872 11.7034 46.723C12.421 47.56 12.4293 48.8408 11.7117 49.678C11.2498 50.2221 10.8456 50.7746 10.6807 51.4861V52.1558C10.7467 52.3149 10.8044 52.4823 10.8621 52.6497L10.8621 52.6497C11.1591 53.4618 11.7282 53.9724 12.5283 54.2236C12.5777 54.2403 12.6272 54.2591 12.6767 54.278C12.7262 54.2968 12.7757 54.3156 12.8252 54.3323H13.4851C14.1614 54.1566 14.6975 53.7631 15.2254 53.2943C16.0667 52.5493 17.3369 52.5493 18.17 53.3027C18.6979 53.7715 19.2423 54.1566 19.9186 54.3323H20.5784C20.6462 54.3094 20.7139 54.283 20.7824 54.2564H20.7824H20.7825C20.8641 54.2245 20.9469 54.1922 21.0321 54.1649C22.1292 53.7799 22.855 52.6163 22.6818 51.5112C22.4838 50.2221 21.5518 49.3515 20.3228 49.3013C19.6052 49.2762 19.003 49.5189 18.4834 50.0044C17.7824 50.6658 16.974 50.9755 16.0255 50.6992C14.1862 50.1719 13.5428 47.8949 14.846 46.4802C15.4316 45.8439 15.6956 45.124 15.6048 44.2702C15.5349 43.6309 15.1642 43.1627 14.7903 42.6904L14.7902 42.6903L14.7902 42.6902C14.7675 42.6616 14.7449 42.633 14.7223 42.6043C13.3531 40.8715 14.6398 38.8624 16.1162 38.4941C17.0235 38.268 17.7824 38.5527 18.4422 39.2056C19.4485 40.1934 20.9662 40.2687 21.8899 39.281C22.9292 38.1759 24.5541 38.1425 25.6016 39.2893C26.2945 40.0427 27.4492 40.1683 28.3565 39.7162C29.305 39.2391 29.8164 38.268 29.7092 37.1212C29.6267 36.1752 28.8761 35.3046 27.9276 35.0368ZM27.2842 51.0089C26.7976 51.0005 26.4264 51.3606 26.4264 51.8628C26.4264 52.3651 26.7893 52.7418 27.2677 52.7334C27.7379 52.7334 28.1338 52.3232 28.1255 51.8545C28.1173 51.4024 27.7379 51.0173 27.2842 51.0089ZM26.4264 44.8227C26.4346 44.3205 26.7893 43.9689 27.2925 43.9772C27.7544 43.9856 28.1255 44.3707 28.1255 44.8311C28.1255 45.2999 27.7214 45.7101 27.2594 45.7101C26.7893 45.7017 26.4264 45.3083 26.4264 44.8227ZM20.2072 45.7604C20.6856 45.7688 21.0568 45.3921 21.0568 44.8982C21.0651 44.3959 20.7021 44.0275 20.2072 44.0359C19.7453 44.0443 19.3742 44.4126 19.3577 44.8731C19.3412 45.3418 19.7371 45.752 20.2072 45.7604Z" fill="#F8BF1E"/>
<path d="M39.1788 53.5873C41.339 53.5873 42.9004 52.9774 44.0767 51.8227C45.1247 50.7987 45.8092 49.3827 45.9161 47.8359H42.1304C41.9593 49.3391 40.8471 50.4284 39.1574 50.4284C36.8901 50.4284 35.4785 48.3588 35.4785 45.5048C35.4785 42.6727 36.6549 40.5594 39.136 40.5594C40.7615 40.5594 41.831 41.6269 42.0235 43.0212H45.8092C45.6167 41.2783 44.8467 39.7533 43.5206 38.7294C42.4299 37.8798 40.9326 37.3569 39.1574 37.3569C34.6015 37.3569 31.6284 40.8644 31.6284 45.5048C31.6284 50.167 34.6871 53.5873 39.1788 53.5873ZM52.6092 51.0602C51.0906 51.0602 50.2992 49.7095 50.2992 47.6834C50.2992 45.6573 51.0906 44.2848 52.6092 44.2848C54.1278 44.2848 54.9406 45.6573 54.9406 47.6834C54.9406 49.7095 54.1278 51.0602 52.6092 51.0602ZM52.6306 53.5873C56.1597 53.5873 58.4697 51.0384 58.4697 47.6834C58.4697 44.3283 56.1597 41.7795 52.6306 41.7795C49.1228 41.7795 46.77 44.3283 46.77 47.6834C46.77 51.0384 49.1228 53.5873 52.6306 53.5873ZM80.8933 49.9914V40.8849H83.1606C85.5346 40.8849 86.882 42.7149 86.882 45.5471C86.882 48.401 85.5989 49.9914 83.1176 49.9914H80.8933ZM77.107 53.2375H83.3959C85.3206 53.2375 86.8608 52.7365 88.0584 51.8214C89.7696 50.4925 90.7107 48.2921 90.7107 45.5471C90.7107 40.776 87.8656 37.6606 83.6312 37.6606H77.107V53.2375ZM97.3216 53.5643C98.712 53.5643 99.8241 53.1939 100.744 52.5403C101.706 51.865 102.348 50.9064 102.583 49.9043H99.1826C98.883 50.6014 98.2845 51.0153 97.3646 51.0153C95.9317 51.0153 95.1186 50.0785 94.9045 48.5753H102.776C102.797 46.3096 102.156 44.3707 100.851 43.1507C99.9096 42.2792 98.669 41.7563 97.1081 41.7563C93.7712 41.7563 91.4827 44.3053 91.4827 47.6386C91.4827 51.0153 93.7069 53.5643 97.3216 53.5643ZM94.9263 46.4621C95.1616 45.1331 95.8456 44.2835 97.1718 44.2835C98.3057 44.2835 99.1183 45.1331 99.2469 46.4621H94.9263ZM108.606 53.5861C111.472 53.5861 113.589 52.3225 113.589 49.8825C113.589 47.0285 111.322 46.5275 109.397 46.2007C108.007 45.9392 106.767 45.8303 106.767 45.046C106.767 44.3489 107.429 44.0221 108.285 44.0221C109.247 44.0221 109.911 44.3271 110.039 45.3292H113.247C113.076 43.1288 111.408 41.7563 108.306 41.7563C105.718 41.7563 103.58 42.9763 103.58 45.3292C103.58 47.9436 105.612 48.4664 107.515 48.7932C108.97 49.0546 110.296 49.1636 110.296 50.1657C110.296 50.8846 109.632 51.2768 108.585 51.2768C107.429 51.2768 106.702 50.7321 106.574 49.6211H103.28C103.387 52.0828 105.397 53.5861 108.606 53.5861ZM114.721 53.2375H118.165V49.8171L119.213 48.6843L121.843 53.2375H125.886L121.587 46.2661L125.437 42.0831H121.416L118.165 45.8521V37.6606H114.721V53.2375Z" fill="#201755"/>
<path d="M68.4963 53.2375H65.01V42.0831H68.368V43.6081H68.4322C69.2449 42.4099 70.293 41.7563 71.8115 41.7563C74.2073 41.7563 75.619 43.4992 75.619 45.9828V53.2375H72.1322V46.7017C72.1322 45.5253 71.555 44.7192 70.4213 44.7192C69.2663 44.7192 68.4963 45.6996 68.4963 47.0721V53.2375Z" fill="#201755"/>
<path d="M59.2293 44.3749L59.2294 42.1073H63.5316V53.2649H60.2144V44.3749H59.2293Z" fill="#201755"/>
<path d="M61.6272 41.1373C62.6793 41.1373 63.5322 40.2685 63.5322 39.1968C63.5322 38.1251 62.6793 37.2564 61.6272 37.2564C60.575 37.2564 59.7221 38.1251 59.7221 39.1968C59.7221 40.2685 60.575 41.1373 61.6272 41.1373Z" fill="#201755"/>
</g>
</g>
<rect x="0.48511" y="0.48511" width="134.135" height="87.8661" rx="3.51489" stroke="#A2A2A3" stroke-opacity="0.1" stroke-width="0.970221"/>
<defs>
<clipPath id="clip0_57_4728">
<rect width="135.105" height="88.8363" rx="4" fill="white"/>
</clipPath>
<clipPath id="clip1_57_4728">
<rect width="115.214" height="19.4044" fill="white" transform="translate(10.6724 34.9279)"/>
</clipPath>
</defs>
</svg>
