<svg width="401" height="214" viewBox="0 0 401 214" fill="none" xmlns="http://www.w3.org/2000/svg">
<path d="M53.639 47.0773C52.7952 46.4011 51.8076 45.9823 50.8094 45.6755V31.6816C50.8094 28.7023 49.7401 26.1907 47.7172 24.4184C45.9371 22.8589 43.5516 22 41 22C38.4484 22 36.0629 22.8589 34.2828 24.4184C32.2598 26.1906 31.1906 28.7022 31.1906 31.6816V45.6755C30.1925 45.9823 29.2049 46.401 28.361 47.0773C26.7266 48.387 25.9322 50.3918 25.9322 53.206V61.0625C25.9322 61.5802 26.352 62 26.8697 62H55.1305C55.6482 62 56.068 61.5802 56.068 61.0625V53.2061C56.0679 50.3919 55.2734 48.3871 53.639 47.0773ZM33.0655 31.6816C33.0655 26.318 37.1785 23.875 41 23.875C43.0969 23.875 45.0436 24.5688 46.4817 25.8287C48.0863 27.2345 48.9345 29.2583 48.9345 31.6816V45.1907C48.9108 45.1852 48.8868 45.1795 48.8632 45.1741C46.1819 44.5534 44.7596 44.1245 44.5738 42.0016C45.0743 41.5384 45.5345 40.9764 45.9441 40.3222C47.3362 38.0986 48.072 34.8837 48.072 31.0253C48.072 30.5356 47.6952 30.1285 47.207 30.0906C45.5854 29.9648 44.0373 29.271 42.8479 28.1368C42.6308 27.9298 42.3276 27.8392 42.0326 27.893C41.7374 27.9469 41.4859 28.1388 41.3559 28.4091C40.1693 30.8781 37.6438 32.4734 34.922 32.4735L34.8721 32.4734C34.6233 32.4701 34.3822 32.5696 34.2049 32.7455C34.0277 32.9216 33.928 33.161 33.928 33.4108C33.928 36.361 34.6277 38.9046 35.9514 40.7667C36.3782 41.3671 36.8642 41.8804 37.3914 42.2972C37.1013 44.167 35.6891 44.5831 33.1368 45.1741C33.1133 45.1795 33.0893 45.1852 33.0656 45.1906V31.6816H33.0655ZM44.3548 39.3273C43.4046 40.8453 42.1495 41.6812 40.8204 41.681C40.8203 41.681 40.82 41.681 40.8199 41.681C38.5259 41.6807 36.0959 39.1022 35.8275 34.302C38.521 34.0241 40.9755 32.5212 42.4629 30.2532C43.5682 31.0598 44.8442 31.6071 46.1852 31.8476C46.0702 35.772 45.1418 38.0704 44.3548 39.3273ZM39.0967 43.2531C39.6552 43.4519 40.2344 43.5559 40.8197 43.556H40.8205C41.5313 43.556 42.2191 43.41 42.8696 43.129C43.1623 44.248 43.7931 45.1061 44.7827 45.7322C45.3941 46.1191 46.0984 46.3844 46.8326 46.5973C46.0459 49.4665 43.4047 50.76 40.9999 50.76C38.5952 50.76 35.9541 49.4664 35.1673 46.5973C35.9014 46.3843 36.6058 46.1191 37.2173 45.7322C38.1699 45.1294 38.7905 44.3119 39.0967 43.2531ZM54.1929 60.125H50.8094V55.0886C50.8094 54.5709 50.3896 54.1511 49.8719 54.1511C49.3541 54.1511 48.9344 54.5709 48.9344 55.0886V60.125H33.0655V55.0886C33.0655 54.5709 32.6458 54.1511 32.128 54.1511C31.6103 54.1511 31.1905 54.5709 31.1905 55.0886V60.125H27.8071V53.2061C27.8071 48.4451 30.3516 47.7463 33.3473 47.0502C33.785 48.6898 34.7095 50.0652 36.052 51.059C37.4252 52.0753 39.1823 52.6351 40.9999 52.6351C42.8175 52.6351 44.5748 52.0753 45.9478 51.059C47.2904 50.0652 48.2148 48.6898 48.6526 47.0502C51.6483 47.7463 54.1929 48.445 54.1929 53.2061V60.125Z" fill="#5E5E5E"/>
<path d="M76.08 37.28C79.24 37.28 81.36 35.54 81.36 32.8V32.56C81.36 30.04 79.34 28.96 77.48 28.96H76.74V28.64L80.96 26.4V23H71.04V25.28H78.12V25.6L73.6 28V30.8H76.4C77.76 30.8 78.8 31.34 78.8 32.62V32.82C78.8 34.08 77.8 35 76.08 35C74.36 35 73.24 34.04 73.24 32.54V32.26H70.68V32.62C70.68 35.5 72.92 37.28 76.08 37.28ZM88.648 37.28C91.968 37.28 94.128 35.48 94.128 31.76V28.24C94.128 24.64 91.968 22.72 88.648 22.72C85.328 22.72 83.168 24.64 83.168 28.24V31.76C83.168 35.48 85.328 37.28 88.648 37.28ZM88.648 35C86.708 35 85.728 33.94 85.728 31.84V28.12C85.728 26.14 86.808 25 88.648 25C90.428 25 91.568 26.06 91.568 28.12V31.84C91.568 33.86 90.648 35 88.648 35ZM98.0967 37.26L108.857 23.96L107.337 22.74L96.5767 36.04L98.0967 37.26ZM98.8967 29C100.917 29 102.137 27.86 102.137 25.98V25.84C102.137 23.96 100.857 22.8 98.8967 22.8C96.8767 22.8 95.6567 23.96 95.6567 25.84V25.98C95.6567 27.86 96.8767 29 98.8967 29ZM98.8967 27.36C98.1167 27.36 97.6567 26.84 97.6567 26.06V25.74C97.6567 24.96 98.1167 24.44 98.8967 24.44C99.6767 24.44 100.137 24.96 100.137 25.74V26.06C100.137 26.84 99.6767 27.36 98.8967 27.36ZM106.537 37.2C108.557 37.2 109.777 36.06 109.777 34.18V34.04C109.777 32.16 108.497 31 106.537 31C104.517 31 103.297 32.16 103.297 34.04V34.18C103.297 36.06 104.517 37.2 106.537 37.2ZM106.537 35.56C105.757 35.56 105.297 35.04 105.297 34.26V33.94C105.297 33.16 105.757 32.64 106.537 32.64C107.317 32.64 107.777 33.16 107.777 33.94V34.26C107.777 35.04 107.317 35.56 106.537 35.56Z" fill="#09032F"/>
<path d="M79.5175 59H77.905L75.805 50.5925H76.0525L73.945 59H72.3325L70.2475 49.1H71.71L73.2175 57.3275H73.195L75.34 49.1H76.51L78.655 57.3275H78.6325L80.1475 49.1H81.6025L79.5175 59ZM85.5174 59.18C84.8824 59.18 84.3174 59.0375 83.8224 58.7525C83.3324 58.4675 82.9474 58.0825 82.6674 57.5975C82.3874 57.1075 82.2474 56.555 82.2474 55.94C82.2474 55.325 82.3874 54.77 82.6674 54.275C82.9474 53.78 83.3324 53.3875 83.8224 53.0975C84.3174 52.8075 84.8824 52.6625 85.5174 52.6625C86.1474 52.6625 86.7049 52.8075 87.1899 53.0975C87.6799 53.3875 88.0624 53.78 88.3374 54.275C88.6124 54.77 88.7499 55.325 88.7499 55.94C88.7499 56.555 88.6124 57.1075 88.3374 57.5975C88.0624 58.0825 87.6799 58.4675 87.1899 58.7525C86.7049 59.0375 86.1474 59.18 85.5174 59.18ZM85.5174 58.0625C85.9174 58.0625 86.2649 57.97 86.5599 57.785C86.8599 57.6 87.0924 57.3475 87.2574 57.0275C87.4224 56.7025 87.5049 56.3375 87.5049 55.9325C87.5049 55.5275 87.4224 55.1625 87.2574 54.8375C87.0924 54.5125 86.8599 54.255 86.5599 54.065C86.2649 53.875 85.9174 53.78 85.5174 53.78C85.1124 53.78 84.7599 53.875 84.4599 54.065C84.1599 54.255 83.9249 54.5125 83.7549 54.8375C83.5899 55.1625 83.5074 55.5275 83.5074 55.9325C83.5074 56.3375 83.5899 56.7025 83.7549 57.0275C83.9249 57.3475 84.1599 57.6 84.4599 57.785C84.7599 57.97 85.1124 58.0625 85.5174 58.0625ZM97.5842 52.6625C98.0392 52.6625 98.4292 52.7625 98.7542 52.9625C99.0792 53.1575 99.3267 53.4575 99.4967 53.8625C99.6717 54.2675 99.7592 54.785 99.7592 55.415V59H98.4692V55.6775C98.4692 55.0125 98.3767 54.5125 98.1917 54.1775C98.0067 53.8425 97.6692 53.675 97.1792 53.675C96.9192 53.675 96.6692 53.7475 96.4292 53.8925C96.1942 54.0325 95.9992 54.25 95.8442 54.545C95.6942 54.84 95.6192 55.2175 95.6192 55.6775V59H94.4042V55.6775C94.4042 55.0125 94.2892 54.5125 94.0592 54.1775C93.8292 53.8425 93.5067 53.675 93.0917 53.675C92.8267 53.675 92.5767 53.745 92.3417 53.885C92.1117 54.02 91.9242 54.235 91.7792 54.53C91.6342 54.825 91.5617 55.2075 91.5617 55.6775V59H90.2642V52.8425H91.5617V53.7875C91.6167 53.6325 91.7342 53.4675 91.9142 53.2925C92.0992 53.1175 92.3342 52.97 92.6192 52.85C92.9092 52.725 93.2317 52.6625 93.5867 52.6625C93.9567 52.6625 94.2667 52.7375 94.5167 52.8875C94.7667 53.0375 94.9642 53.2225 95.1092 53.4425C95.2542 53.6575 95.3542 53.865 95.4092 54.065C95.4792 53.85 95.6142 53.635 95.8142 53.42C96.0142 53.2 96.2667 53.02 96.5717 52.88C96.8767 52.735 97.2142 52.6625 97.5842 52.6625ZM102.381 56.1875C102.386 56.5575 102.466 56.895 102.621 57.2C102.776 57.505 103.006 57.7475 103.311 57.9275C103.621 58.1075 104.001 58.1975 104.451 58.1975C104.831 58.1975 105.154 58.1425 105.419 58.0325C105.689 57.9175 105.909 57.7825 106.079 57.6275C106.249 57.4675 106.371 57.325 106.446 57.2L107.084 57.9875C106.919 58.2275 106.716 58.4375 106.476 58.6175C106.241 58.7975 105.954 58.935 105.614 59.03C105.274 59.13 104.859 59.18 104.369 59.18C103.709 59.18 103.136 59.04 102.651 58.76C102.171 58.475 101.801 58.0825 101.541 57.5825C101.281 57.0775 101.151 56.5 101.151 55.85C101.151 55.25 101.274 54.71 101.519 54.23C101.764 53.745 102.119 53.3625 102.584 53.0825C103.054 52.8025 103.619 52.6625 104.279 52.6625C104.884 52.6625 105.409 52.79 105.854 53.045C106.304 53.295 106.651 53.65 106.896 54.11C107.146 54.57 107.271 55.12 107.271 55.76C107.271 55.8 107.269 55.8725 107.264 55.9775C107.259 56.0775 107.254 56.1475 107.249 56.1875H102.381ZM106.026 55.205C106.021 55 105.961 54.775 105.846 54.53C105.736 54.285 105.556 54.075 105.306 53.9C105.056 53.725 104.719 53.6375 104.294 53.6375C103.854 53.6375 103.499 53.7225 103.229 53.8925C102.964 54.0625 102.769 54.27 102.644 54.515C102.519 54.755 102.446 54.985 102.426 55.205H106.026ZM112.155 52.6625C112.56 52.6625 112.952 52.7475 113.332 52.9175C113.717 53.0875 114.032 53.3575 114.277 53.7275C114.527 54.0925 114.652 54.57 114.652 55.16V59H113.332V55.415C113.332 54.805 113.19 54.3625 112.905 54.0875C112.62 53.8075 112.252 53.6675 111.802 53.6675C111.507 53.6675 111.222 53.7525 110.947 53.9225C110.677 54.0875 110.455 54.3175 110.28 54.6125C110.105 54.9025 110.017 55.2325 110.017 55.6025V59H108.712V52.8425H110.017V53.9375C110.062 53.7675 110.185 53.5825 110.385 53.3825C110.585 53.1825 110.84 53.0125 111.15 52.8725C111.46 52.7325 111.795 52.6625 112.155 52.6625Z" fill="#5E5E5E"/>
<g clip-path="url(#clip0_57_4659)">
<path d="M269.978 29.6402L258.219 22.8588C256.234 21.7137 253.766 21.7138 251.781 22.8588L240.022 29.6402C238.033 30.7874 236.797 32.927 236.797 35.2239V48.776C236.797 51.0729 238.033 53.2125 240.022 54.3598L251.781 61.1411C253.767 62.2865 256.234 62.2861 258.219 61.1411L269.978 54.3598C271.967 53.2125 273.203 51.0729 273.203 48.776V35.2239C273.203 32.9271 271.967 30.7875 269.978 29.6402ZM270.078 48.776C270.078 49.9592 269.442 51.0613 268.417 51.6522L256.658 58.4335C255.635 59.0235 254.365 59.0235 253.342 58.4335L241.583 51.6522C240.558 51.0612 239.922 49.9592 239.922 48.776V35.2239C239.922 34.0409 240.558 32.9388 241.583 32.3478L253.342 25.5665C254.365 24.9765 255.636 24.9767 256.658 25.5665L268.417 32.3477C269.442 32.9388 270.078 34.0408 270.078 35.2239V48.776Z" fill="#5E5E5E"/>
<path d="M253.515 40.807L247.712 35.8958C247.053 35.3383 246.067 35.4204 245.51 36.0793C244.952 36.7382 245.035 37.7242 245.693 38.2817L250.087 42L245.693 45.7182C245.035 46.2757 244.952 47.2617 245.51 47.9206C246.069 48.5809 247.055 48.6602 247.712 48.1041L253.515 43.1929C254.253 42.5681 254.251 41.43 253.515 40.807Z" fill="#5E5E5E"/>
<path d="M263.297 45.3484H256.266C255.404 45.3484 254.704 46.048 254.704 46.9111C254.704 47.7742 255.404 48.4738 256.266 48.4738H263.297C264.16 48.4738 264.86 47.7742 264.86 46.9111C264.86 46.048 264.16 45.3484 263.297 45.3484Z" fill="#5E5E5E"/>
</g>
<path d="M284.795 49.1H287.128C288.183 49.1 289.05 49.3125 289.73 49.7375C290.415 50.1575 290.923 50.74 291.253 51.485C291.583 52.23 291.747 53.0825 291.747 54.0425C291.747 55.0075 291.583 55.8625 291.253 56.6075C290.923 57.3525 290.418 57.9375 289.738 58.3625C289.058 58.7875 288.188 59 287.128 59H284.795V49.1ZM286.07 50.27V57.83H287.023C287.803 57.83 288.44 57.6675 288.935 57.3425C289.43 57.0175 289.795 56.5725 290.03 56.0075C290.27 55.4375 290.393 54.7875 290.398 54.0575C290.398 53.3225 290.28 52.6725 290.045 52.1075C289.81 51.5375 289.443 51.09 288.943 50.765C288.443 50.435 287.803 50.27 287.023 50.27H286.07ZM294.16 56.1875C294.165 56.5575 294.245 56.895 294.4 57.2C294.555 57.505 294.785 57.7475 295.09 57.9275C295.4 58.1075 295.78 58.1975 296.23 58.1975C296.61 58.1975 296.932 58.1425 297.197 58.0325C297.467 57.9175 297.687 57.7825 297.857 57.6275C298.027 57.4675 298.15 57.325 298.225 57.2L298.862 57.9875C298.697 58.2275 298.495 58.4375 298.255 58.6175C298.02 58.7975 297.732 58.935 297.392 59.03C297.052 59.13 296.637 59.18 296.147 59.18C295.487 59.18 294.915 59.04 294.43 58.76C293.95 58.475 293.58 58.0825 293.32 57.5825C293.06 57.0775 292.93 56.5 292.93 55.85C292.93 55.25 293.052 54.71 293.297 54.23C293.542 53.745 293.897 53.3625 294.362 53.0825C294.832 52.8025 295.397 52.6625 296.057 52.6625C296.662 52.6625 297.187 52.79 297.632 53.045C298.082 53.295 298.43 53.65 298.675 54.11C298.925 54.57 299.05 55.12 299.05 55.76C299.05 55.8 299.047 55.8725 299.042 55.9775C299.037 56.0775 299.032 56.1475 299.027 56.1875H294.16ZM297.805 55.205C297.8 55 297.74 54.775 297.625 54.53C297.515 54.285 297.335 54.075 297.085 53.9C296.835 53.725 296.497 53.6375 296.072 53.6375C295.632 53.6375 295.277 53.7225 295.007 53.8925C294.742 54.0625 294.547 54.27 294.422 54.515C294.297 54.755 294.225 54.985 294.205 55.205H297.805ZM299.876 52.8425H301.278L303.288 57.7925L305.298 52.8425H306.693L304.061 59H302.523L299.876 52.8425ZM308.735 56.1875C308.74 56.5575 308.82 56.895 308.975 57.2C309.13 57.505 309.36 57.7475 309.665 57.9275C309.975 58.1075 310.355 58.1975 310.805 58.1975C311.185 58.1975 311.507 58.1425 311.772 58.0325C312.042 57.9175 312.262 57.7825 312.432 57.6275C312.602 57.4675 312.725 57.325 312.8 57.2L313.437 57.9875C313.272 58.2275 313.07 58.4375 312.83 58.6175C312.595 58.7975 312.307 58.935 311.967 59.03C311.627 59.13 311.212 59.18 310.722 59.18C310.062 59.18 309.49 59.04 309.005 58.76C308.525 58.475 308.155 58.0825 307.895 57.5825C307.635 57.0775 307.505 56.5 307.505 55.85C307.505 55.25 307.627 54.71 307.872 54.23C308.117 53.745 308.472 53.3625 308.937 53.0825C309.407 52.8025 309.972 52.6625 310.632 52.6625C311.237 52.6625 311.762 52.79 312.207 53.045C312.657 53.295 313.005 53.65 313.25 54.11C313.5 54.57 313.625 55.12 313.625 55.76C313.625 55.8 313.622 55.8725 313.617 55.9775C313.612 56.0775 313.607 56.1475 313.602 56.1875H308.735ZM312.38 55.205C312.375 55 312.315 54.775 312.2 54.53C312.09 54.285 311.91 54.075 311.66 53.9C311.41 53.725 311.072 53.6375 310.647 53.6375C310.207 53.6375 309.852 53.7225 309.582 53.8925C309.317 54.0625 309.122 54.27 308.997 54.515C308.872 54.755 308.8 54.985 308.78 55.205H312.38ZM316.423 59H315.111V48.68H316.423V59ZM321.153 59.18C320.518 59.18 319.953 59.0375 319.458 58.7525C318.968 58.4675 318.583 58.0825 318.303 57.5975C318.023 57.1075 317.883 56.555 317.883 55.94C317.883 55.325 318.023 54.77 318.303 54.275C318.583 53.78 318.968 53.3875 319.458 53.0975C319.953 52.8075 320.518 52.6625 321.153 52.6625C321.783 52.6625 322.341 52.8075 322.826 53.0975C323.316 53.3875 323.698 53.78 323.973 54.275C324.248 54.77 324.386 55.325 324.386 55.94C324.386 56.555 324.248 57.1075 323.973 57.5975C323.698 58.0825 323.316 58.4675 322.826 58.7525C322.341 59.0375 321.783 59.18 321.153 59.18ZM321.153 58.0625C321.553 58.0625 321.901 57.97 322.196 57.785C322.496 57.6 322.728 57.3475 322.893 57.0275C323.058 56.7025 323.141 56.3375 323.141 55.9325C323.141 55.5275 323.058 55.1625 322.893 54.8375C322.728 54.5125 322.496 54.255 322.196 54.065C321.901 53.875 321.553 53.78 321.153 53.78C320.748 53.78 320.396 53.875 320.096 54.065C319.796 54.255 319.561 54.5125 319.391 54.8375C319.226 55.1625 319.143 55.5275 319.143 55.9325C319.143 56.3375 319.226 56.7025 319.391 57.0275C319.561 57.3475 319.796 57.6 320.096 57.785C320.396 57.97 320.748 58.0625 321.153 58.0625ZM327.152 62.12H325.855V52.8425H327.175V53.9975C327.22 53.8425 327.345 53.66 327.55 53.45C327.755 53.24 328.03 53.0575 328.375 52.9025C328.725 52.7425 329.125 52.6625 329.575 52.6625C330.145 52.6625 330.65 52.8 331.09 53.075C331.535 53.345 331.882 53.725 332.132 54.215C332.387 54.7 332.515 55.27 332.515 55.925C332.515 56.58 332.385 57.1525 332.125 57.6425C331.865 58.1275 331.51 58.505 331.06 58.775C330.615 59.045 330.105 59.18 329.53 59.18C329.065 59.18 328.657 59.0925 328.307 58.9175C327.962 58.7425 327.69 58.545 327.49 58.325C327.295 58.105 327.182 57.93 327.152 57.8V62.12ZM331.225 55.925C331.225 55.48 331.132 55.095 330.947 54.77C330.767 54.445 330.527 54.1925 330.227 54.0125C329.927 53.8325 329.602 53.7425 329.252 53.7425C328.867 53.7425 328.517 53.835 328.202 54.02C327.887 54.2 327.637 54.455 327.452 54.785C327.267 55.11 327.175 55.49 327.175 55.925C327.175 56.36 327.267 56.7425 327.452 57.0725C327.637 57.3975 327.887 57.65 328.202 57.83C328.517 58.01 328.867 58.1 329.252 58.1C329.602 58.1 329.927 58.0125 330.227 57.8375C330.527 57.6575 330.767 57.405 330.947 57.08C331.132 56.755 331.225 56.37 331.225 55.925ZM334.692 56.1875C334.697 56.5575 334.777 56.895 334.932 57.2C335.087 57.505 335.317 57.7475 335.622 57.9275C335.932 58.1075 336.312 58.1975 336.762 58.1975C337.142 58.1975 337.464 58.1425 337.729 58.0325C337.999 57.9175 338.219 57.7825 338.389 57.6275C338.559 57.4675 338.682 57.325 338.757 57.2L339.394 57.9875C339.229 58.2275 339.027 58.4375 338.787 58.6175C338.552 58.7975 338.264 58.935 337.924 59.03C337.584 59.13 337.169 59.18 336.679 59.18C336.019 59.18 335.447 59.04 334.962 58.76C334.482 58.475 334.112 58.0825 333.852 57.5825C333.592 57.0775 333.462 56.5 333.462 55.85C333.462 55.25 333.584 54.71 333.829 54.23C334.074 53.745 334.429 53.3625 334.894 53.0825C335.364 52.8025 335.929 52.6625 336.589 52.6625C337.194 52.6625 337.719 52.79 338.164 53.045C338.614 53.295 338.962 53.65 339.207 54.11C339.457 54.57 339.582 55.12 339.582 55.76C339.582 55.8 339.579 55.8725 339.574 55.9775C339.569 56.0775 339.564 56.1475 339.559 56.1875H334.692ZM338.337 55.205C338.332 55 338.272 54.775 338.157 54.53C338.047 54.285 337.867 54.075 337.617 53.9C337.367 53.725 337.029 53.6375 336.604 53.6375C336.164 53.6375 335.809 53.7225 335.539 53.8925C335.274 54.0625 335.079 54.27 334.954 54.515C334.829 54.755 334.757 54.985 334.737 55.205H338.337ZM342.305 59H341.008V52.8425H342.305V53.9075H342.268C342.293 53.7775 342.385 53.615 342.545 53.42C342.705 53.225 342.925 53.05 343.205 52.895C343.485 52.74 343.82 52.6625 344.21 52.6625C344.495 52.6625 344.745 52.7025 344.96 52.7825C345.18 52.8575 345.335 52.9325 345.425 53.0075L344.893 54.0875C344.823 54.0175 344.7 53.9475 344.525 53.8775C344.35 53.8025 344.133 53.765 343.873 53.765C343.543 53.765 343.26 53.8675 343.025 54.0725C342.79 54.2775 342.61 54.525 342.485 54.815C342.365 55.1 342.305 55.365 342.305 55.61V59ZM348.474 52.6625C348.794 52.6625 349.092 52.695 349.367 52.76C349.647 52.825 349.887 52.9025 350.087 52.9925C350.292 53.0825 350.437 53.1625 350.522 53.2325L350.004 54.0575C349.904 53.9675 349.724 53.8675 349.464 53.7575C349.204 53.6425 348.914 53.585 348.594 53.585C348.244 53.585 347.947 53.655 347.702 53.795C347.457 53.93 347.334 54.1275 347.334 54.3875C347.334 54.6475 347.459 54.855 347.709 55.01C347.964 55.16 348.304 55.285 348.729 55.385C349.069 55.465 349.387 55.5725 349.682 55.7075C349.982 55.8425 350.224 56.03 350.409 56.27C350.594 56.505 350.687 56.82 350.687 57.215C350.687 57.575 350.612 57.8825 350.462 58.1375C350.312 58.3875 350.109 58.59 349.854 58.745C349.599 58.895 349.314 59.005 348.999 59.075C348.684 59.145 348.364 59.18 348.039 59.18C347.659 59.18 347.317 59.14 347.012 59.06C346.707 58.985 346.449 58.895 346.239 58.79C346.034 58.68 345.884 58.585 345.789 58.505L346.307 57.575C346.437 57.7 346.649 57.8325 346.944 57.9725C347.244 58.1125 347.584 58.1825 347.964 58.1825C348.384 58.1825 348.724 58.095 348.984 57.92C349.244 57.74 349.374 57.5075 349.374 57.2225C349.374 57.0075 349.312 56.835 349.187 56.705C349.062 56.575 348.894 56.47 348.684 56.39C348.474 56.31 348.244 56.24 347.994 56.18C347.754 56.125 347.519 56.0525 347.289 55.9625C347.064 55.8725 346.857 55.7575 346.667 55.6175C346.482 55.4725 346.334 55.2975 346.224 55.0925C346.114 54.8825 346.059 54.6375 346.059 54.3575C346.059 54.0025 346.172 53.7 346.397 53.45C346.622 53.195 346.917 53 347.282 52.865C347.647 52.73 348.044 52.6625 348.474 52.6625Z" fill="#5E5E5E"/>
<path d="M290.24 37.28C293.44 37.28 295.56 35.4 295.56 32.62V32.38C295.56 29.58 293.42 27.96 291 27.96C289.2 27.96 288.38 28.54 287.92 29.08H287.56V27.64C287.56 26 288.56 25 290.36 25C292.16 25 292.88 25.96 292.88 27.08H295.48C295.48 24.36 293.48 22.72 290.36 22.72C287.24 22.72 285 24.4 285 27.8V32.58C285 35.34 287.04 37.28 290.24 37.28ZM290.28 35C288.6 35 287.56 34.06 287.56 32.58V32.42C287.56 30.94 288.62 30 290.28 30C291.94 30 293 30.94 293 32.42V32.58C293 34.06 291.96 35 290.28 35ZM302.843 37.28C306.163 37.28 308.323 35.48 308.323 31.76V28.24C308.323 24.64 306.163 22.72 302.843 22.72C299.523 22.72 297.363 24.64 297.363 28.24V31.76C297.363 35.48 299.523 37.28 302.843 37.28ZM302.843 35C300.903 35 299.923 33.94 299.923 31.84V28.12C299.923 26.14 301.003 25 302.843 25C304.623 25 305.763 26.06 305.763 28.12V31.84C305.763 33.86 304.843 35 302.843 35ZM312.292 37.26L323.052 23.96L321.532 22.74L310.772 36.04L312.292 37.26ZM313.092 29C315.112 29 316.332 27.86 316.332 25.98V25.84C316.332 23.96 315.052 22.8 313.092 22.8C311.072 22.8 309.852 23.96 309.852 25.84V25.98C309.852 27.86 311.072 29 313.092 29ZM313.092 27.36C312.312 27.36 311.852 26.84 311.852 26.06V25.74C311.852 24.96 312.312 24.44 313.092 24.44C313.872 24.44 314.332 24.96 314.332 25.74V26.06C314.332 26.84 313.872 27.36 313.092 27.36ZM320.732 37.2C322.752 37.2 323.972 36.06 323.972 34.18V34.04C323.972 32.16 322.692 31 320.732 31C318.712 31 317.492 32.16 317.492 34.04V34.18C317.492 36.06 318.712 37.2 320.732 37.2ZM320.732 35.56C319.952 35.56 319.492 35.04 319.492 34.26V33.94C319.492 33.16 319.952 32.64 320.732 32.64C321.512 32.64 321.972 33.16 321.972 33.94V34.26C321.972 35.04 321.512 35.56 320.732 35.56Z" fill="#09032F"/>
<path d="M56 146C56 154.284 49.2843 161 41 161M56 146C56 137.716 49.2843 131 41 131M56 146H26M41 161C32.7157 161 26 154.284 26 146M41 161C43.7614 161 46 154.284 46 146C46 137.716 43.7614 131 41 131M41 161C38.2386 161 36 154.284 36 146C36 137.716 38.2386 131 41 131M26 146C26 137.716 32.7157 131 41 131" stroke="#5E5E5E" stroke-width="2" stroke-linecap="round" stroke-linejoin="round"/>
<path d="M76.4 141H78.96V138.16H81.28V135.88H78.96V127H74.36L69.52 135.2V138.16H76.4V141ZM71.96 135.88V135.56L76.04 128.64H76.4V135.88H71.96ZM83.495 141H86.055V140.6C86.055 139.9 86.175 139.52 86.515 138.9L91.475 130.04V127H81.395V129.28H88.835V129.6L84.135 137.9C83.595 138.84 83.495 139.44 83.495 140.48V141Z" fill="#09032F"/>
<path d="M74.6325 161.912C75.2475 161.912 75.78 161.827 76.23 161.657C76.685 161.487 77.0075 161.322 77.1975 161.162L77.76 162.265C77.535 162.465 77.1425 162.667 76.5825 162.872C76.0275 163.077 75.36 163.18 74.58 163.18C73.85 163.18 73.1725 163.05 72.5475 162.79C71.9225 162.53 71.375 162.167 70.905 161.702C70.44 161.237 70.075 160.695 69.81 160.075C69.55 159.455 69.42 158.785 69.42 158.065C69.42 157.345 69.55 156.672 69.81 156.047C70.07 155.422 70.4325 154.877 70.8975 154.412C71.3675 153.942 71.915 153.577 72.54 153.317C73.17 153.052 73.85 152.92 74.58 152.92C75.36 152.92 76.0275 153.022 76.5825 153.227C77.1425 153.432 77.535 153.635 77.76 153.835L77.1975 154.937C77.0075 154.772 76.685 154.607 76.23 154.442C75.78 154.272 75.2475 154.187 74.6325 154.187C74.0725 154.187 73.56 154.282 73.095 154.472C72.63 154.662 72.225 154.932 71.88 155.282C71.54 155.627 71.275 156.035 71.085 156.505C70.9 156.975 70.8075 157.487 70.8075 158.042C70.8075 158.602 70.9 159.12 71.085 159.595C71.275 160.065 71.54 160.475 71.88 160.825C72.225 161.17 72.63 161.437 73.095 161.627C73.56 161.817 74.0725 161.912 74.6325 161.912ZM82.115 163.18C81.48 163.18 80.915 163.038 80.42 162.753C79.93 162.467 79.545 162.082 79.265 161.597C78.985 161.107 78.845 160.555 78.845 159.94C78.845 159.325 78.985 158.77 79.265 158.275C79.545 157.78 79.93 157.387 80.42 157.097C80.915 156.807 81.48 156.662 82.115 156.662C82.745 156.662 83.3025 156.807 83.7875 157.097C84.2775 157.387 84.66 157.78 84.935 158.275C85.21 158.77 85.3475 159.325 85.3475 159.94C85.3475 160.555 85.21 161.107 84.935 161.597C84.66 162.082 84.2775 162.467 83.7875 162.753C83.3025 163.038 82.745 163.18 82.115 163.18ZM82.115 162.062C82.515 162.062 82.8625 161.97 83.1575 161.785C83.4575 161.6 83.69 161.347 83.855 161.027C84.02 160.702 84.1025 160.337 84.1025 159.932C84.1025 159.527 84.02 159.162 83.855 158.837C83.69 158.512 83.4575 158.255 83.1575 158.065C82.8625 157.875 82.515 157.78 82.115 157.78C81.71 157.78 81.3575 157.875 81.0575 158.065C80.7575 158.255 80.5225 158.512 80.3525 158.837C80.1875 159.162 80.105 159.527 80.105 159.932C80.105 160.337 80.1875 160.702 80.3525 161.027C80.5225 161.347 80.7575 161.6 81.0575 161.785C81.3575 161.97 81.71 162.062 82.115 162.062ZM88.0168 159.947C88.0168 160.592 88.1543 161.107 88.4293 161.492C88.7093 161.872 89.1368 162.062 89.7118 162.062C90.2918 162.062 90.7193 161.872 90.9943 161.492C91.2693 161.107 91.4068 160.592 91.4068 159.947V156.842H92.6968V160.127C92.6968 160.727 92.5793 161.257 92.3443 161.717C92.1143 162.177 91.7768 162.537 91.3318 162.797C90.8918 163.052 90.3518 163.18 89.7118 163.18C89.0768 163.18 88.5368 163.052 88.0918 162.797C87.6518 162.537 87.3143 162.177 87.0793 161.717C86.8493 161.257 86.7343 160.727 86.7343 160.127V156.842H88.0168V159.947ZM97.9126 156.662C98.3176 156.662 98.7101 156.747 99.0901 156.917C99.4751 157.087 99.7901 157.357 100.035 157.727C100.285 158.092 100.41 158.57 100.41 159.16V163H99.0901V159.415C99.0901 158.805 98.9476 158.362 98.6626 158.087C98.3776 157.807 98.0101 157.667 97.5601 157.667C97.2651 157.667 96.9801 157.752 96.7051 157.922C96.4351 158.087 96.2126 158.317 96.0376 158.612C95.8626 158.902 95.7751 159.232 95.7751 159.602V163H94.4701V156.842H95.7751V157.937C95.8201 157.767 95.9426 157.582 96.1426 157.382C96.3426 157.182 96.5976 157.012 96.9076 156.872C97.2176 156.732 97.5526 156.662 97.9126 156.662ZM101.592 156.842H102.799V154.315H104.097V156.842H105.679V157.96H104.097V161.005C104.097 161.365 104.159 161.63 104.284 161.8C104.414 161.97 104.587 162.055 104.802 162.055C104.992 162.055 105.139 162.02 105.244 161.95C105.349 161.88 105.412 161.832 105.432 161.807L105.949 162.767C105.919 162.792 105.839 162.84 105.709 162.91C105.579 162.98 105.412 163.043 105.207 163.098C105.002 163.153 104.762 163.18 104.487 163.18C104.007 163.18 103.604 163.035 103.279 162.745C102.959 162.45 102.799 161.985 102.799 161.35V157.96H101.592V156.842ZM108.365 163H107.067V156.842H108.365V157.907H108.327C108.352 157.777 108.445 157.615 108.605 157.42C108.765 157.225 108.985 157.05 109.265 156.895C109.545 156.74 109.88 156.662 110.27 156.662C110.555 156.662 110.805 156.702 111.02 156.782C111.24 156.857 111.395 156.932 111.485 157.007L110.952 158.087C110.882 158.017 110.76 157.947 110.585 157.877C110.41 157.802 110.192 157.765 109.932 157.765C109.602 157.765 109.32 157.867 109.085 158.072C108.85 158.277 108.67 158.525 108.545 158.815C108.425 159.1 108.365 159.365 108.365 159.61V163ZM112.469 163V156.842H113.774V163H112.469ZM113.137 154.735C112.902 154.735 112.699 154.652 112.529 154.487C112.364 154.317 112.282 154.115 112.282 153.88C112.282 153.645 112.364 153.442 112.529 153.272C112.699 153.102 112.902 153.017 113.137 153.017C113.292 153.017 113.434 153.057 113.564 153.137C113.699 153.217 113.807 153.322 113.887 153.452C113.967 153.577 114.007 153.72 114.007 153.88C114.007 154.115 113.922 154.317 113.752 154.487C113.582 154.652 113.377 154.735 113.137 154.735ZM116.586 160.187C116.591 160.557 116.671 160.895 116.826 161.2C116.981 161.505 117.211 161.747 117.516 161.927C117.826 162.107 118.206 162.197 118.656 162.197C119.036 162.197 119.359 162.142 119.624 162.032C119.894 161.917 120.114 161.782 120.284 161.627C120.454 161.467 120.576 161.325 120.651 161.2L121.289 161.987C121.124 162.227 120.921 162.437 120.681 162.617C120.446 162.797 120.159 162.935 119.819 163.03C119.479 163.13 119.064 163.18 118.574 163.18C117.914 163.18 117.341 163.04 116.856 162.76C116.376 162.475 116.006 162.082 115.746 161.582C115.486 161.077 115.356 160.5 115.356 159.85C115.356 159.25 115.479 158.71 115.724 158.23C115.969 157.745 116.324 157.362 116.789 157.082C117.259 156.802 117.824 156.662 118.484 156.662C119.089 156.662 119.614 156.79 120.059 157.045C120.509 157.295 120.856 157.65 121.101 158.11C121.351 158.57 121.476 159.12 121.476 159.76C121.476 159.8 121.474 159.872 121.469 159.977C121.464 160.077 121.459 160.147 121.454 160.187H116.586ZM120.231 159.205C120.226 159 120.166 158.775 120.051 158.53C119.941 158.285 119.761 158.075 119.511 157.9C119.261 157.725 118.924 157.637 118.499 157.637C118.059 157.637 117.704 157.722 117.434 157.892C117.169 158.062 116.974 158.27 116.849 158.515C116.724 158.755 116.651 158.985 116.631 159.205H120.231ZM125.227 156.662C125.547 156.662 125.845 156.695 126.12 156.76C126.4 156.825 126.64 156.902 126.84 156.992C127.045 157.082 127.19 157.162 127.275 157.232L126.757 158.057C126.657 157.967 126.477 157.867 126.217 157.757C125.957 157.642 125.667 157.585 125.347 157.585C124.997 157.585 124.7 157.655 124.455 157.795C124.21 157.93 124.087 158.127 124.087 158.387C124.087 158.647 124.212 158.855 124.462 159.01C124.717 159.16 125.057 159.285 125.482 159.385C125.822 159.465 126.14 159.572 126.435 159.707C126.735 159.842 126.977 160.03 127.162 160.27C127.347 160.505 127.44 160.82 127.44 161.215C127.44 161.575 127.365 161.882 127.215 162.137C127.065 162.387 126.862 162.59 126.607 162.745C126.352 162.895 126.067 163.005 125.752 163.075C125.437 163.145 125.117 163.18 124.792 163.18C124.412 163.18 124.07 163.14 123.765 163.06C123.46 162.985 123.202 162.895 122.992 162.79C122.787 162.68 122.637 162.585 122.542 162.505L123.06 161.575C123.19 161.7 123.402 161.832 123.697 161.972C123.997 162.112 124.337 162.182 124.717 162.182C125.137 162.182 125.477 162.095 125.737 161.92C125.997 161.74 126.127 161.507 126.127 161.222C126.127 161.007 126.065 160.835 125.94 160.705C125.815 160.575 125.647 160.47 125.437 160.39C125.227 160.31 124.997 160.24 124.747 160.18C124.507 160.125 124.272 160.052 124.042 159.962C123.817 159.872 123.61 159.757 123.42 159.617C123.235 159.472 123.087 159.297 122.977 159.092C122.867 158.882 122.812 158.637 122.812 158.357C122.812 158.002 122.925 157.7 123.15 157.45C123.375 157.195 123.67 157 124.035 156.865C124.4 156.73 124.797 156.662 125.227 156.662Z" fill="#5E5E5E"/>
<path d="M250 154.333V137.667M250 154.333C250 156.174 248.508 157.667 246.667 157.667H243.333C241.492 157.667 240 156.174 240 154.333V137.667C240 135.826 241.492 134.333 243.333 134.333H246.667C248.508 134.333 250 135.826 250 137.667M250 154.333C250 156.174 251.492 157.667 253.333 157.667H256.667C258.508 157.667 260 156.174 260 154.333M250 137.667C250 135.826 251.492 134.333 253.333 134.333H256.667C258.508 134.333 260 135.826 260 137.667M260 154.333V137.667M260 154.333C260 156.174 261.492 157.667 263.333 157.667H266.667C268.508 157.667 270 156.174 270 154.333V137.667C270 135.826 268.508 134.333 266.667 134.333H263.333C261.492 134.333 260 135.826 260 137.667" stroke="#5E5E5E" stroke-width="2" stroke-linecap="round" stroke-linejoin="round"/>
<path d="M290.16 141H292.72V127H288.1L285.24 133.32H287.92L289.8 128.88H290.16V141ZM300.523 141.28C303.843 141.28 306.003 139.48 306.003 135.76V132.24C306.003 128.64 303.843 126.72 300.523 126.72C297.203 126.72 295.043 128.64 295.043 132.24V135.76C295.043 139.48 297.203 141.28 300.523 141.28ZM300.523 139C298.583 139 297.603 137.94 297.603 135.84V132.12C297.603 130.14 298.683 129 300.523 129C302.303 129 303.443 130.06 303.443 132.12V135.84C303.443 137.86 302.523 139 300.523 139ZM308.357 143.94H309.337C310.817 143.94 311.577 143.18 311.577 141.7V139.4C311.577 138.26 310.797 137.52 309.717 137.52C308.637 137.52 307.857 138.26 307.857 139.32C307.857 140.3 308.637 141.02 309.717 141.02H310.057V141.66C310.057 142.3 309.777 142.58 309.137 142.58H308.357V143.94ZM318.902 141.28C322.222 141.28 324.382 139.48 324.382 135.76V132.24C324.382 128.64 322.222 126.72 318.902 126.72C315.582 126.72 313.422 128.64 313.422 132.24V135.76C313.422 139.48 315.582 141.28 318.902 141.28ZM318.902 139C316.962 139 315.982 137.94 315.982 135.84V132.12C315.982 130.14 317.062 129 318.902 129C320.682 129 321.822 130.06 321.822 132.12V135.84C321.822 137.86 320.902 139 318.902 139ZM331.871 141.28C335.191 141.28 337.351 139.48 337.351 135.76V132.24C337.351 128.64 335.191 126.72 331.871 126.72C328.551 126.72 326.391 128.64 326.391 132.24V135.76C326.391 139.48 328.551 141.28 331.871 141.28ZM331.871 139C329.931 139 328.951 137.94 328.951 135.84V132.12C328.951 130.14 330.031 129 331.871 129C333.651 129 334.791 130.06 334.791 132.12V135.84C334.791 137.86 333.871 139 331.871 139ZM344.839 141.28C348.159 141.28 350.319 139.48 350.319 135.76V132.24C350.319 128.64 348.159 126.72 344.839 126.72C341.519 126.72 339.359 128.64 339.359 132.24V135.76C339.359 139.48 341.519 141.28 344.839 141.28ZM344.839 139C342.899 139 341.919 137.94 341.919 135.84V132.12C341.919 130.14 342.999 129 344.839 129C346.619 129 347.759 130.06 347.759 132.12V135.84C347.759 137.86 346.839 139 344.839 139ZM356.348 138.18H358.708V135.14H361.708V132.86H358.708V129.82H356.348V132.86H353.348V135.14H356.348V138.18Z" fill="#09032F"/>
<path d="M285.825 153.1H289.283C289.818 153.1 290.303 153.212 290.738 153.437C291.178 153.657 291.528 153.982 291.788 154.412C292.053 154.837 292.185 155.357 292.185 155.972C292.185 156.582 292.063 157.087 291.818 157.487C291.578 157.887 291.288 158.19 290.948 158.395C290.608 158.595 290.293 158.705 290.003 158.725L292.455 163H291L288.705 158.815H287.108V163H285.825V153.1ZM287.108 157.862H288.833C289.423 157.862 289.91 157.715 290.295 157.42C290.68 157.125 290.873 156.652 290.873 156.002C290.873 155.352 290.68 154.885 290.295 154.6C289.915 154.315 289.43 154.172 288.84 154.172H287.108V157.862ZM294.925 160.187C294.93 160.557 295.01 160.895 295.165 161.2C295.32 161.505 295.55 161.747 295.855 161.927C296.165 162.107 296.545 162.197 296.995 162.197C297.375 162.197 297.698 162.142 297.963 162.032C298.233 161.917 298.453 161.782 298.623 161.627C298.793 161.467 298.915 161.325 298.99 161.2L299.628 161.987C299.463 162.227 299.26 162.437 299.02 162.617C298.785 162.797 298.498 162.935 298.158 163.03C297.818 163.13 297.403 163.18 296.913 163.18C296.253 163.18 295.68 163.04 295.195 162.76C294.715 162.475 294.345 162.082 294.085 161.582C293.825 161.077 293.695 160.5 293.695 159.85C293.695 159.25 293.818 158.71 294.063 158.23C294.308 157.745 294.663 157.362 295.128 157.082C295.598 156.802 296.163 156.662 296.823 156.662C297.428 156.662 297.953 156.79 298.398 157.045C298.848 157.295 299.195 157.65 299.44 158.11C299.69 158.57 299.815 159.12 299.815 159.76C299.815 159.8 299.813 159.872 299.808 159.977C299.803 160.077 299.798 160.147 299.793 160.187H294.925ZM298.57 159.205C298.565 159 298.505 158.775 298.39 158.53C298.28 158.285 298.1 158.075 297.85 157.9C297.6 157.725 297.263 157.637 296.838 157.637C296.398 157.637 296.043 157.722 295.773 157.892C295.508 158.062 295.313 158.27 295.188 158.515C295.063 158.755 294.99 158.985 294.97 159.205H298.57ZM306.206 163V161.8C306.166 161.925 306.049 162.097 305.854 162.317C305.664 162.537 305.401 162.737 305.066 162.917C304.736 163.092 304.346 163.18 303.896 163.18C303.326 163.18 302.809 163.045 302.344 162.775C301.884 162.505 301.516 162.127 301.241 161.642C300.971 161.152 300.836 160.58 300.836 159.925C300.836 159.27 300.971 158.7 301.241 158.215C301.516 157.725 301.884 157.345 302.344 157.075C302.809 156.8 303.326 156.662 303.896 156.662C304.341 156.662 304.726 156.742 305.051 156.902C305.381 157.062 305.644 157.247 305.839 157.457C306.039 157.667 306.156 157.847 306.191 157.997V156.842H307.481V163H306.206ZM302.126 159.925C302.126 160.37 302.224 160.755 302.419 161.08C302.614 161.405 302.866 161.657 303.176 161.837C303.491 162.012 303.826 162.1 304.181 162.1C304.561 162.1 304.901 162.01 305.201 161.83C305.501 161.65 305.739 161.397 305.914 161.073C306.089 160.742 306.176 160.36 306.176 159.925C306.176 159.49 306.089 159.11 305.914 158.785C305.739 158.455 305.501 158.2 305.201 158.02C304.901 157.835 304.561 157.742 304.181 157.742C303.826 157.742 303.491 157.832 303.176 158.012C302.866 158.192 302.614 158.445 302.419 158.77C302.224 159.095 302.126 159.48 302.126 159.925ZM312.128 162.1C312.518 162.1 312.833 162.037 313.073 161.912C313.313 161.787 313.463 161.697 313.523 161.642L314.16 162.58C314.11 162.625 313.99 162.697 313.8 162.797C313.615 162.892 313.375 162.98 313.08 163.06C312.79 163.14 312.46 163.18 312.09 163.18C311.525 163.18 311 163.055 310.515 162.805C310.03 162.55 309.638 162.18 309.338 161.695C309.043 161.21 308.895 160.617 308.895 159.917C308.895 159.212 309.043 158.62 309.338 158.14C309.638 157.655 310.03 157.287 310.515 157.037C311 156.787 311.525 156.662 312.09 156.662C312.455 156.662 312.78 156.707 313.065 156.797C313.35 156.882 313.585 156.977 313.77 157.082C313.955 157.187 314.078 157.267 314.138 157.322L313.493 158.26C313.453 158.22 313.375 158.16 313.26 158.08C313.15 157.995 313 157.917 312.81 157.847C312.62 157.777 312.393 157.742 312.128 157.742C311.808 157.742 311.495 157.83 311.19 158.005C310.89 158.175 310.643 158.422 310.448 158.747C310.253 159.072 310.155 159.462 310.155 159.917C310.155 160.372 310.253 160.765 310.448 161.095C310.643 161.42 310.89 161.67 311.19 161.845C311.495 162.015 311.808 162.1 312.128 162.1ZM318.938 156.662C319.343 156.662 319.736 156.747 320.116 156.917C320.501 157.087 320.816 157.357 321.061 157.727C321.311 158.092 321.436 158.57 321.436 159.16V163H320.116V159.415C320.116 158.805 319.976 158.362 319.696 158.087C319.421 157.807 319.058 157.667 318.608 157.667C318.308 157.667 318.021 157.752 317.746 157.922C317.471 158.087 317.243 158.317 317.063 158.612C316.888 158.902 316.801 159.232 316.801 159.602V163H315.481V152.68H316.801V157.937C316.846 157.767 316.966 157.582 317.161 157.382C317.361 157.182 317.616 157.012 317.926 156.872C318.236 156.732 318.573 156.662 318.938 156.662Z" fill="#5E5E5E"/>
<line opacity="0.12" y1="98.5" x2="401" y2="98.5" stroke="#5E5E5E"/>
<line opacity="0.12" x1="195.5" y1="-2.18557e-08" x2="195.5" y2="214" stroke="#5E5E5E"/>
<defs>
<clipPath id="clip0_57_4659">
<rect width="40" height="40" fill="white" transform="translate(235 22)"/>
</clipPath>
</defs>
</svg>
