<svg width="136" height="90" viewBox="0 0 136 90" fill="none" xmlns="http://www.w3.org/2000/svg">
<g clip-path="url(#clip0_57_4733)">
<rect x="0.0819092" y="0.836327" width="135.105" height="88.8363" rx="10.1792" fill="white"/>
<g clip-path="url(#clip1_57_4733)">
<path fill-rule="evenodd" clip-rule="evenodd" d="M22.0377 49.957L20.4055 48.3039C19.7855 48.8824 19.1588 49.3406 18.5249 49.6782C17.8915 50.0155 17.1338 50.1841 16.2523 50.1841C15.5635 50.1841 14.9265 50.0501 14.3411 49.7813C13.7557 49.5127 13.2494 49.1444 12.8223 48.6758C12.3953 48.2075 12.0649 47.6601 11.8305 47.0334C11.5963 46.4068 11.4795 45.7349 11.4795 45.0191C11.4795 44.3028 11.5963 43.6346 11.8305 43.0146C12.0649 42.395 12.3953 41.8544 12.8223 41.3928C13.2494 40.9315 13.7557 40.5666 14.3411 40.2979C14.9265 40.0294 15.5635 39.8951 16.2523 39.8951C17.0786 39.8951 17.8157 40.0604 18.463 40.391C19.1106 40.7213 19.7236 41.1553 20.3018 41.6925L21.9342 39.8126C21.59 39.482 21.225 39.179 20.8392 38.9033C20.4537 38.6279 20.0336 38.3901 19.5789 38.1905C19.1242 37.9906 18.625 37.8359 18.0808 37.7258C17.5366 37.6154 16.9339 37.5602 16.2729 37.5602C15.171 37.5602 14.1655 37.7568 13.2564 38.1493C12.347 38.5417 11.562 39.0789 10.9008 39.7607C10.2395 40.4426 9.7266 41.2378 9.36141 42.1471C8.99622 43.0562 8.8139 44.0273 8.8139 45.0604C8.8139 46.1071 8.99984 47.085 9.37172 47.9943C9.7436 48.903 10.2568 49.6916 10.9111 50.3597C11.5654 51.0276 12.3401 51.5545 13.2355 51.9403C14.1309 52.3261 15.1091 52.5187 16.1695 52.5187C16.8447 52.5187 17.4611 52.4602 18.0189 52.3431C18.5767 52.226 19.0899 52.054 19.5582 51.8269C20.0266 51.5994 20.464 51.3307 20.8704 51.0209C21.2766 50.711 21.6658 50.3562 22.0377 49.957Z" fill="#201755"/>
<path fill-rule="evenodd" clip-rule="evenodd" d="M54.8236 41.6555C54.8236 41.1743 55.029 40.7655 55.4401 40.429C55.851 40.0919 56.4266 39.9236 57.1664 39.9236C57.824 39.9236 58.4747 40.051 59.1185 40.3052C59.7626 40.5594 60.4133 40.9271 61.0706 41.4079L62.427 39.4909C61.6875 38.8999 60.8963 38.4499 60.0536 38.1409C59.2108 37.8317 58.2623 37.677 57.2073 37.677C56.4951 37.677 55.8375 37.7766 55.238 37.976C54.6353 38.1751 54.1218 38.4602 53.6935 38.8312C53.2654 39.2025 52.9296 39.6455 52.6832 40.1609C52.44 40.6762 52.3166 41.25 52.3166 41.8821C52.3166 42.5554 52.4228 43.1259 52.6352 43.5931C52.8476 44.0603 53.1592 44.4588 53.5634 44.7887C53.9674 45.1185 54.4709 45.3933 55.0667 45.6133C55.6661 45.8333 56.3479 46.0322 57.1184 46.211C57.7899 46.3759 58.3341 46.5339 58.7556 46.6849C59.1734 46.8362 59.5022 46.9978 59.7454 47.1694C59.9849 47.3413 60.1496 47.53 60.2386 47.7362C60.3276 47.9425 60.3719 48.1758 60.3719 48.437C60.3719 49.0008 60.1427 49.4474 59.6838 49.7769C59.2247 50.1071 58.6047 50.2717 57.824 50.2717C56.9199 50.2717 56.1114 50.1101 55.3992 49.7873C54.6866 49.4644 53.9813 49.0008 53.2823 48.3959L51.7619 50.21C52.6249 50.9932 53.5634 51.5738 54.5771 51.9518C55.591 52.3298 56.6526 52.5187 57.7622 52.5187C58.5158 52.5187 59.2077 52.4224 59.838 52.2302C60.4645 52.0375 61.0057 51.7558 61.451 51.3847C61.8996 51.0137 62.249 50.5604 62.5023 50.0245C62.7524 49.4886 62.8792 48.877 62.8792 48.1898C62.8792 47.5852 62.7799 47.0595 62.5811 46.6128C62.3823 46.1662 62.0879 45.7749 61.7044 45.4379C61.3207 45.1013 60.8344 44.8159 60.2522 44.5824C59.6702 44.349 58.9987 44.136 58.2451 43.9435C57.5567 43.7786 56.9917 43.6204 56.5431 43.4693C56.0978 43.3183 55.7485 43.1534 55.4915 42.9746C55.238 42.796 55.0637 42.6035 54.9674 42.3975C54.8718 42.1911 54.8236 41.9438 54.8236 41.6555Z" fill="#201755"/>
<path fill-rule="evenodd" clip-rule="evenodd" d="M82.954 41.8598V52.1681H85.4647V37.794H82.7685L78.3847 44.5909L74.0009 37.794H71.3049V52.1681H73.8157V41.9008L78.3228 48.6362H78.4053L82.954 41.8598Z" fill="#201755"/>
<path fill-rule="evenodd" clip-rule="evenodd" d="M106.561 45.0604C106.561 45.7628 106.44 46.4274 106.2 47.0543C105.959 47.681 105.626 48.2248 105.199 48.6861C104.773 49.1475 104.261 49.5127 103.663 49.7813C103.065 50.0501 102.409 50.1842 101.694 50.1842C100.978 50.1842 100.318 50.0464 99.7136 49.7711C99.1089 49.4953 98.5897 49.1235 98.1568 48.6555C97.7238 48.1869 97.3869 47.6395 97.1459 47.0128C96.9056 46.3862 96.7851 45.7213 96.7851 45.0191C96.7851 44.3164 96.9056 43.6518 97.1459 43.0252C97.3869 42.3983 97.7201 41.8544 98.1463 41.3929C98.5726 40.9315 99.0843 40.5666 99.6824 40.2979C100.28 40.0295 100.937 39.8951 101.652 39.8951C102.367 39.8951 103.027 40.0328 103.632 40.3085C104.237 40.5839 104.756 40.9557 105.189 41.424C105.622 41.8921 105.959 42.4398 106.2 43.0665C106.44 43.6931 106.561 44.3579 106.561 45.0604ZM109.221 45.0191C109.221 43.9997 109.035 43.0356 108.664 42.1262C108.293 41.2175 107.778 40.4253 107.118 39.7504C106.457 39.0753 105.667 38.5417 104.746 38.1493C103.824 37.7568 102.807 37.5602 101.694 37.5602C100.579 37.5602 99.5626 37.7601 98.641 38.1596C97.7201 38.559 96.9227 39.0995 96.2488 39.7814C95.5749 40.4632 95.0527 41.2587 94.6816 42.1678C94.3104 43.0768 94.1244 44.041 94.1244 45.0604C94.1244 46.0795 94.3104 47.0434 94.6816 47.9528C95.0527 48.862 95.5682 49.654 96.228 50.3288C96.8878 51.0037 97.6785 51.5375 98.6001 51.93C99.5209 52.3225 100.539 52.5187 101.652 52.5187C102.766 52.5187 103.783 52.3189 104.704 51.9196C105.626 51.5202 106.423 50.9797 107.097 50.2976C107.771 49.6161 108.293 48.8205 108.664 47.9115C109.035 47.0024 109.221 46.0383 109.221 45.0191Z" fill="#201755"/>
<path fill-rule="evenodd" clip-rule="evenodd" d="M119.772 41.6555C119.772 41.1743 119.977 40.7655 120.389 40.429C120.8 40.0919 121.375 39.9236 122.115 39.9236C122.773 39.9236 123.423 40.051 124.067 40.3052C124.711 40.5594 125.362 40.9271 126.019 41.4079L127.375 39.4909C126.636 38.8999 125.845 38.4499 125.002 38.1409C124.16 37.8317 123.211 37.677 122.156 37.677C121.443 37.677 120.786 37.7766 120.186 37.976C119.584 38.1751 119.07 38.4602 118.642 38.8312C118.214 39.2025 117.878 39.6455 117.631 40.1609C117.389 40.6762 117.265 41.25 117.265 41.8821C117.265 42.5554 117.372 43.1259 117.584 43.5931C117.796 44.0603 118.108 44.4588 118.512 44.7887C118.916 45.1185 119.419 45.3933 120.015 45.6133C120.615 45.8333 121.296 46.0322 122.067 46.211C122.738 46.3759 123.283 46.5339 123.704 46.6849C124.122 46.8362 124.451 46.9978 124.694 47.1694C124.933 47.3413 125.098 47.53 125.187 47.7362C125.276 47.9425 125.321 48.1758 125.321 48.437C125.321 49.0008 125.091 49.4474 124.632 49.7769C124.173 50.1071 123.554 50.2717 122.773 50.2717C121.868 50.2717 121.059 50.1101 120.348 49.7873C119.635 49.4644 118.93 49.0008 118.231 48.3959L116.71 50.21C117.573 50.9932 118.512 51.5738 119.526 51.9518C120.54 52.3298 121.601 52.5187 122.711 52.5187C123.464 52.5187 124.156 52.4224 124.786 52.2302C125.413 52.0375 125.954 51.7558 126.399 51.3847C126.848 51.0137 127.198 50.5604 127.451 50.0245C127.7 49.4886 127.828 48.877 127.828 48.1898C127.828 47.5852 127.728 47.0595 127.529 46.6128C127.331 46.1662 127.036 45.7749 126.652 45.4379C126.269 45.1013 125.783 44.8159 125.2 44.5824C124.619 44.349 123.947 44.136 123.194 43.9435C122.505 43.7786 121.94 43.6204 121.492 43.4693C121.046 43.3183 120.697 43.1534 120.44 42.9746C120.186 42.796 120.012 42.6035 119.916 42.3975C119.82 42.1911 119.772 41.9438 119.772 41.6555Z" fill="#201755"/>
<path fill-rule="evenodd" clip-rule="evenodd" d="M39.2616 40.6715L32.3818 47.5421C32.2931 47.3702 32.213 47.1911 32.1413 47.0053C31.901 46.381 31.7809 45.7187 31.7809 45.0192C31.7809 44.3191 31.901 43.657 32.1413 43.0328C32.3818 42.4083 32.715 41.8665 33.141 41.4066C33.567 40.947 34.079 40.5835 34.6766 40.3158C35.2745 40.0484 35.9304 39.9145 36.6448 39.9145C37.3595 39.9145 38.0191 40.0517 38.6234 40.3263C38.8481 40.4283 39.0608 40.5432 39.2616 40.6715ZM38.6545 49.7634C38.0567 50.0311 37.4006 50.1647 36.6863 50.1647C35.9716 50.1647 35.312 50.0275 34.7074 49.7531C34.483 49.6509 34.2703 49.536 34.0698 49.4074L40.9493 42.5374C41.038 42.709 41.1181 42.8878 41.1898 43.0739C41.4301 43.6982 41.5503 44.3605 41.5503 45.0603C41.5503 45.7601 41.4301 46.4222 41.1898 47.0467C40.9493 47.6709 40.6162 48.2127 40.1901 48.6723C39.7641 49.132 39.2524 49.4957 38.6545 49.7634ZM39.6954 51.8937C40.6162 51.4957 41.4131 50.9573 42.0864 50.2777C42.7596 49.5987 43.2815 48.8062 43.6526 47.9006C44.0237 46.9951 44.2093 46.0345 44.2093 45.0192C44.2093 44.0037 44.0237 43.0431 43.6526 42.1372C43.4325 41.6002 43.1617 41.1042 42.8402 40.649L47.3149 36.1806L45.5369 34.4049L41.0486 38.887C40.6456 38.6127 40.2082 38.3755 39.7366 38.1753C38.8159 37.7843 37.7992 37.5885 36.6863 37.5885C35.5731 37.5885 34.5564 37.7876 33.6357 38.1856C32.715 38.5835 31.918 39.122 31.2447 39.8012C30.5715 40.4805 30.0492 41.273 29.6783 42.1786C29.3073 43.0842 29.1218 44.0447 29.1218 45.0603C29.1218 46.0755 29.3073 47.0358 29.6783 47.9418C29.8985 48.4791 30.1694 48.975 30.4908 49.4305L26.0164 53.8984L27.7945 55.674L32.2825 51.1922C32.6855 51.4666 33.1229 51.7037 33.5945 51.9039C34.5153 52.295 35.532 52.4905 36.6448 52.4905C37.758 52.4905 38.7746 52.2913 39.6954 51.8937Z" fill="#201755"/>
</g>
</g>
<defs>
<clipPath id="clip0_57_4733">
<rect x="0.0819092" y="0.836327" width="135.105" height="88.8363" rx="4" fill="white"/>
</clipPath>
<clipPath id="clip1_57_4733">
<rect width="119.014" height="22.3151" fill="white" transform="translate(8.8139 33.8238)"/>
</clipPath>
</defs>
</svg>
