<svg width="16" height="16" viewBox="0 0 16 16" fill="none" xmlns="http://www.w3.org/2000/svg">
<g clip-path="url(#clip0_57_3549)">
<path d="M12.9109 1.2327H12.3141V0.628811C12.3141 0.283777 12.0344 0.00408936 11.6894 0.00408936C11.3444 0.00408936 11.0647 0.283777 11.0647 0.628811V1.2327H4.9353V0.628811C4.9353 0.283777 4.65561 0.00408936 4.31058 0.00408936C3.96555 0.00408936 3.68586 0.283777 3.68586 0.628811V1.2327H3.08909C1.38576 1.2327 0 2.61846 0 4.32176V12.9079C0 14.6112 1.38576 15.997 3.08909 15.997H12.9109C14.6142 15.997 16 14.6112 16 12.9079V4.32176C16 2.61846 14.6142 1.2327 12.9109 1.2327ZM3.08909 2.48214H3.68586V3.70035C3.68586 4.04538 3.96555 4.32507 4.31058 4.32507C4.65561 4.32507 4.9353 4.04538 4.9353 3.70035V2.48214H11.0647V3.70035C11.0647 4.04538 11.3444 4.32507 11.6894 4.32507C12.0345 4.32507 12.3141 4.04538 12.3141 3.70035V2.48214H12.9109C13.9253 2.48214 14.7506 3.3074 14.7506 4.32176V4.91856H1.24944V4.32176C1.24944 3.3074 2.0747 2.48214 3.08909 2.48214ZM12.9109 14.7475H3.08909C2.0747 14.7475 1.24944 13.9223 1.24944 12.9079V6.168H14.7506V12.9079C14.7506 13.9223 13.9253 14.7475 12.9109 14.7475ZM5.54962 8.62525C5.54962 8.97028 5.26993 9.24997 4.9249 9.24997H3.69629C3.35126 9.24997 3.07157 8.97028 3.07157 8.62525C3.07157 8.28021 3.35126 8.00053 3.69629 8.00053H4.9249C5.2699 8.00053 5.54962 8.28021 5.54962 8.62525ZM12.9285 8.62525C12.9285 8.97028 12.6488 9.24997 12.3037 9.24997H11.0751C10.7301 9.24997 10.4504 8.97028 10.4504 8.62525C10.4504 8.28021 10.7301 8.00053 11.0751 8.00053H12.3037C12.6487 8.00053 12.9285 8.28021 12.9285 8.62525ZM9.23548 8.62525C9.23548 8.97028 8.95579 9.24997 8.61076 9.24997H7.38215C7.03712 9.24997 6.75743 8.97028 6.75743 8.62525C6.75743 8.28021 7.03712 8.00053 7.38215 8.00053H8.61076C8.95576 8.00053 9.23548 8.28021 9.23548 8.62525ZM5.54962 12.3111C5.54962 12.6561 5.26993 12.9358 4.9249 12.9358H3.69629C3.35126 12.9358 3.07157 12.6561 3.07157 12.3111C3.07157 11.9661 3.35126 11.6864 3.69629 11.6864H4.9249C5.2699 11.6864 5.54962 11.9661 5.54962 12.3111ZM12.9285 12.3111C12.9285 12.6561 12.6488 12.9358 12.3037 12.9358H11.0751C10.7301 12.9358 10.4504 12.6561 10.4504 12.3111C10.4504 11.9661 10.7301 11.6864 11.0751 11.6864H12.3037C12.6487 11.6864 12.9285 11.9661 12.9285 12.3111ZM9.23548 12.3111C9.23548 12.6561 8.95579 12.9358 8.61076 12.9358H7.38215C7.03712 12.9358 6.75743 12.6561 6.75743 12.3111C6.75743 11.9661 7.03712 11.6864 7.38215 11.6864H8.61076C8.95576 11.6864 9.23548 11.9661 9.23548 12.3111Z" fill="#364549"/>
</g>
<defs>
<clipPath id="clip0_57_3549">
<rect width="16" height="16" fill="white"/>
</clipPath>
</defs>
</svg>
