<svg width="138" height="50" viewBox="0 0 138 50" fill="none" xmlns="http://www.w3.org/2000/svg">
<g clip-path="url(#clip0_1_3254)">
<path d="M22.094 33.558L14.7269 16.8403H20.4251L24.8255 28.0497H24.8567L29.2288 16.8403H34.944L27.5769 33.558H22.094Z" fill="#080876"/>
<path d="M54.1693 33.558L54.2118 16.8403H59.1903V33.558H54.1693Z" fill="#080876"/>
<path d="M72.7969 16.8176H77.8207V33.6572H72.7969V31.5745C72.1079 32.3648 71.2535 32.9938 70.2942 33.4169C69.3349 33.84 68.2943 34.0468 67.2461 34.0227C63.197 34.0227 60.6072 31.4328 60.6072 27.0182V16.8176H65.631V26.1682C65.631 28.3897 66.6964 29.6081 68.83 29.6081C71.1138 29.6081 72.7969 27.7521 72.7969 25.1623V16.8176Z" fill="#080876"/>
<path d="M107.657 23.3574V33.6572H102.602V24.2074C102.602 22.0766 101.718 20.8582 99.8313 20.8582C97.76 20.8582 95.9947 22.6858 95.9947 25.2416V33.6572H90.9681V24.2074C90.9681 22.0766 90.084 20.8582 88.1998 20.8582C86.0973 20.8582 84.3604 22.6858 84.3604 25.2416V33.6572H79.3365V16.8176H84.3604V18.9173C85.0396 18.14 85.8778 17.5177 86.8183 17.0924C87.7589 16.6671 88.7798 16.4487 89.812 16.4521C92.4302 16.4521 94.3456 17.6705 95.3232 19.8297C95.9679 18.7889 96.8695 17.9315 97.9414 17.34C99.0133 16.7484 100.219 16.4427 101.444 16.4521C105.252 16.4521 107.657 19.0391 107.657 23.3574Z" fill="#080876"/>
<path d="M111.715 27.0408C112.143 29.081 113.908 30.2399 116.345 30.2399C118.02 30.2399 119.238 29.7525 120.244 28.6248L123.228 31.2429C121.528 33.0705 119.261 34.2889 116.101 34.2889C110.65 34.2889 106.691 30.6054 106.691 25.5192C106.691 20.4331 110.375 16.7779 115.858 16.7779C120.799 16.7637 124.2 20.1441 124.2 24.7117C124.194 25.488 124.123 26.2624 123.987 27.0267L111.715 27.0408ZM111.746 23.9665H119.397C119.091 21.864 117.722 20.7986 115.773 20.7986C113.636 20.7845 112.143 22.0029 111.746 23.9523V23.9665Z" fill="#080876"/>
<path d="M42.6397 41.4124C42.4329 41.0015 42.1807 40.5198 41.9484 40.0324C41.5602 39.2249 41.2202 38.3947 40.6563 37.6891C40.2231 37.1005 39.6332 36.6454 38.9538 36.3758C38.2744 36.1063 37.533 36.0331 36.8141 36.1647C35.9882 36.3284 35.1826 36.5812 34.4112 36.9184C33.8526 37.1519 33.2766 37.3414 32.6885 37.4851C32.0311 37.5992 31.3545 37.5029 30.7551 37.2098C30.1558 36.9167 29.6642 36.4419 29.3506 35.853C28.6706 34.5808 28.8207 33.385 29.6339 32.2205C30.1808 31.4356 30.7305 30.645 31.1952 29.812C31.4813 29.3375 31.662 28.807 31.725 28.2565C31.7881 27.706 31.7321 27.1484 31.5607 26.6215C31.3501 25.9932 31.0016 25.4201 30.5407 24.944C29.8167 24.2297 29.0379 23.5732 28.2115 22.9804C27.8506 22.7037 27.5512 22.355 27.3323 21.9563C27.1135 21.5577 26.98 21.1179 26.9403 20.6649C26.9005 20.2118 26.9555 19.7555 27.1017 19.3249C27.2479 18.8942 27.4821 18.4987 27.7893 18.1635C28.1223 17.7841 28.5402 17.4888 29.009 17.3016C29.4778 17.1145 29.9842 17.0409 30.4868 17.0867C31.3596 17.1406 32.2323 17.2199 33.105 17.2511C33.8326 17.2864 34.5586 17.1546 35.2273 16.8657C36.0599 16.4995 36.7328 15.8457 37.1229 15.0239C37.4681 14.2621 37.6891 13.45 37.7774 12.6183C37.8511 12.1168 37.9276 11.6181 38.007 11.1165C38.0997 10.5532 38.336 10.0233 38.6932 9.57801C39.0504 9.13268 39.5164 8.78695 40.0461 8.5742C40.5759 8.36144 41.1515 8.28885 41.7175 8.36341C42.2835 8.43798 42.8207 8.6572 43.2773 8.9999C43.754 9.39386 44.1266 9.89884 44.3625 10.4705C44.7734 11.3489 45.1304 12.2584 45.6943 13.0575C46.6406 14.4034 47.9214 15.0409 49.5847 14.8568C50.3981 14.7254 51.1914 14.4901 51.945 14.1569C52.5318 13.902 53.1359 13.689 53.7527 13.5193C54.4242 13.3827 55.1218 13.4667 55.7417 13.7587C56.3616 14.0508 56.8705 14.5353 57.1926 15.1401C57.8755 16.4095 57.731 17.6081 56.9093 18.7755C56.3624 19.566 55.8042 20.3566 55.3367 21.1981C55.0545 21.6706 54.8761 22.1977 54.8136 22.7444C54.7511 23.2911 54.8057 23.8449 54.974 24.3688C55.1875 25.0069 55.5431 25.5882 56.0139 26.0689C56.7369 26.7747 57.5116 27.4254 58.3317 28.0156C58.6731 28.2779 58.9593 28.6051 59.174 28.9783C59.3886 29.3515 59.5274 29.7635 59.5825 30.1905C59.6375 30.6175 59.6076 31.0512 59.4946 31.4667C59.3816 31.8821 59.1877 32.2712 58.9239 32.6115C58.5981 33.0598 58.1608 33.4151 57.6553 33.6422C57.1498 33.8694 56.5937 33.9604 56.0422 33.9064C55.1553 33.8526 54.2713 33.7704 53.3844 33.7421C52.6004 33.7063 51.8201 33.8711 51.1176 34.2209C50.286 34.6518 49.6365 35.3666 49.2871 36.2356C48.9245 37.0658 48.8196 37.9583 48.6751 38.8395C48.6105 39.3929 48.5035 39.9404 48.3549 40.4773C47.6635 42.5656 44.9547 43.359 43.2376 41.9989C43.0591 41.8431 42.8919 41.6532 42.6397 41.4124ZM33.3827 26.9813L33.462 27.055C34.5019 27.905 35.5871 28.6899 36.4882 29.6987C37.2492 30.5335 37.9023 31.4607 38.432 32.4585C38.806 33.1754 39.1432 33.9092 39.4917 34.6403C39.5484 34.7593 39.5909 34.7933 39.7212 34.7366C40.1519 34.5581 40.5911 34.3994 41.0218 34.2238C42.6231 33.54 44.3416 33.1725 46.0824 33.1414C47.145 33.1414 48.2047 33.2377 49.2673 33.2972C49.4118 33.2972 49.4742 33.2745 49.4968 33.1215C49.562 32.6257 49.6498 32.1355 49.7207 31.6396C50.0495 29.3392 50.9345 27.1537 52.2992 25.2727C52.5825 24.8647 52.8659 24.4453 53.169 24.0146C52.7894 23.7086 52.4238 23.4111 52.0526 23.1221C51.1467 22.4272 50.32 21.6347 49.5875 20.7589C48.6829 19.6137 47.9349 18.353 47.3632 17.0102C47.2414 16.7269 47.1082 16.4775 46.9778 16.2083C46.4111 16.4208 45.8983 16.6192 45.3769 16.8317C43.6874 17.5331 41.8735 17.8858 40.0442 17.8688C39.1177 17.8688 38.194 17.7668 37.2702 17.7044C37.1229 17.7044 37.0606 17.7271 37.0436 17.8801C37.0067 18.1833 36.9444 18.4808 36.9076 18.784C36.6277 21.3094 35.6972 23.719 34.2072 25.7771C33.9295 26.1681 33.6632 26.5733 33.3827 26.9813ZM53.237 23.8956C53.4212 23.686 53.4269 23.6803 53.237 23.4848C52.9084 23.1561 52.557 22.8444 52.2368 22.5072C51.2613 21.4656 50.3437 20.3712 49.4883 19.2289C48.7672 18.2844 48.1048 17.2964 47.5049 16.2707C47.3604 16.0185 47.3377 16.0242 47.1082 16.1687C48.2436 19.3495 50.3983 22.0659 53.237 23.8956ZM36.9727 17.6903C36.6639 17.6336 36.6582 17.6336 36.593 17.9084C36.2734 19.2529 35.8558 20.5721 35.3435 21.8555C34.8567 23.1462 34.2888 24.4049 33.6434 25.6241C33.4648 25.9556 33.2835 26.2843 33.0965 26.6073C33.0115 26.7575 33.1362 26.8056 33.2155 26.8708C33.2948 26.936 33.3487 26.8708 33.394 26.8C33.5329 26.596 33.6774 26.3948 33.8134 26.1936C34.539 25.2085 35.1655 24.154 35.6835 23.0456C36.4514 21.3738 36.729 19.566 36.9812 17.7611C36.9826 17.7372 36.9797 17.7132 36.9727 17.6903ZM33.2892 27.1003C33.1163 27.3185 33.1107 27.3242 33.3033 27.514C33.6349 27.8427 33.9862 28.1516 34.3036 28.4916C35.3239 29.5777 36.2822 30.7205 37.1739 31.9145C37.8491 32.8225 38.4716 33.7686 39.0384 34.748C39.1829 34.9945 39.214 34.9916 39.4322 34.8443C38.3003 31.6586 36.1451 28.9375 33.3033 27.106L33.2892 27.1003ZM37.1172 17.6081C37.5139 17.6393 37.9135 17.6619 38.313 17.7016C39.9785 17.8883 41.6635 17.7925 43.2971 17.4182C44.4769 17.096 45.6322 16.6898 46.754 16.2027C46.9297 16.1347 46.9608 16.0185 46.8192 15.8995C46.7486 15.8649 46.6674 15.8588 46.5925 15.8825C46.0796 16.0213 45.5752 16.1942 45.0596 16.3103C42.5518 16.907 39.9865 17.2282 37.4091 17.2681C37.1172 17.2652 37.1172 17.2709 37.1172 17.6081ZM49.5847 33.2944C49.8822 33.3794 49.8992 33.3737 49.9672 33.0819C50.2825 31.6953 50.7147 30.3379 51.2593 29.0243C51.7466 27.854 52.2793 26.7008 52.8092 25.5476C52.9905 25.1565 53.2229 24.7854 53.4382 24.4142C53.5232 24.2668 53.4127 24.2158 53.3306 24.1507C53.2484 24.0855 53.186 24.1507 53.1379 24.23C52.965 24.4822 52.7922 24.7315 52.6165 24.978C51.9025 25.9508 51.2919 26.9954 50.7946 28.0949C50.0749 29.7383 49.8113 31.4951 49.5648 33.2405C49.5649 33.2588 49.5678 33.277 49.5733 33.2944H49.5847ZM49.4345 33.3935L47.7344 33.2604C46.1626 33.1286 44.5797 33.2588 43.0506 33.6457C41.9324 33.9688 40.834 34.3567 39.7609 34.8075C39.5937 34.8698 39.6107 34.9406 39.6759 35.0653C39.7411 35.19 39.8261 35.1588 39.9224 35.1333C40.4523 34.9831 40.9765 34.8075 41.512 34.6885C44.01 34.0972 46.5646 33.778 49.1313 33.7364C49.426 33.7364 49.4373 33.7194 49.4232 33.3935H49.4345ZM53.4609 23.5811C53.6819 23.3261 53.6791 23.3289 53.5006 23.1051C53.1719 22.6942 52.8404 22.2862 52.523 21.8697C51.7126 20.8014 50.9249 19.7134 50.0947 18.6622C49.4062 17.7894 48.6638 16.962 47.9497 16.112C47.7656 15.891 47.7741 15.8853 47.4765 16.044C49.1022 18.8254 51.1132 21.3629 53.4496 23.5811H53.4609ZM33.0993 27.4234C32.8755 27.6699 32.8755 27.6699 33.0427 27.8795C33.3657 28.2847 33.7 28.6843 34.0089 29.098C34.5756 29.8715 35.1253 30.6762 35.7288 31.4299C36.6752 32.6115 37.6613 33.7619 38.6303 34.9293C38.7947 35.1277 38.8173 35.1333 39.0724 34.9548C37.4454 32.1759 35.4346 29.6405 33.0993 27.4234ZM36.5704 17.6903C36.2388 17.6166 36.2417 17.6194 36.1453 17.8716C35.9555 18.3533 35.7713 18.8378 35.5786 19.3139C35.0686 20.5181 34.5274 21.711 34.04 22.9237C33.6009 24.0231 33.2183 25.1452 32.8046 26.2559C32.7111 26.5081 32.7196 26.5393 33.0087 26.6498C34.6041 23.8422 35.8027 20.827 36.5704 17.6903ZM46.7228 15.7436C46.6605 15.4603 46.652 15.4433 46.3743 15.4886C45.8898 15.5651 45.4052 15.6501 44.915 15.7125C43.606 15.8825 42.2912 16.0157 40.985 16.2083C39.8034 16.384 38.6275 16.6249 37.4488 16.8289C37.1881 16.8742 37.1654 16.877 37.1909 17.1661C38.3186 17.4579 45.3542 16.4067 46.7228 15.7295V15.7436ZM39.8204 35.2948C39.8941 35.5782 39.8941 35.5782 40.1774 35.5413C40.696 35.4648 41.2145 35.377 41.733 35.309C42.9684 35.1503 44.2067 35.0256 45.4336 34.8415C46.6605 34.6573 47.8704 34.4136 49.0888 34.2011C49.3721 34.1529 49.3721 34.1529 49.3721 33.8582C48.0602 33.5579 41.0303 34.6205 39.8204 35.2807V35.2948ZM49.9757 33.3425C50.3072 33.4077 50.3044 33.4077 50.4092 33.1442C50.6161 32.6257 50.8172 32.1071 51.0354 31.5943C51.4123 30.7216 51.8288 29.863 52.1688 28.9789C52.7157 27.5849 53.2172 26.1766 53.7414 24.774C53.8378 24.5218 53.8264 24.4907 53.5374 24.383C51.942 27.1856 50.7433 30.1962 49.9757 33.3284V33.3425ZM53.7244 23.2184C53.9058 22.9747 53.9086 22.9747 53.7641 22.7339C53.6196 22.493 53.4326 22.2069 53.2796 21.9377C52.8999 21.2746 52.5457 20.5974 52.1462 19.9542C51.6415 19.1591 51.0432 18.4275 50.3639 17.7753C49.7122 17.1377 49.0208 16.5399 48.3578 15.9137C48.2019 15.7691 48.0744 15.7408 47.9072 15.8825C47.9072 15.8995 47.9072 15.925 47.9072 15.9363C49.494 18.0019 51.3329 19.8664 52.744 22.0709C53.0209 22.4562 53.3199 22.8251 53.6394 23.1759C53.6667 23.1881 53.6952 23.1976 53.7244 23.2043V23.2184ZM32.8471 27.803C32.8078 27.8219 32.7733 27.8497 32.7464 27.8841C32.7195 27.9186 32.7009 27.9588 32.6922 28.0016C32.6834 28.0444 32.6846 28.0886 32.6958 28.1309C32.7069 28.1731 32.7277 28.2122 32.7565 28.2451C32.9293 28.5114 33.0965 28.7806 33.2552 29.0555C33.6377 29.7213 33.9947 30.407 34.3886 31.0587C34.8904 31.8552 35.487 32.5878 36.1652 33.2405C36.8226 33.8837 37.5168 34.4844 38.1855 35.1135C38.3441 35.2608 38.4688 35.2693 38.6785 35.1135C38.177 34.5128 37.6811 33.9177 37.1824 33.3255C36.6837 32.7333 36.1595 32.1355 35.6721 31.5206C35.1848 30.9057 34.7258 30.2852 34.2752 29.6533C33.8371 29.0082 33.3602 28.3903 32.8471 27.803ZM49.2815 34.2153C47.7315 34.4986 46.193 34.782 44.6515 35.0483C43.1101 35.3147 41.5347 35.3317 39.9961 35.6575C40.0357 35.8587 40.1038 35.9635 40.3191 35.9409C40.7713 35.9012 41.2258 35.8927 41.6792 35.9154C43.272 36.0368 44.8738 35.8766 46.4111 35.4422C47.2895 35.2013 48.1509 34.8925 49.0236 34.6346C49.2333 34.5836 49.3268 34.4958 49.2843 34.2153H49.2815ZM50.4375 33.3652C50.4746 33.3867 50.5161 33.3995 50.5588 33.4027C50.6015 33.4058 50.6444 33.3992 50.6843 33.3834C50.7241 33.3676 50.7598 33.3429 50.7887 33.3113C50.8176 33.2797 50.839 33.2419 50.8512 33.2009C51.0382 32.8027 51.2532 32.4183 51.4944 32.0505C52.3545 30.8231 53.0003 29.4588 53.4042 28.0156C53.6876 27.0012 53.8944 25.9641 54.1353 24.9355C54.1834 24.74 54.0333 24.706 53.8774 24.6125C52.9225 27.0635 52.1773 29.5626 50.9872 31.8861C50.7783 32.3483 50.5938 32.8212 50.4347 33.3029C50.4332 33.3238 50.4351 33.3449 50.4404 33.3652H50.4375ZM36.1538 17.6563C35.8337 17.5628 35.8223 17.5684 35.692 17.8036C35.4962 18.1977 35.2806 18.5817 35.0459 18.954C34.1016 20.3205 33.4106 21.8455 33.0058 23.4564C32.7848 24.3065 32.612 25.1849 32.4108 26.0491C32.3654 26.2474 32.4986 26.2984 32.6601 26.3835C32.884 25.8168 33.1305 25.2501 33.3175 24.6833C33.8779 22.9726 34.5402 21.2968 35.301 19.6652C35.5985 19.0135 35.8648 18.3391 36.1538 17.6563ZM37.2674 16.7864C38.8202 16.503 40.3531 16.2197 41.8889 15.9533C43.4246 15.687 45.0057 15.67 46.5386 15.3469C46.4848 15.0636 46.4508 15.0494 46.21 15.0636C45.7566 15.0636 45.3004 15.1174 44.8499 15.0834C43.2116 14.9614 41.5648 15.1341 39.9876 15.5935C39.1375 15.8315 38.3215 16.1177 37.4884 16.3783C37.2589 16.4407 37.2362 16.4634 37.2674 16.7864ZM49.2163 34.6743C48.7346 34.8131 48.2472 34.9038 47.7996 35.0851C46.3024 35.6761 44.7134 36.0002 43.1044 36.0429C42.2119 36.0712 41.3193 36.0429 40.4239 36.0429C40.3503 36.0429 40.2738 36.0429 40.1944 36.0429C40.2171 36.2497 40.2993 36.3489 40.5004 36.3687C40.9279 36.3966 41.3529 36.4534 41.7727 36.5387C43.4656 36.9264 45.2369 36.782 46.8447 36.125C47.2839 35.9579 47.6947 35.7029 48.1112 35.496C48.4144 35.3515 48.7233 35.2127 49.0321 35.0823C49.0717 35.0685 49.108 35.0468 49.1388 35.0185C49.1697 34.9902 49.1945 34.956 49.2118 34.9178C49.229 34.8797 49.2383 34.8384 49.239 34.7965C49.2398 34.7547 49.2321 34.7131 49.2163 34.6743ZM50.8456 33.3652C51.0893 33.4757 51.1601 33.4559 51.3103 33.2547C51.5407 32.9261 51.7876 32.6093 52.0498 32.3055C52.4644 31.8768 52.8276 31.4014 53.1322 30.8887C53.8197 29.7381 54.2382 28.4469 54.3563 27.1117C54.4045 26.4855 54.4413 25.8593 54.4951 25.233C54.5093 25.0347 54.4073 24.9497 54.2288 24.8959C54.1041 25.4031 53.9454 25.8876 53.8661 26.3835C53.5407 28.364 52.7969 30.2525 51.6843 31.923C51.3783 32.3905 51.1233 32.8835 50.8456 33.3652ZM48.2954 15.7125C48.4059 15.8258 48.5023 15.9335 48.6071 16.0327C49.2956 16.673 50.004 17.2879 50.6671 17.9509C51.4077 18.6977 52.0504 19.5356 52.5797 20.4444C52.9764 21.1188 53.3419 21.8102 53.7131 22.4931C53.7811 22.6149 53.8633 22.7282 53.9426 22.8444C53.9808 22.8223 54.0141 22.7926 54.0405 22.7573C54.067 22.722 54.0861 22.6818 54.0967 22.6389C54.1072 22.5961 54.1091 22.5516 54.1021 22.508C54.0951 22.4645 54.0794 22.4227 54.0559 22.3854C53.9426 22.1389 53.8349 21.8895 53.7414 21.6317C53.4906 20.7952 53.1375 19.993 52.6902 19.243C52.1154 18.3357 51.3832 17.5384 50.5282 16.8884C49.9389 16.4605 49.3155 16.0723 48.7148 15.6615C48.5448 15.5566 48.4428 15.6133 48.2897 15.7068L48.2954 15.7125ZM32.6006 28.1516C32.3909 28.3811 32.3909 28.3924 32.4873 28.6191C32.6353 28.9289 32.7658 29.2468 32.8783 29.5711C33.0976 30.3502 33.4298 31.0929 33.8644 31.7756C34.4487 32.69 35.1994 33.4868 36.0773 34.1246C36.644 34.5354 37.2561 34.918 37.8426 35.3203C37.9956 35.4252 38.126 35.3855 38.2705 35.2807C38.1656 35.173 38.075 35.0653 37.9871 34.969C37.2844 34.3173 36.542 33.7052 35.8903 33.0082C35.2985 32.3647 34.7567 31.677 34.2696 30.9511C33.8389 30.322 33.5159 29.625 33.1362 28.9676C32.9605 28.7013 32.7763 28.4377 32.6006 28.1516ZM35.692 17.6138C35.6189 17.5721 35.5326 17.56 35.4509 17.5801C35.3692 17.6001 35.2983 17.6507 35.2528 17.7214C34.8844 18.1776 34.5076 18.6281 34.1194 19.0843C33.0988 20.329 32.4444 21.8329 32.2294 23.4281C32.1218 24.1875 32.1133 24.961 32.0424 25.7289C32.0226 25.9329 32.1019 26.0293 32.3003 26.1001C32.4502 25.6289 32.576 25.1504 32.6771 24.6663C32.9241 23.0826 33.4457 21.5541 34.2186 20.1497C34.6464 19.3592 35.1309 18.5998 35.5871 17.8263C35.6211 17.7639 35.6523 17.6903 35.692 17.6138ZM37.3241 16.35C37.9276 16.1573 38.5113 15.993 39.0809 15.7833C40.4658 15.2823 41.9214 15.004 43.3934 14.9588C44.3115 14.9304 45.2324 14.9588 46.1505 14.9588C46.2185 14.9588 46.2865 14.9588 46.3573 14.9588C46.295 14.6754 46.2808 14.6754 46.0258 14.6357C45.6036 14.5791 45.1757 14.5536 44.7564 14.4572C43.0051 14.0634 41.1738 14.2381 39.5285 14.9559C38.8343 15.2393 38.1798 15.6105 37.5026 15.9335C37.3382 16.01 37.2986 16.129 37.3241 16.35ZM35.2556 17.6166L35.2046 17.5202C35.0878 17.535 34.9746 17.5705 34.8703 17.6251C34.4112 18.0048 33.9664 18.3986 33.5272 18.7953C32.9121 19.3642 32.4286 20.0604 32.1104 20.8354C31.6632 21.7702 31.4679 22.8055 31.5437 23.839C31.5976 24.3858 31.6542 24.9327 31.6911 25.4824C31.6916 25.551 31.7116 25.618 31.7487 25.6757C31.7859 25.7333 31.8386 25.7793 31.9008 25.8083C32.0003 25.3656 32.0629 24.9154 32.0878 24.4623C32.0896 23.3117 32.3338 22.1744 32.8046 21.1245C33.1551 20.2806 33.6467 19.5026 34.2582 18.8237C34.6096 18.4383 34.9241 18.0189 35.2556 17.6166ZM46.1816 14.5564C46.1707 14.4731 46.1344 14.3952 46.0776 14.3334C46.0208 14.2715 45.9463 14.2287 45.8643 14.2107C45.4777 14.1265 45.0987 14.0108 44.7309 13.865C43.9428 13.522 43.0831 13.3761 42.226 13.44C41.1401 13.4759 40.082 13.7921 39.1545 14.3581C38.9023 14.5167 38.6813 14.7179 38.4376 14.8908C38.1373 15.1033 37.8284 15.3073 37.5196 15.5113C37.4615 15.5493 37.4179 15.6057 37.3957 15.6715C37.3736 15.7373 37.3744 15.8086 37.3978 15.874C37.4314 15.8644 37.4645 15.8531 37.4969 15.84C38.0466 15.5566 38.5935 15.2874 39.1489 15.0239C40.5728 14.3409 42.1553 14.0569 43.7278 14.2022C44.4418 14.2646 45.1446 14.4176 45.8558 14.5281C45.9663 14.5451 46.0683 14.5479 46.1816 14.5564ZM37.8114 35.5243V35.462C37.7777 35.424 37.7418 35.3881 37.7038 35.3543C37.4431 35.1645 37.1881 34.9633 36.9161 34.7876C36.3693 34.4798 35.854 34.1192 35.3775 33.7109C34.5316 32.9479 33.8392 32.0304 33.3373 31.0077C33.054 30.4014 32.8528 29.7525 32.6091 29.1263C32.5326 28.9251 32.4391 28.7296 32.3513 28.5228C32.2804 28.567 32.2266 28.6339 32.1988 28.7127C32.171 28.7915 32.1708 28.8774 32.1983 28.9563C32.3116 29.4663 32.4165 29.982 32.51 30.4977C32.6332 31.1551 32.8824 31.7824 33.2438 32.3451C33.7924 33.3005 34.5881 34.0903 35.5475 34.6318C36.1708 34.9746 36.8282 35.258 37.4771 35.5413C37.5678 35.5697 37.6981 35.5187 37.8114 35.513V35.5243ZM48.7063 15.5708C49.0208 15.7975 49.307 16.0298 49.6158 16.2253C50.1732 16.5427 50.6988 16.9128 51.1856 17.3304C52.0112 18.0749 52.6922 18.9654 53.1945 19.9571C53.4552 20.4954 53.6281 21.0905 53.8434 21.6373C53.9511 21.9207 54.0729 22.1814 54.1863 22.4534H54.2656C54.2996 22.3457 54.3761 22.2324 54.3591 22.136C54.2316 21.4418 54.1098 20.7448 53.9369 20.0647C53.6376 19.0307 53.073 18.0929 52.2992 17.3446C51.8192 16.8343 51.2409 16.4266 50.5991 16.146C50.1174 15.9401 49.6451 15.7229 49.1823 15.4943C49.1085 15.4458 49.0196 15.4257 48.9321 15.4377C48.8446 15.4497 48.7644 15.4929 48.7063 15.5595V15.5708ZM49.1511 35.122C48.7342 35.2846 48.3282 35.4739 47.9356 35.6887C47.1623 36.1538 46.3136 36.4798 45.4279 36.6521C44.2666 36.9136 43.0627 36.9232 41.8974 36.6804C41.4185 36.5756 40.9255 36.5331 40.4381 36.4651C40.4154 36.466 40.3932 36.4718 40.3729 36.4821C40.4041 36.6946 40.5429 36.7654 40.7271 36.8193C41.1011 36.902 41.4678 37.0148 41.8237 37.1564C42.6114 37.5003 43.4718 37.6444 44.3285 37.5758C45.4214 37.5387 46.4849 37.2131 47.4114 36.6322C47.6409 36.4849 47.8421 36.3007 48.0659 36.1449C48.3776 35.9267 48.6949 35.7114 49.0151 35.5045C49.0783 35.4632 49.1259 35.4022 49.1505 35.3309C49.1752 35.2596 49.1754 35.1821 49.1511 35.1107V35.122ZM54.6623 25.2047C54.557 25.6499 54.4879 26.1028 54.4555 26.5591C54.4416 28.2289 53.9371 29.8577 53.0047 31.2429C52.6748 31.6986 52.3211 32.1365 51.945 32.5548C51.7211 32.8382 51.5114 33.1215 51.2933 33.4049L51.3244 33.4729C51.4321 33.4474 51.571 33.4559 51.6503 33.3907C52.1405 32.9799 52.625 32.5605 53.0982 32.127C53.6244 31.6333 54.0472 31.04 54.3421 30.3815C54.8489 29.3891 55.0742 28.2769 54.9938 27.1655C54.9428 26.6385 54.889 26.1114 54.8521 25.5816C54.8465 25.3974 54.7955 25.2586 54.6623 25.2019V25.2047ZM49.1681 15.3186V15.4121C49.5164 15.6096 49.8759 15.7865 50.2449 15.942C50.9816 16.1958 51.6518 16.6122 52.2057 17.1604C52.9623 17.8497 53.5408 18.7121 53.8916 19.6737C54.0243 20.1579 54.1312 20.6488 54.2118 21.1443C54.2798 21.4588 54.3563 21.7705 54.4356 22.0964C54.4984 22.0667 54.5499 22.0176 54.5826 21.9564C54.6152 21.8951 54.6273 21.825 54.617 21.7563C54.617 21.5438 54.5886 21.3313 54.5801 21.116C54.5812 20.6248 54.5566 20.134 54.5065 19.6454C54.3124 18.564 53.7654 17.5775 52.9509 16.8402C52.4456 16.3227 51.8135 15.9465 51.1176 15.7493C50.5821 15.6048 50.0465 15.466 49.5053 15.3186C49.3936 15.3018 49.2799 15.3018 49.1681 15.3186ZM37.3921 35.6717V35.5952C37.0861 35.4422 36.7885 35.2722 36.474 35.1447C35.8012 34.9083 35.1743 34.5574 34.6209 34.1076C33.7357 33.3693 33.058 32.4133 32.6545 31.3336C32.5151 30.8542 32.4044 30.3669 32.3229 29.8743C32.2549 29.5626 32.1784 29.2481 32.1048 28.9364L32.0339 28.9223C31.9971 29.0129 31.9206 29.1065 31.9234 29.2056C31.9404 29.8828 31.9404 30.5657 32.0056 31.2401C32.1157 32.0941 32.4688 32.8986 33.0228 33.5579C33.5943 34.3549 34.4038 34.9501 35.335 35.258C35.9017 35.428 36.4825 35.5782 37.0606 35.7227C37.1731 35.7238 37.2851 35.7066 37.3921 35.6717ZM55.0023 25.4541L54.9343 25.4881C54.9598 25.9103 54.957 26.3381 55.0193 26.7575C55.3225 28.7721 54.6595 30.4779 53.3646 31.9768C53.084 32.2552 52.7869 32.5163 52.4748 32.7588C52.2312 32.977 51.9988 33.2065 51.7608 33.4304L51.7891 33.5041C51.9003 33.4967 52.0095 33.4709 52.1121 33.4275C52.4805 33.2009 52.8205 32.9147 53.2059 32.7277C53.9102 32.3733 54.4946 31.8195 54.8862 31.1352C55.5611 30.1204 55.844 28.8949 55.6824 27.6869C55.5532 27.0172 55.3877 26.3551 55.1865 25.7034C55.1638 25.6042 55.0618 25.5334 55.0023 25.4541ZM31.5437 25.5447L31.6061 25.5164C31.6089 25.4617 31.6089 25.4068 31.6061 25.3521C31.5636 24.8817 31.5324 24.4113 31.4757 23.9353C31.3736 22.8982 31.5466 21.8525 31.9773 20.9035C32.3194 20.0308 32.8666 19.2533 33.5725 18.6366C33.9465 18.3165 34.3149 17.9906 34.6833 17.6648C34.7203 17.6268 34.7544 17.586 34.7853 17.5429L34.7513 17.4721C34.6279 17.4944 34.5079 17.5325 34.3942 17.5854C33.9409 17.8688 33.4932 18.1521 33.0483 18.4355C32.8486 18.5621 32.6591 18.7043 32.4816 18.8605C31.9772 19.3256 31.5774 19.8925 31.3085 20.5238C30.8441 21.4675 30.7027 22.5378 30.9062 23.5698C31.0337 24.1365 31.1895 24.7032 31.3482 25.2699C31.3989 25.371 31.4648 25.4637 31.5437 25.5447ZM40.6109 36.8504L40.5656 36.9099C40.6308 36.9921 40.6761 37.1054 40.7611 37.1508C41.3278 37.4625 41.8945 37.7826 42.4981 38.0518C43.3103 38.3966 44.206 38.4952 45.0737 38.3352C46.1391 38.1793 47.1195 37.8252 47.8789 37.0119C47.9837 36.8986 48.0886 36.7824 48.1991 36.6747C48.4626 36.4169 48.7318 36.1619 48.9981 35.9069C49.0484 35.866 49.0832 35.8091 49.0966 35.7456C49.11 35.6822 49.1012 35.6161 49.0718 35.5583C48.7142 35.7772 48.369 36.0156 48.0376 36.2724C47.1702 36.9932 46.1118 37.4461 44.9915 37.5758C43.9128 37.7676 42.8017 37.6426 41.7925 37.2159C41.4063 37.0708 41.0117 36.9487 40.6109 36.8504ZM45.9521 14.1512L46.0116 14.0804C45.938 13.9854 45.8512 13.9014 45.7538 13.831C45.3769 13.627 44.9717 13.474 44.6204 13.2445C44.0758 12.8877 43.4481 12.6778 42.7984 12.6353C41.2598 12.5361 39.8487 12.8478 38.7068 13.9727C38.5793 14.1002 38.4632 14.239 38.3328 14.3637C38.0806 14.6102 37.8199 14.8426 37.5763 15.0948C37.5163 15.1819 37.4695 15.2773 37.4374 15.3781C37.5196 15.398 37.5593 15.3951 37.5876 15.3781C37.9531 15.1231 38.3328 14.8823 38.6813 14.6046C39.5379 13.9453 40.5594 13.5346 41.6338 13.4173C42.695 13.2393 43.785 13.3671 44.7762 13.7857C45.1574 13.9316 45.5473 14.0537 45.9436 14.1512H45.9521ZM54.7161 21.6997H54.8011C54.8446 21.5913 54.8787 21.4795 54.9032 21.3653C54.9627 20.9006 55.0278 20.4388 55.0618 19.9741C55.1039 19.5974 55.1039 19.2173 55.0618 18.8407C54.8987 17.8863 54.4185 17.0148 53.6989 16.367C53.1483 15.7983 52.4269 15.4252 51.6446 15.3044C51.0609 15.2279 50.4715 15.1713 49.885 15.1146C49.7889 15.1203 49.6938 15.1374 49.6017 15.1656V15.2336C50.0182 15.3526 50.4375 15.4603 50.8484 15.5878C51.2253 15.6885 51.5924 15.8232 51.945 15.9902C52.7963 16.4457 53.5008 17.1335 53.9766 17.9736C54.4501 18.7083 54.6856 19.5711 54.651 20.4444C54.6488 20.8635 54.6677 21.2825 54.7076 21.6997H54.7161ZM31.8271 29.3076L31.7562 29.2906C31.7121 29.3867 31.6788 29.4875 31.6571 29.591C31.5947 30.0528 31.5636 30.5204 31.4899 30.9794C31.4077 31.4062 31.4077 31.8447 31.4899 32.2715C31.6878 33.1716 32.1553 33.99 32.8301 34.6176C33.3731 35.1842 34.0867 35.5574 34.8618 35.6802C35.4596 35.7624 36.0603 35.819 36.6582 35.8785C36.7547 35.8736 36.85 35.8555 36.9416 35.8247V35.7567C36.5109 35.6377 36.0915 35.5017 35.6523 35.4053C35.226 35.3186 34.8172 35.1615 34.4424 34.9406C33.6547 34.463 33.0022 33.792 32.5468 32.9912C32.0835 32.2571 31.8561 31.3988 31.8951 30.5317C31.8947 30.1227 31.872 29.7141 31.8271 29.3076ZM49.0321 36.0854L48.9726 36.0485C48.8253 36.1846 48.6723 36.3149 48.5306 36.4537C48.2217 36.7598 47.9384 37.0969 47.6069 37.3718C46.7518 38.0491 45.7021 38.4344 44.6119 38.4712C43.7744 38.5507 42.9315 38.3915 42.1807 38.0122L40.9453 37.3576C40.8915 37.3293 40.832 37.3095 40.7753 37.284L40.7328 37.3293C40.7864 37.4108 40.8481 37.4868 40.917 37.556C41.1295 37.7231 41.3533 37.879 41.5743 38.0377C41.9328 38.3287 42.3116 38.5939 42.7077 38.831C43.6598 39.2885 44.7491 39.3715 45.7594 39.0634C46.5771 38.8841 47.3113 38.4362 47.8449 37.7911C48.2217 37.3151 48.5731 36.8164 48.9273 36.3234C48.9757 36.2481 49.0147 36.1673 49.0435 36.0825L49.0321 36.0854ZM31.181 25.2557L31.232 25.216C31.1895 25.029 31.1499 24.8392 31.1045 24.6493C30.9565 24.1678 30.8382 23.6776 30.7503 23.1816C30.6358 22.0087 30.9258 20.832 31.5721 19.8466C31.9113 19.2574 32.3875 18.7588 32.9605 18.393L34.1959 17.6223C34.2412 17.5911 34.2809 17.5543 34.3234 17.5202L34.2951 17.4551C34.1702 17.4785 34.0471 17.5107 33.9267 17.5514C33.6264 17.6733 33.3345 17.8121 33.0398 17.9453C32.7074 18.0722 32.3837 18.2208 32.0708 18.3901C31.4113 18.8014 30.891 19.4018 30.5775 20.1129C30.0986 21.1273 29.889 22.187 30.2658 23.2779C30.4783 23.8928 30.7702 24.4822 31.0337 25.08C31.0535 25.148 31.1329 25.1962 31.1895 25.2529L31.181 25.2557ZM55.3452 25.7459L55.3083 25.7686C55.3083 25.8309 55.3253 25.8933 55.3395 25.9528C55.4699 26.4515 55.6229 26.9473 55.7277 27.4545C55.9322 28.5342 55.7665 29.6514 55.2573 30.6252C54.8792 31.4977 54.2332 32.2271 53.4127 32.7078C53.0444 32.9119 52.7015 33.1555 52.3473 33.385C52.3091 33.4134 52.2739 33.4457 52.2425 33.4814L52.2652 33.5381C52.392 33.515 52.517 33.4828 52.6392 33.4417C52.9452 33.3142 53.2427 33.1584 53.5431 33.0365C53.8796 32.9031 54.2079 32.7498 54.5263 32.5775C55.1688 32.166 55.6762 31.5748 55.9855 30.8774C56.4474 29.8998 56.6599 28.8741 56.3227 27.82C56.0871 27.1693 55.8185 26.5309 55.518 25.9074C55.4897 25.8451 55.4075 25.8026 55.3452 25.7459ZM37.4771 14.8964L37.5508 14.9503C37.6008 14.9149 37.649 14.8771 37.6953 14.8369C38.0721 14.4629 38.4348 14.0747 38.8287 13.7177C39.5289 13.111 40.3921 12.7237 41.3108 12.6041C42.3879 12.3801 43.5095 12.5426 44.4787 13.0631C44.8555 13.2757 45.2437 13.4683 45.6291 13.6667C45.6728 13.6855 45.7184 13.6997 45.7651 13.7092C45.7432 13.6059 45.6885 13.5125 45.6093 13.4428C45.3259 13.2275 45.0426 13.0206 44.7592 12.8138C44.4634 12.5736 44.1489 12.3575 43.8185 12.1678C42.8134 11.6943 41.6643 11.6273 40.6109 11.9807C39.8382 12.1766 39.1495 12.6169 38.6473 13.236C38.3441 13.627 38.0608 14.0379 37.7774 14.4402C37.6698 14.5876 37.5763 14.7434 37.4771 14.8964ZM52.6958 33.5154V33.5636C52.8073 33.558 52.9181 33.5437 53.0274 33.5211C53.5572 33.385 54.0928 33.2547 54.6198 33.0904C54.8982 33.0062 55.164 32.8851 55.4103 32.7305C56.2202 32.2065 56.8037 31.3975 57.0453 30.4637C57.1929 30.0396 57.2542 29.5902 57.2255 29.142C57.1967 28.6938 57.0786 28.2559 56.8781 27.854C56.5721 27.2873 56.1924 26.7405 55.8439 26.1879C55.8051 26.1402 55.7624 26.0956 55.7164 26.0548C55.7671 26.2744 55.8382 26.4888 55.9289 26.6951C56.1328 27.1133 56.3052 27.5462 56.4446 27.9901C56.7279 29.183 56.4446 30.2909 55.824 31.3223C55.3696 32.1228 54.6363 32.728 53.7641 33.0224C53.4042 33.1669 53.0557 33.3539 52.6958 33.5154ZM41.0076 37.7203L40.968 37.7656C41.0273 37.8497 41.0916 37.9302 41.1606 38.0065C41.5233 38.3748 41.8804 38.7517 42.26 39.1059C42.477 39.3182 42.7209 39.5011 42.9854 39.6499C43.4821 39.9 44.0259 40.0429 44.5814 40.0693C45.1369 40.0956 45.6918 40.0049 46.21 39.8029C46.9293 39.5778 47.5475 39.1088 47.9582 38.4769C48.3039 37.9102 48.5929 37.3208 48.9018 36.7371C48.9302 36.6679 48.9502 36.5956 48.9613 36.5217C48.6354 36.8873 48.3634 37.2868 48.0602 37.6551C47.8502 37.9343 47.6066 38.1865 47.3349 38.406C46.4189 39.0842 45.2847 39.4001 44.15 39.2929C43.3332 39.253 42.5541 38.9373 41.9399 38.3975C41.6508 38.151 41.3193 37.947 41.0076 37.7203ZM36.4995 36.0202V35.9522C36.083 35.9012 35.6693 35.8304 35.2528 35.8105C34.7256 35.7933 34.21 35.6516 33.7482 35.3968C32.8585 34.9117 32.149 34.1525 31.7251 33.232C31.3628 32.5136 31.253 31.6942 31.4134 30.9057C31.4927 30.5147 31.5041 30.1123 31.5494 29.7157L31.4899 29.6987C31.4559 29.7837 31.4077 29.8658 31.3822 29.9537C31.2349 30.4835 31.0734 31.0106 30.9515 31.5461C30.8774 31.8414 30.845 32.1457 30.8552 32.45C30.8894 33.0248 31.0501 33.585 31.3259 34.0904C31.6016 34.5959 31.9856 35.0343 32.4505 35.3742C33.0431 35.8684 33.7957 36.1294 34.5671 36.108C35.1338 36.0939 35.6693 36.0712 36.219 36.0457C36.313 36.0418 36.4067 36.0323 36.4995 36.0174V36.0202ZM33.8247 17.4976V17.4352C33.7295 17.4442 33.6349 17.4584 33.5414 17.4777C33.003 17.6194 32.4618 17.7611 31.9291 17.9141C31.6754 17.9891 31.4325 18.0967 31.2065 18.2343C30.7368 18.5327 30.3352 18.9265 30.0276 19.3903C29.7201 19.8541 29.5135 20.3773 29.4214 20.9261C29.2376 21.6781 29.3322 22.4713 29.6878 23.1589C29.9938 23.7256 30.3622 24.2498 30.705 24.791C30.7479 24.8511 30.7973 24.9062 30.8524 24.9554C30.7731 24.6639 30.6698 24.3796 30.5435 24.1053C30.3151 23.6771 30.15 23.218 30.0533 22.7424C29.9114 21.6735 30.1458 20.5886 30.7163 19.6737C31.156 18.8796 31.8719 18.2746 32.7281 17.9736C33.105 17.8546 33.4592 17.6591 33.8247 17.4976ZM45.5497 13.287L45.5894 13.2473C45.5321 13.1668 45.4706 13.0892 45.4052 13.015C45.0454 12.6495 44.6912 12.2811 44.32 11.9269C44.1331 11.7401 43.9259 11.5747 43.7023 11.4339C43.2688 11.1832 42.7899 11.021 42.2933 10.9568C41.7967 10.8926 41.2923 10.9276 40.8093 11.0599C40.3688 11.1415 39.949 11.31 39.5744 11.5557C39.1998 11.8014 38.8779 12.1193 38.6275 12.4908C38.2563 13.0575 37.9616 13.6865 37.6358 14.2901C37.6168 14.3449 37.6054 14.4021 37.6018 14.4601C37.8885 14.1708 38.1457 13.8538 38.3696 13.5137C38.7776 12.8603 39.3859 12.3563 40.1038 12.0771C41.1859 11.6072 42.4043 11.5577 43.521 11.9382C43.9982 12.1391 44.4395 12.4167 44.8272 12.76C45.0567 12.9441 45.3061 13.1113 45.5497 13.287ZM50.0522 14.9871V15.0664C50.4715 15.1089 50.9022 15.1713 51.3046 15.1911C51.7397 15.2071 52.1673 15.3091 52.5627 15.4915C53.5556 15.9593 54.3521 16.7619 54.8125 17.7583C55.145 18.4107 55.2687 19.1497 55.1667 19.8749C55.1072 20.2829 55.0618 20.6966 55.0108 21.1075C55.0108 21.167 55.0108 21.2265 55.0108 21.286L55.0618 21.3001C55.1042 21.208 55.1411 21.1133 55.1723 21.0168C55.3197 20.4926 55.4869 19.9741 55.5974 19.4414C55.6795 19.082 55.7072 18.7124 55.6795 18.3448C55.6218 17.8114 55.4552 17.2955 55.19 16.8291C54.9249 16.3627 54.5669 15.9556 54.1381 15.6331C53.5463 15.124 52.7878 14.8507 52.0073 14.8653C51.4406 14.8823 50.8739 14.9049 50.3072 14.9276C50.2209 14.9427 50.1357 14.9635 50.0522 14.9899V14.9871ZM50.5877 14.7859V14.8483C50.9872 14.8341 51.3868 14.8483 51.7863 14.8057C52.3046 14.7595 52.8261 14.8453 53.3022 15.0551C54.2654 15.4749 55.0324 16.246 55.4472 17.2114C55.6372 17.6032 55.7477 18.0288 55.7725 18.4635C55.7973 18.8983 55.7359 19.3337 55.5917 19.7445C55.4699 20.0959 55.399 20.4643 55.3083 20.8241C55.3508 20.8241 55.3735 20.8043 55.382 20.7844C55.637 20.1667 55.9232 19.5632 56.1442 18.9342C56.6231 17.5542 55.9515 15.9788 54.7756 15.1118C54.4085 14.8258 53.9824 14.6248 53.5282 14.5234C53.074 14.4219 52.6029 14.4226 52.149 14.5252C51.6361 14.6386 51.1091 14.7037 50.5877 14.7887V14.7859ZM35.9782 36.2072V36.1505C35.5758 36.1505 35.1735 36.1505 34.7768 36.1931C34.2945 36.2375 33.8087 36.1656 33.36 35.9834C32.8497 35.7765 32.3861 35.4692 31.9967 35.0798C31.6074 34.6905 31.3001 34.2269 31.0932 33.7166C30.7746 33.035 30.7006 32.2645 30.8835 31.5348C30.9827 31.1466 31.0989 30.7612 31.2037 30.373C31.2235 30.3079 31.232 30.2427 31.2462 30.1747C31.1985 30.2001 31.1621 30.2426 31.1442 30.2937C30.9147 30.8349 30.6823 31.3761 30.4642 31.923C30.3097 32.3036 30.2447 32.7146 30.2743 33.1244C30.3067 33.657 30.4554 34.176 30.71 34.645C30.9645 35.114 31.3188 35.5215 31.7477 35.8389C32.0897 36.1207 32.4886 36.3252 32.9171 36.4381C33.3456 36.5511 33.7934 36.57 34.2299 36.4934L35.2046 36.3291L35.9782 36.2072ZM33.2155 17.4692L33.1985 17.4069C33.1305 17.4069 33.0597 17.4069 32.9917 17.4211L31.4134 17.6364C30.8375 17.7139 30.2978 17.9615 29.8635 18.3476C29.272 18.8623 28.856 19.5488 28.6734 20.3113C28.5418 20.7542 28.5086 21.2206 28.5761 21.6778C28.6437 22.1349 28.8103 22.5718 29.0644 22.9577C29.3478 23.3686 29.6878 23.737 30.0023 24.1251C30.1383 24.2895 30.2687 24.4595 30.4018 24.6295L30.45 24.5927C30.229 24.2385 29.9966 23.8871 29.7898 23.5244C29.6254 23.2564 29.4905 22.9714 29.3874 22.6744C29.2419 22.185 29.1958 21.6713 29.2517 21.1638C29.3077 20.6562 29.4646 20.165 29.7133 19.719C30.2432 18.682 31.0309 17.9566 32.2124 17.7356C32.5525 17.6903 32.8811 17.5628 33.2155 17.4692ZM37.6953 13.848L37.7548 13.8707C37.922 13.5618 38.1118 13.2587 38.2591 12.9385C38.5942 12.215 39.1729 11.6323 39.8941 11.2922C40.6582 10.8877 41.5348 10.7473 42.387 10.8928C43.2393 11.0384 44.0196 11.4617 44.6062 12.0969C44.8385 12.3434 45.0907 12.5729 45.3344 12.811L45.3882 12.7656C45.0567 12.3463 44.7309 11.9156 44.3908 11.5075C44.2052 11.2589 43.9944 11.03 43.7618 10.8247C43.3573 10.5018 42.884 10.2763 42.3783 10.1657C41.8727 10.0552 41.3485 10.0625 40.8461 10.1871C40.3596 10.2605 39.8963 10.4442 39.4916 10.7242C39.0869 11.0041 38.7516 11.3728 38.5113 11.8022C38.3081 12.2284 38.1284 12.6655 37.973 13.1113C37.8766 13.355 37.7774 13.6015 37.6953 13.848ZM41.2145 38.185L41.1606 38.2275C41.3873 38.5109 41.6055 38.7942 41.8379 39.0776C42.1215 39.4711 42.4401 39.8381 42.7899 40.1741C43.674 40.9108 44.7252 41.0412 45.8189 40.7862C46.3386 40.6918 46.8268 40.47 47.2397 40.1407C47.6526 39.8113 47.9774 39.3847 48.1849 38.899C48.4144 38.3607 48.6043 37.811 48.8111 37.2641C48.8281 37.2188 48.8366 37.1678 48.8508 37.1196L48.8026 37.1026C48.6128 37.4568 48.4144 37.8025 48.2359 38.1623C48.017 38.6281 47.6836 39.0307 47.2669 39.3326C46.3922 39.9713 45.3068 40.252 44.2322 40.1175C43.3893 40.0441 42.6065 39.6507 42.0447 39.0181C41.7869 38.729 41.4922 38.4627 41.2145 38.185ZM56.1527 26.341L56.0932 26.392C56.3114 26.7433 56.5381 27.089 56.7421 27.4489C56.9091 27.7171 57.0478 28.002 57.1558 28.2989C57.446 29.261 57.3442 30.2989 56.8724 31.1862C56.6832 31.6252 56.4072 32.0215 56.061 32.3511C55.7148 32.6807 55.3055 32.937 54.8578 33.1045C54.4016 33.266 53.9228 33.3652 53.4411 33.4927C53.3929 33.4927 53.3447 33.5324 53.2966 33.5494C53.3899 33.5697 53.4865 33.5697 53.5799 33.5494C54.0559 33.4842 54.5291 33.4134 54.9967 33.3567C55.7032 33.2712 56.3601 32.9498 56.8611 32.4443C57.9633 31.3704 58.5612 29.1121 57.1076 27.5395C56.7619 27.1768 56.4786 26.7575 56.1527 26.341ZM51.4123 14.5082V14.5536L51.5823 14.5337C51.9887 14.4551 52.3993 14.4003 52.812 14.3694C53.2694 14.3671 53.7223 14.4596 54.1422 14.641C54.5621 14.8224 54.9398 15.0888 55.2517 15.4235C56.2264 16.3698 56.7563 17.9736 56.0791 19.362C55.9685 19.5915 55.8835 19.8381 55.7957 20.0761C55.8167 20.0721 55.8366 20.0634 55.8537 20.0506C55.8709 20.0379 55.885 20.0214 55.8949 20.0024C56.0876 19.6567 56.2689 19.3082 56.4616 18.971C57.3938 17.4324 56.7903 15.551 55.4415 14.6074C55.0463 14.3144 54.5863 14.1209 54.1004 14.0435C53.6146 13.966 53.1172 14.0069 52.6505 14.1625C52.2425 14.2901 51.826 14.3892 51.4123 14.5082ZM30.7617 30.9426L30.7163 30.9199C30.5803 31.1664 30.433 31.4101 30.3027 31.6538C30.009 32.0978 29.7978 32.5912 29.6793 33.1102C29.5903 33.6366 29.6316 34.1768 29.7996 34.6835C29.9675 35.1903 30.257 35.6483 30.6427 36.0174C30.9615 36.3685 31.3585 36.6396 31.8015 36.809C32.2445 36.9783 32.7211 37.041 33.1928 36.9921C33.642 36.9188 34.0852 36.8127 34.5189 36.6747C34.7286 36.6209 34.9326 36.5557 35.1395 36.4962V36.4452C34.8561 36.4934 34.5557 36.5331 34.2696 36.5897C33.7987 36.6832 33.312 36.6589 32.8528 36.5189C32.3917 36.3826 31.9619 36.1568 31.588 35.8544C31.2141 35.552 30.9035 35.1789 30.6738 34.7565C30.3825 34.2948 30.2126 33.767 30.1799 33.2221C30.1472 32.6771 30.2528 32.1328 30.4868 31.6396C30.5775 31.4129 30.6653 31.1721 30.7617 30.9341V30.9426ZM41.665 39.0266L41.631 39.0521C41.6416 39.0784 41.6539 39.1039 41.6678 39.1286C41.8662 39.4544 42.0759 39.7746 42.2629 40.109C42.5066 40.5805 42.8711 40.979 43.3191 41.2638C43.7671 41.5485 44.2826 41.7093 44.813 41.7297C45.4036 41.7924 46.0002 41.6962 46.5412 41.4511C47.0822 41.206 47.5479 40.8209 47.8902 40.3356C48.1846 39.8764 48.384 39.3629 48.4768 38.8254C48.5504 38.5222 48.6269 38.219 48.7034 37.9158C48.5682 38.1511 48.458 38.3999 48.3748 38.6582C48.1276 39.4469 47.5786 40.1059 46.8475 40.4915C46.3648 40.7671 45.8283 40.935 45.2747 40.9839C44.7211 41.0329 44.1634 40.9615 43.64 40.7748C42.9598 40.5239 42.3812 40.0559 41.9937 39.4431C41.8917 39.2901 41.7755 39.1569 41.665 39.0181V39.0266ZM54.1154 33.5862V33.6344C54.5433 33.6344 54.9655 33.6146 55.3933 33.6117C56.8838 33.6117 57.901 32.875 58.479 31.5376C58.6934 31.0923 58.7956 30.6013 58.7769 30.1075C58.7581 29.6136 58.6189 29.1319 58.3714 28.7041C58.1247 28.3281 57.8399 27.9787 57.5213 27.6614C57.3116 27.429 57.0708 27.2278 56.8441 27.0125C56.8896 27.1256 56.9527 27.2308 57.0311 27.3242C57.3084 27.6638 57.5586 28.0248 57.7792 28.4037C57.9777 28.8107 58.0884 29.2549 58.104 29.7074C58.1196 30.16 58.0398 30.6107 57.8698 31.0304C57.3598 32.4217 56.4276 33.3255 54.8918 33.4899C54.6255 33.4984 54.3705 33.5579 54.1154 33.5777V33.5862ZM32.4646 17.4069V17.3644C32.0141 17.3644 31.5607 17.3871 31.1102 17.3899C30.4726 17.3695 29.8441 17.5452 29.3095 17.8933C28.7749 18.2414 28.36 18.7451 28.1209 19.3365C27.5542 20.6003 27.6448 21.8243 28.5912 22.9039C28.8576 23.2099 29.1579 23.4706 29.4611 23.754L29.7048 23.9806C29.6244 23.8301 29.5295 23.6877 29.4214 23.5556C29.1704 23.2522 28.9484 22.9258 28.7584 22.5809C28.254 21.473 28.3929 20.3793 28.9567 19.3337C29.1711 18.8951 29.4813 18.5103 29.8643 18.2077C30.2473 17.9051 30.6934 17.6925 31.1697 17.5854C31.6004 17.5146 32.0368 17.4777 32.4646 17.4069ZM37.8313 13.1226H37.8681C37.9645 12.879 38.0721 12.6381 38.1515 12.3888C38.5878 11.0769 39.5371 10.3571 40.8461 10.088C41.3527 9.96076 41.8819 9.95317 42.3918 10.0658C42.9018 10.1784 43.3786 10.4081 43.7845 10.7368C44.1091 11.0452 44.4068 11.3808 44.6742 11.7399C44.7422 11.8164 44.8045 11.9014 44.8669 11.9807L44.9094 11.9439C44.7025 11.6039 44.4872 11.2667 44.2888 10.921C44.0145 10.3881 43.5892 9.94775 43.0662 9.65499C42.5431 9.36222 41.9454 9.22997 41.3477 9.27475C40.7836 9.27193 40.2285 9.41531 39.7364 9.69092C39.2443 9.96653 38.832 10.3649 38.5397 10.8473C38.3144 11.2564 38.1574 11.6996 38.075 12.1593C37.9928 12.4794 37.9135 12.8025 37.8313 13.1226ZM28.9539 23.5103L29.0276 23.4649C27.7525 22.3797 27.3501 21.0451 27.965 19.498C28.5799 17.9509 29.7813 17.2312 31.4474 17.2794C31.1329 17.2312 30.824 17.2057 30.518 17.1831C29.9791 17.1248 29.4342 17.2081 28.9373 17.4248C28.4404 17.6414 28.0086 17.9839 27.6845 18.4185C27.2366 18.9837 26.9947 19.6847 26.9988 20.4059C27.0029 21.1271 27.2528 21.8253 27.7072 22.3854C28.0976 22.7873 28.5141 23.1631 28.9539 23.5103ZM42.0022 39.8313L41.971 39.8794L42.039 40.0154C42.224 40.4432 42.438 40.8579 42.6794 41.2565C42.9928 41.6897 43.4092 42.0381 43.8909 42.2703C44.3726 42.5024 44.9045 42.611 45.4386 42.5863C45.9727 42.5615 46.4923 42.4042 46.9505 42.1285C47.4087 41.8529 47.791 41.4675 48.0631 41.0072C48.4428 40.3583 48.5079 39.6358 48.5986 38.916L48.5589 38.899C48.2444 40.5311 47.2725 41.5285 45.6348 41.7751C43.997 42.0216 42.7672 41.3217 42.0022 39.8313ZM44.5524 11.1619L44.5779 11.1165C44.4758 10.8955 44.371 10.6773 44.2718 10.4535C44.0377 9.84308 43.6199 9.32036 43.0761 8.95739C41.8775 8.21502 40.6761 8.25752 39.4775 8.95739C38.551 9.50143 37.8568 10.9663 37.9815 12.1139C38.3101 10.4818 39.282 9.47309 40.917 9.22941C42.5519 8.98573 43.7703 9.67427 44.5382 11.1732L44.5524 11.1619ZM52.3303 14.1427C53.8859 13.6185 55.2233 13.9529 56.2377 15.2336C57.2521 16.5144 57.2748 17.8999 56.4077 19.2997C56.4534 19.2721 56.4929 19.2355 56.5239 19.192C56.6713 18.988 56.8073 18.7783 56.9574 18.5715C57.2028 18.2279 57.3774 17.8389 57.471 17.4272C57.5646 17.0155 57.5753 16.5893 57.5025 16.1734C57.4297 15.7575 57.2749 15.3603 57.047 15.0049C56.8192 14.6494 56.5229 14.3428 56.1754 14.103C55.6016 13.7237 54.9275 13.5248 54.2397 13.5318C53.5519 13.5389 52.882 13.7517 52.3162 14.1427H52.3303ZM30.127 31.6963C30.1032 31.7158 30.0814 31.7377 30.0618 31.7614C29.8776 32.0278 29.6906 32.2885 29.5178 32.5633C29.1989 33.0258 29.0166 33.5686 28.9915 34.1298C28.9665 34.6909 29.0997 35.2478 29.3761 35.7369C29.6337 36.266 30.0374 36.7102 30.5396 37.017C31.0417 37.3238 31.6213 37.4804 32.2096 37.4681C32.9293 37.4681 33.564 37.1649 34.2101 36.9014C34.2101 36.9014 34.2101 36.8759 34.2412 36.8363C32.6743 37.3831 31.3369 37.0488 30.3225 35.768C29.3081 34.4873 29.2769 33.1017 30.127 31.6963ZM55.0958 33.6797V33.7336C55.4132 33.7562 55.7277 33.7846 56.0422 33.8044C56.5809 33.8636 57.1256 33.7777 57.6198 33.5555C58.1141 33.3333 58.5399 32.9829 58.8531 32.5407C59.1811 32.119 59.3979 31.6217 59.4835 31.0944C59.5692 30.5671 59.5209 30.0268 59.3433 29.523C59.0401 28.5936 58.292 28.0694 57.5411 27.5395C58.7907 28.6304 59.1761 29.965 58.564 31.5064C57.952 33.0479 56.7619 33.7591 55.1015 33.6911L55.0958 33.6797ZM47.3065 15.9732C47.213 15.7323 47.1478 15.6898 46.992 15.7663C46.8787 15.8173 46.924 15.8825 46.958 15.9533C47.0685 16.1772 47.1875 15.9902 47.3065 15.9732ZM36.7092 17.5486C36.9926 17.6364 37.0464 17.5996 37.0294 17.3049C36.7659 17.2369 36.7375 17.2567 36.7092 17.5486ZM39.2225 35.0285C39.3047 35.1872 39.3529 35.3288 39.5484 35.2382C39.6731 35.1815 39.6192 35.1107 39.5796 35.0341C39.4775 34.8216 39.3585 35.0143 39.2225 35.0285ZM33.0767 27.2703C33.1277 27.1428 33.3345 27.0635 33.1362 26.9162C33.0937 26.885 32.9832 26.8736 32.9577 26.9162C32.8018 27.0607 32.9321 27.1542 33.0767 27.2703ZM49.8397 33.4587C49.5563 33.3595 49.4798 33.4134 49.528 33.7052C49.7858 33.7477 49.8057 33.7336 49.8397 33.4587ZM53.4836 23.7568C53.2966 23.9353 53.2852 23.9778 53.3957 24.077C53.4552 24.1308 53.5147 24.2073 53.5997 24.1025C53.6847 23.9976 53.6904 23.9013 53.4836 23.7568ZM39.8006 35.5725C39.7439 35.2665 39.6844 35.2353 39.4577 35.394C39.5399 35.6292 39.5711 35.6434 39.8006 35.5725ZM32.7735 26.97C32.9605 26.7575 32.9605 26.7263 32.6771 26.5846C32.5496 26.7745 32.5581 26.8085 32.7735 26.97ZM46.72 15.4235C46.7908 15.5425 46.7597 15.738 46.975 15.6671C47.0203 15.6501 47.0798 15.5793 47.0742 15.5425C47.0543 15.4235 46.941 15.3696 46.72 15.4235ZM53.7754 24.0231C53.5771 24.2385 53.6026 24.3065 53.8803 24.4C54.0106 24.247 53.9426 24.1336 53.7754 24.0345V24.0231ZM37.1031 16.8912C36.8424 16.8742 36.8197 16.8912 36.8197 17.1576C37.0662 17.2284 37.1002 17.1972 37.1031 16.8912ZM32.8046 27.1938C32.6403 27.4035 32.646 27.4574 32.8471 27.5735C33.0512 27.3497 33.0455 27.2987 32.8046 27.1938ZM47.6947 15.8286C47.6097 15.6218 47.5275 15.5765 47.3802 15.6615C47.363 15.682 47.3511 15.7064 47.3456 15.7326C47.3402 15.7588 47.3414 15.786 47.349 15.8116C47.4397 16.0242 47.5587 15.8598 47.6947 15.8286ZM36.644 17.3021C36.3607 17.2681 36.338 17.2851 36.3182 17.5344C36.6072 17.5854 36.627 17.5713 36.644 17.3021ZM53.5346 23.6605C53.6139 23.7171 53.6762 23.7908 53.7442 23.7965C53.8123 23.8021 53.8661 23.686 53.8633 23.6265C53.8604 23.5669 53.7896 23.4848 53.7357 23.3856L53.5346 23.6605ZM39.2367 35.3147C39.1999 35.0313 39.095 35.0313 38.8768 35.1928C38.959 35.4025 38.9817 35.411 39.2367 35.3147ZM50.2449 33.4786C49.9615 33.4049 49.8963 33.4417 49.9275 33.6996C50.1854 33.7392 50.2052 33.7279 50.2449 33.4786ZM49.7348 33.8412C49.4515 33.7987 49.426 33.8412 49.4515 34.1246C49.698 34.1246 49.7207 34.1076 49.7348 33.8412ZM54.0616 24.315C53.9228 24.5218 53.9624 24.6153 54.1976 24.6663C54.3024 24.4907 54.2118 24.4 54.0616 24.3065V24.315ZM50.3072 33.6826C50.5736 33.7336 50.5906 33.7251 50.6472 33.5154C50.3922 33.4332 50.3639 33.4474 50.3072 33.6826ZM48.0631 15.6558C47.9469 15.4801 47.8817 15.4716 47.7004 15.6048C47.7996 15.8031 47.8449 15.8088 48.0631 15.6558ZM39.9677 35.9437C39.9394 35.6802 39.8629 35.632 39.6532 35.7425C39.7014 35.887 39.7609 36.0032 39.9677 35.9437ZM49.8113 34.0538C50.055 34.0793 50.0947 34.0538 50.0947 33.8214C49.851 33.7874 49.851 33.7874 49.8113 34.0538ZM49.6442 34.2181C49.392 34.2181 49.3608 34.2663 49.4062 34.5014C49.6187 34.5326 49.6328 34.3881 49.6442 34.2181ZM37.1512 16.4804C36.9302 16.4804 36.8991 16.6164 36.9132 16.7864C37.1541 16.7864 37.1739 16.7609 37.1512 16.4804ZM36.2445 17.3304C36.0093 17.2511 35.9612 17.2794 35.9045 17.4891C36.1538 17.5656 36.1737 17.5571 36.2445 17.3304ZM46.8928 15.2619C46.8333 15.0976 46.7568 14.9786 46.5698 15.0693C46.6236 15.3271 46.6803 15.3611 46.8928 15.2619ZM53.9511 23.7086C53.7782 23.907 53.7867 23.9693 54.0163 24.0713C54.0441 24.0468 54.0651 24.0156 54.0773 23.9806C54.0895 23.9456 54.0925 23.9081 54.0859 23.8716C54.0794 23.8351 54.0635 23.801 54.0399 23.7724C54.0163 23.7439 53.9857 23.7219 53.9511 23.7086ZM32.3513 26.3381C32.2521 26.511 32.3371 26.6045 32.4788 26.6838C32.629 26.4996 32.595 26.409 32.3513 26.3381ZM53.9596 23.0739C53.7442 23.2609 53.7414 23.3403 53.9596 23.4479C54.0559 23.3318 54.1069 23.2099 53.9596 23.0739ZM39.4407 35.6264C39.35 35.3798 39.3132 35.3685 39.0922 35.4903C39.1489 35.666 39.2594 35.7114 39.4407 35.6264ZM36.4344 17.1717C36.6894 17.2199 36.7177 17.1916 36.7177 16.9422C36.5392 16.8997 36.4457 16.9705 36.4344 17.1717ZM47.4397 15.517C47.3632 15.3073 47.2952 15.2846 47.1082 15.398C47.2073 15.6275 47.2272 15.636 47.4397 15.517ZM32.5978 27.9305C32.7961 27.701 32.7933 27.6755 32.5978 27.5509C32.493 27.6699 32.4363 27.7889 32.5978 27.9305ZM32.5411 26.9275C32.4136 27.1343 32.425 27.1825 32.6091 27.276C32.7621 27.089 32.7565 27.0578 32.5411 26.9275ZM38.857 35.411C38.7295 35.1957 38.6898 35.19 38.4773 35.3572C38.5793 35.5413 38.7068 35.5073 38.857 35.411ZM32.2974 26.664C32.1784 26.8141 32.1926 26.8878 32.3683 27.004C32.5015 26.8595 32.4335 26.7575 32.2974 26.664ZM54.1664 22.7282C54.0814 22.8671 53.9313 22.9719 54.1381 23.1164C54.2118 22.9974 54.3138 22.8926 54.1664 22.7282ZM38.0891 35.479C38.211 35.6632 38.3356 35.598 38.4717 35.5357C38.3838 35.309 38.2506 35.4167 38.0891 35.4733V35.479ZM32.4165 27.8909C32.3229 28.0184 32.2323 28.1261 32.3739 28.2791C32.459 28.1459 32.6063 28.0524 32.4165 27.8909ZM32.0453 26.0774C31.9744 26.2644 32.0453 26.3608 32.2096 26.4118C32.3399 26.1908 32.1756 26.1454 32.0453 26.0661V26.0774ZM35.8393 17.3162C35.6806 17.2964 35.5361 17.2596 35.4936 17.4636C35.7373 17.5174 35.7487 17.5117 35.8393 17.3162ZM48.4626 15.517C48.3266 15.3583 48.2076 15.4008 48.0744 15.483C48.1906 15.7068 48.3153 15.5736 48.4626 15.517ZM46.448 14.6669L46.397 14.7236C46.4706 14.9899 46.4706 14.9899 46.7285 14.9191L46.448 14.6669ZM54.3365 24.604C54.2061 24.8137 54.3733 24.8534 54.498 24.9355C54.5688 24.7514 54.4951 24.6607 54.3365 24.604ZM39.8856 36.0684C39.9167 36.2384 39.9819 36.3347 40.1859 36.2979C40.1038 36.1675 40.1094 35.989 39.8714 36.0684H39.8856ZM37.0067 16.401C37.2334 16.384 37.2306 16.2423 37.2277 16.0922C37.0209 16.0978 37.0181 16.2395 37.0067 16.401ZM39.3104 35.7907C39.384 35.9494 39.4832 36.0032 39.6447 35.9352C39.5767 35.785 39.5059 35.6717 39.3104 35.7907ZM50.1854 34.0028C50.4262 34.0226 50.4489 34.0028 50.4687 33.8072C50.31 33.7704 50.1939 33.7987 50.1854 34.0028ZM36.5675 16.8402C36.7829 16.8742 36.8311 16.7637 36.8254 16.588C36.644 16.5569 36.5732 16.6589 36.5675 16.8402ZM49.9814 34.1756C49.7462 34.1756 49.7235 34.2039 49.7377 34.4278C49.9162 34.4419 49.9615 34.3343 49.9814 34.1671V34.1756ZM32.3938 27.276C32.2578 27.463 32.2691 27.5395 32.4391 27.599C32.5581 27.4744 32.5553 27.3667 32.3938 27.276ZM47.2215 15.2138C47.1535 15.0608 47.0628 14.9956 46.9042 15.0608C47.0033 15.2818 47.0232 15.2931 47.23 15.2138H47.2215ZM36.032 17.1236L36.0688 17.1887C36.304 17.2256 36.3295 17.2086 36.3522 16.9337L36.032 17.1236ZM47.8166 15.4235C47.74 15.2449 47.6239 15.2563 47.4794 15.3214C47.5502 15.5113 47.6635 15.517 47.8166 15.4235ZM54.2118 23.3941H54.1381C53.9879 23.5584 53.9908 23.6038 54.2146 23.754L54.2118 23.3941ZM50.7266 33.6741C50.9787 33.7222 51.0099 33.7081 51.0382 33.5352C50.8116 33.4842 50.7946 33.4899 50.7152 33.6741H50.7266ZM39.0724 35.6859C38.9788 35.4847 38.9363 35.4733 38.755 35.5952C38.84 35.7539 38.8627 35.7595 39.061 35.6859H39.0724ZM54.2599 24.3518C54.3761 24.1847 54.362 24.1223 54.1863 24.0231C54.0389 24.1535 54.1324 24.2442 54.2486 24.3462L54.2599 24.3518ZM49.5308 34.6233C49.341 34.6233 49.3041 34.6828 49.3438 34.9066C49.5138 34.867 49.5252 34.8528 49.5308 34.6233ZM36.2105 16.8402L36.2814 16.9224L36.5137 16.7155L36.457 16.6475L36.2105 16.8402ZM32.2804 27.6302H32.2039V27.939H32.2634C32.3343 27.8455 32.3938 27.7464 32.2804 27.6302ZM32.0651 26.7206C32.2238 26.5506 32.1331 26.477 31.9688 26.4373L32.0651 26.7206ZM48.1594 15.3271V15.2534L47.8534 15.2223C47.9384 15.4235 48.0461 15.3923 48.1594 15.3271ZM46.9807 14.9219L47.0147 14.8596L46.7568 14.7151C46.8078 14.9474 46.8135 14.9503 46.9807 14.9219ZM54.4951 24.2952H54.4073C54.3308 24.4255 54.4073 24.5077 54.583 24.604L54.4951 24.2952ZM38.6785 35.7907V35.7142C38.5878 35.5838 38.4802 35.615 38.3583 35.7397L38.6785 35.7907ZM39.7892 36.2894C39.7892 36.1052 39.7071 36.006 39.5626 36.0712L39.5257 36.1392L39.7892 36.2894ZM40.1406 36.3971L40.0641 36.4679L40.2709 36.6747L40.3219 36.6266L40.1406 36.3971ZM54.2656 23.3629H54.3393L54.3591 23.0513H54.2996C54.2118 23.1561 54.1523 23.2553 54.2656 23.3743V23.3629ZM35.3831 17.2964L35.0998 17.3729L35.1196 17.4494C35.2273 17.4437 35.3491 17.5372 35.3831 17.2964ZM37.0832 15.9477L37.1456 15.9845C37.3156 15.9562 37.2759 15.8286 37.2731 15.7153L37.2192 15.687L37.0832 15.9477ZM54.3676 23.6973H54.2911C54.1891 23.8163 54.2458 23.9041 54.4101 23.9806L54.3676 23.6973ZM49.596 34.7196L49.6867 34.799L49.8652 34.5638L49.783 34.4986L49.596 34.7196ZM39.0157 35.8247L38.9845 35.8984L39.2679 36.0032C39.2282 35.8247 39.1574 35.7454 39.0157 35.8247ZM50.5707 33.9376L50.6076 33.9999L50.8597 33.8611L50.8286 33.8016C50.7124 33.7817 50.5991 33.7761 50.5707 33.9319V33.9376ZM46.4055 14.6244L46.4848 14.5422L46.2751 14.3354L46.2071 14.4034L46.4055 14.6244ZM54.7926 25.2075C54.8096 24.9837 54.7728 24.9384 54.5745 24.9242L54.7926 25.2075ZM32.1104 28.5568H32.1728C32.3229 28.3726 32.3229 28.3726 32.1898 28.2281L32.1104 28.5568ZM48.7998 15.4235C48.6864 15.2591 48.5844 15.2988 48.4881 15.381V15.449L48.7998 15.4235ZM32.1728 27.3242H32.2549C32.3513 27.208 32.3088 27.1145 32.1359 26.9927L32.1728 27.3242ZM51.1573 33.7251L51.4406 33.6372C51.2253 33.5126 51.2139 33.5154 51.1686 33.7081L51.1573 33.7251ZM49.4572 35.0738L49.3863 35.0313C49.2418 35.0681 49.2475 35.1815 49.3211 35.3147L49.4572 35.0738ZM37.7548 35.5867V35.6944L38.0608 35.6689V35.5668L37.7548 35.5867ZM36.9444 16.2735L36.8481 16.2055L36.6922 16.4435L36.7744 16.503L36.9444 16.2735ZM35.9952 17.1236L35.947 17.0159L35.6891 17.1349L35.7288 17.2284L35.9952 17.1236ZM54.2628 22.7226L54.3166 22.7396C54.464 22.6121 54.4725 22.5667 54.362 22.3939L54.2628 22.7226ZM31.8781 26.1228L31.9603 26.0661L31.7789 25.8338L31.7166 25.8791L31.8781 26.1228ZM50.0579 34.2663L50.1089 34.3343L50.3299 34.1614L50.276 34.0963L50.0579 34.2663ZM47.57 15.1033L47.2867 15.0126L47.2669 15.0693C47.3349 15.1826 47.4114 15.2648 47.5615 15.1061L47.57 15.1033Z" fill="#8D8DFF"/>
<path d="M33.8759 25.5051C33.8759 20.4189 37.8654 16.7354 43.3171 16.7354C48.7688 16.7354 52.7272 20.4189 52.7272 25.4739C52.7272 30.5289 48.7603 34.3059 43.2859 34.3059C37.8116 34.3059 33.8759 30.5912 33.8759 25.5051ZM47.641 25.5051C47.641 22.7934 45.8134 21.0281 43.2859 21.0281C40.7584 21.0281 38.962 22.7906 38.962 25.4427C38.962 28.1827 40.7896 29.9763 43.3171 29.9763C45.8446 29.9763 47.641 28.1742 47.641 25.5051Z" fill="#080876"/>
</g>
<defs>
<clipPath id="clip0_1_3254">
<rect width="109.373" height="34.2854" fill="white" transform="translate(14.8262 8.3396)"/>
</clipPath>
</defs>
</svg>
