<svg width="138" height="50" viewBox="0 0 138 50" fill="none" xmlns="http://www.w3.org/2000/svg">
<g clip-path="url(#clip0_1_3248)">
<path d="M39.5377 27.8198C39.5358 27.933 39.4891 28.0409 39.4079 28.1198C39.3267 28.1988 39.2176 28.2423 39.1044 28.2411H31.1239C31.3285 30.2151 32.8091 32.0206 34.9035 32.0206C36.3358 32.0206 37.3951 31.479 38.1896 30.3354C38.2266 30.2754 38.2777 30.2253 38.3386 30.1896C38.3995 30.1539 38.4682 30.1337 38.5387 30.1308C38.5912 30.1293 38.6435 30.1386 38.6924 30.158C38.7413 30.1774 38.7857 30.2066 38.8229 30.2438C38.86 30.281 38.8892 30.3254 38.9087 30.3743C38.9281 30.4231 38.9374 30.4755 38.9359 30.528C38.9361 30.6006 38.9152 30.6718 38.8757 30.7327C38.0692 32.1289 36.4683 32.8151 34.9035 32.8151C32.2192 32.8151 30.2933 30.4077 30.2933 27.8438C30.2933 25.2799 32.2073 22.8726 34.9035 22.8726C37.5997 22.8726 39.5257 25.2559 39.5377 27.8198H39.5377ZM38.6831 27.4466C38.5145 25.4725 36.9979 23.667 34.9035 23.667C32.8091 23.667 31.3285 25.4725 31.1239 27.4466H38.6831Z" fill="#080876"/>
<path d="M49.2391 23.0652C49.3435 23.0682 49.4428 23.111 49.5166 23.1849C49.5905 23.2587 49.6333 23.358 49.6363 23.4624C49.6378 23.5149 49.6286 23.5673 49.6091 23.6161C49.5897 23.665 49.5605 23.7094 49.5233 23.7466C49.4861 23.7838 49.4417 23.813 49.3929 23.8324C49.344 23.8518 49.2917 23.8611 49.2391 23.8596H47.0965V32.2735C47.0956 32.3785 47.0534 32.479 46.9792 32.5533C46.9049 32.6276 46.8044 32.6697 46.6993 32.6707C46.5949 32.6677 46.4956 32.6248 46.4218 32.551C46.348 32.4771 46.3051 32.3779 46.3021 32.2735V23.8596H44.2437C44.1912 23.8611 44.1389 23.8518 44.09 23.8324C44.0411 23.813 43.9967 23.7838 43.9595 23.7466C43.9224 23.7094 43.8932 23.665 43.8737 23.6161C43.8543 23.5673 43.845 23.5149 43.8465 23.4624C43.8475 23.3573 43.8896 23.2568 43.9639 23.1825C44.0382 23.1083 44.1387 23.0661 44.2437 23.0652H46.3021V19.9958C46.3023 19.8941 46.3388 19.7958 46.405 19.7185C46.4712 19.6413 46.5627 19.5902 46.6632 19.5745C46.7194 19.567 46.7765 19.5718 46.8307 19.5884C46.8848 19.6051 46.9347 19.6332 46.977 19.6709C47.0193 19.7086 47.053 19.755 47.0757 19.8069C47.0984 19.8588 47.1096 19.915 47.1086 19.9717V23.0652L49.2391 23.0652Z" fill="#080876"/>
<path d="M62.2998 27.1337V32.2253C62.2967 32.3297 62.2539 32.429 62.1801 32.5028C62.1062 32.5767 62.0069 32.6195 61.9025 32.6225C61.85 32.624 61.7977 32.6148 61.7488 32.5953C61.6999 32.5759 61.6555 32.5467 61.6183 32.5095C61.5812 32.4723 61.5519 32.4279 61.5325 32.3791C61.5131 32.3302 61.5038 32.2779 61.5053 32.2253V27.1337C61.5053 25.4123 60.5303 23.7031 58.6165 23.7031C56.1609 23.7031 55.1017 25.8457 55.2462 28.0484C55.2462 28.1086 55.2702 28.3614 55.2702 28.3975V32.2132C55.27 32.3149 55.2335 32.4132 55.1674 32.4904C55.1012 32.5677 55.0096 32.6187 54.9091 32.6345C54.8529 32.642 54.7958 32.6372 54.7417 32.6206C54.6875 32.6039 54.6376 32.5758 54.5953 32.5381C54.553 32.5004 54.5194 32.454 54.4967 32.402C54.474 32.3501 54.4627 32.2939 54.4637 32.2373V15.4939C54.4647 15.3888 54.5068 15.2884 54.5811 15.2141C54.6554 15.1398 54.7559 15.0976 54.861 15.0967C54.9654 15.0997 55.0646 15.1425 55.1385 15.2164C55.2123 15.2902 55.2552 15.3895 55.2582 15.4939V24.9548C55.9443 23.7271 57.1721 22.8965 58.6045 22.8965C60.9638 22.8965 62.2999 24.9548 62.2999 27.1335L62.2998 27.1337Z" fill="#080876"/>
<path d="M76.6353 27.8198C76.6334 27.933 76.5867 28.0409 76.5055 28.1198C76.4243 28.1988 76.3152 28.2423 76.202 28.2411H68.2215C68.4261 30.2151 69.9067 32.0206 72.001 32.0206C73.4334 32.0206 74.4927 31.479 75.2872 30.3354C75.3242 30.2754 75.3753 30.2253 75.4362 30.1896C75.4971 30.1539 75.5658 30.1337 75.6362 30.1308C75.6888 30.1293 75.7411 30.1386 75.79 30.158C75.8389 30.1774 75.8833 30.2066 75.9205 30.2438C75.9576 30.281 75.9868 30.3254 76.0063 30.3743C76.0257 30.4231 76.035 30.4755 76.0335 30.528C76.0337 30.6006 76.0128 30.6718 75.9733 30.7327C75.1668 32.1289 73.5659 32.8151 72.0011 32.8151C69.3168 32.8151 67.3909 30.4077 67.3909 27.8438C67.3909 25.2799 69.3048 22.8726 72.0011 22.8726C74.6733 22.8726 76.6233 25.2559 76.6353 27.8198H76.6353ZM75.7686 27.4466C75.6001 25.4725 74.0834 23.667 71.989 23.667C69.8946 23.667 68.414 25.4725 68.2094 27.4466H75.7686Z" fill="#080876"/>
<path d="M86.4454 23.4382C86.453 23.5451 86.4181 23.6506 86.3481 23.7318C86.2782 23.813 86.179 23.8633 86.0722 23.8716C83.725 24.2206 82.6658 26.1345 82.6658 28.3613V32.177C82.6656 32.2787 82.6291 32.377 82.5629 32.4543C82.4967 32.5315 82.4052 32.5826 82.3047 32.5983C82.2485 32.6058 82.1914 32.601 82.1372 32.5844C82.0831 32.5677 82.0332 32.5396 81.9909 32.5019C81.9486 32.4642 81.9149 32.4178 81.8922 32.3659C81.8695 32.314 81.8583 32.2578 81.8593 32.2011V23.4983C81.8595 23.3966 81.896 23.2983 81.9622 23.221C82.0284 23.1438 82.1199 23.0927 82.2204 23.077C82.2766 23.0695 82.3337 23.0743 82.3879 23.0909C82.442 23.1076 82.492 23.1357 82.5342 23.1734C82.5765 23.2111 82.6102 23.2575 82.6329 23.3094C82.6556 23.3613 82.6668 23.4175 82.6658 23.4742V25.2436C83.3278 24.1242 84.6399 23.0649 86.0121 23.0649C86.2167 23.0649 86.4454 23.2094 86.4454 23.4381L86.4454 23.4382Z" fill="#080876"/>
<path d="M99.5667 27.8198C99.5648 27.933 99.5182 28.0409 99.437 28.1198C99.3558 28.1988 99.2466 28.2423 99.1334 28.2411H91.1529C91.3576 30.2151 92.8381 32.0206 94.9325 32.0206C96.3649 32.0206 97.4242 31.479 98.2186 30.3354C98.2556 30.2754 98.3068 30.2253 98.3677 30.1896C98.4285 30.1539 98.4972 30.1337 98.5677 30.1308C98.6203 30.1293 98.6726 30.1386 98.7215 30.158C98.7703 30.1774 98.8147 30.2066 98.8519 30.2438C98.8891 30.281 98.9183 30.3254 98.9377 30.3743C98.9572 30.4231 98.9664 30.4755 98.9649 30.528C98.9652 30.6006 98.9443 30.6718 98.9047 30.7327C98.0983 32.1289 96.4974 32.8151 94.9326 32.8151C92.2483 32.8151 90.3224 30.4077 90.3224 27.8438C90.3224 25.2799 92.2363 22.8726 94.9326 22.8726C97.6288 22.8726 99.5548 25.2559 99.5668 27.8198H99.5667ZM98.7121 27.4466C98.5436 25.4725 97.0269 23.667 94.9325 23.667C92.8381 23.667 91.3575 25.4725 91.153 27.4466H98.7121Z" fill="#080876"/>
<path d="M112.47 23.5348V32.2736C112.467 32.378 112.424 32.4773 112.35 32.5511C112.276 32.625 112.177 32.6678 112.073 32.6708C112.02 32.6723 111.968 32.6631 111.919 32.6436C111.87 32.6242 111.826 32.595 111.789 32.5578C111.751 32.5206 111.722 32.4762 111.703 32.4274C111.683 32.3785 111.674 32.3262 111.676 32.2736V30.6125C111.014 31.9246 109.846 32.8755 108.353 32.8755C105.982 32.8755 104.67 30.8171 104.67 28.6384V23.5228C104.671 23.4177 104.713 23.3172 104.787 23.2429C104.862 23.1686 104.962 23.1265 105.067 23.1255C105.172 23.1286 105.271 23.1714 105.345 23.2452C105.419 23.3191 105.461 23.4184 105.464 23.5228V28.6384C105.464 30.3598 106.439 32.069 108.353 32.069C111.038 32.069 111.676 29.5533 111.676 26.7727V23.5107C111.676 23.4463 111.693 23.3831 111.723 23.3263C111.753 23.2695 111.797 23.2207 111.85 23.1842C111.903 23.1477 111.964 23.1244 112.028 23.1163C112.092 23.1081 112.157 23.1154 112.217 23.1376C112.293 23.1727 112.357 23.2288 112.402 23.2992C112.446 23.3696 112.47 23.4513 112.47 23.5348L112.47 23.5348Z" fill="#080876"/>
<path d="M132.68 27.0977V32.2133C132.677 32.3177 132.635 32.417 132.561 32.4909C132.487 32.5647 132.388 32.6075 132.283 32.6106C132.231 32.6121 132.178 32.6028 132.129 32.5834C132.081 32.5639 132.036 32.5347 131.999 32.4976C131.962 32.4604 131.933 32.416 131.913 32.3671C131.894 32.3182 131.885 32.2659 131.886 32.2133V27.0977C131.886 25.3763 130.911 23.6912 128.997 23.6912C126.59 23.6912 125.675 26.2672 125.675 28.2653V32.2134C125.672 32.3178 125.629 32.4171 125.555 32.491C125.481 32.5648 125.382 32.6076 125.278 32.6107C125.225 32.6121 125.173 32.6029 125.124 32.5835C125.075 32.564 125.031 32.5348 124.993 32.4976C124.956 32.4605 124.927 32.4161 124.908 32.3672C124.888 32.3183 124.879 32.266 124.88 32.2134V27.0977C124.88 25.3764 123.905 23.6913 121.992 23.6913C119.56 23.6913 118.561 25.6052 118.645 28.157C118.645 28.2172 118.669 28.3256 118.645 28.3617V32.2015C118.645 32.3032 118.609 32.4015 118.542 32.4787C118.476 32.556 118.385 32.607 118.284 32.6228C118.228 32.6302 118.171 32.6255 118.117 32.6089C118.063 32.5922 118.013 32.5641 117.97 32.5264C117.928 32.4886 117.894 32.4422 117.872 32.3903C117.849 32.3384 117.838 32.2822 117.839 32.2256V23.4988C117.839 23.3971 117.876 23.2988 117.942 23.2216C118.008 23.1443 118.1 23.0932 118.2 23.0775C118.256 23.07 118.313 23.0748 118.367 23.0914C118.422 23.1081 118.472 23.1362 118.514 23.1739C118.556 23.2116 118.59 23.258 118.612 23.3099C118.635 23.3619 118.646 23.4181 118.645 23.4747V24.9312C119.331 23.7034 120.559 22.897 121.992 22.897C123.617 22.897 124.88 23.9321 125.398 25.4368C126.06 23.9442 127.348 22.897 128.997 22.897C131.344 22.897 132.68 24.9312 132.68 27.0979L132.68 27.0977Z" fill="#080876"/>
<path opacity="0.6" d="M14.5151 22.4705L7.41315 25.6963L14.5151 29.8975L21.6255 25.6963L14.5151 22.4705Z" fill="#080876"/>
<path opacity="0.45" d="M7.41315 25.6961L14.5151 29.8974V13.9053L7.41315 25.6961Z" fill="#080876"/>
<path opacity="0.8" d="M14.5151 13.9053V29.8974L21.6255 25.6961L14.5151 13.9053Z" fill="#080876"/>
<path opacity="0.45" d="M7.41315 27.0481L14.5151 37.0592V31.2408L7.41315 27.0481Z" fill="#080876"/>
<path opacity="0.8" d="M14.5151 31.2408V37.0592L21.6255 27.0481L14.5151 31.2408Z" fill="#080876"/>
</g>
<defs>
<clipPath id="clip0_1_3248">
<rect width="125.267" height="23.1658" fill="white" transform="translate(7.41309 13.8994)"/>
</clipPath>
</defs>
</svg>
