<svg width="155" height="50" viewBox="0 0 155 50" fill="none" xmlns="http://www.w3.org/2000/svg">
<g clip-path="url(#clip0_1_3246)">
<path d="M33.2189 30.4035L30.081 33.7681C30.0131 33.8412 29.9309 33.8995 29.8395 33.9394C29.7481 33.9793 29.6494 34 29.5497 34.0001H14.6747C14.6038 34 14.5344 33.9793 14.475 33.9404C14.4157 33.9016 14.3689 33.8462 14.3406 33.7812C14.3122 33.7162 14.3034 33.6443 14.3152 33.5743C14.3271 33.5044 14.3591 33.4394 14.4073 33.3874L17.5417 30.0228C17.6096 29.9497 17.6917 29.8914 17.7832 29.8515C17.8745 29.8116 17.9732 29.7909 18.0729 29.7908H32.9479C33.0195 29.7893 33.09 29.8091 33.1503 29.8475C33.2107 29.886 33.2585 29.9414 33.2874 30.0069C33.3164 30.0724 33.3253 30.145 33.3131 30.2156C33.3009 30.2862 33.2681 30.3516 33.2189 30.4035ZM30.081 23.6265C30.0128 23.5538 29.9306 23.4957 29.8392 23.4558C29.7479 23.4159 29.6494 23.3951 29.5497 23.3946H14.6747C14.6038 23.3946 14.5344 23.4153 14.475 23.4542C14.4157 23.4931 14.3689 23.5484 14.3406 23.6134C14.3122 23.6785 14.3034 23.7503 14.3152 23.8203C14.3271 23.8902 14.3591 23.9552 14.4073 24.0073L17.5417 27.3736C17.6098 27.4464 17.6921 27.5045 17.7834 27.5444C17.8747 27.5842 17.9733 27.6051 18.0729 27.6056H32.9479C33.0188 27.6052 33.0878 27.5842 33.147 27.5452C33.2061 27.5062 33.2525 27.4509 33.2807 27.3859C33.3088 27.321 33.3175 27.2492 33.3055 27.1794C33.2936 27.1096 33.2617 27.0448 33.2136 26.9929L30.081 23.6265ZM14.6747 21.2093H29.5497C29.6494 21.2093 29.7481 21.1886 29.8395 21.1487C29.9309 21.1088 30.0131 21.0504 30.081 20.9774L33.2189 17.6128C33.2681 17.5608 33.3009 17.4954 33.3131 17.4249C33.3253 17.3543 33.3164 17.2817 33.2874 17.2162C33.2585 17.1507 33.2107 17.0952 33.1503 17.0568C33.09 17.0183 33.0195 16.9986 32.9479 17.0001H18.0729C17.9732 17.0002 17.8745 17.0208 17.7832 17.0607C17.6917 17.1007 17.6096 17.159 17.5417 17.2321L14.4073 20.5966C14.3591 20.6487 14.3271 20.7137 14.3152 20.7836C14.3034 20.8536 14.3122 20.9254 14.3406 20.9905C14.3689 21.0555 14.4157 21.1108 14.475 21.1497C14.5344 21.1886 14.6038 21.2093 14.6747 21.2093Z" fill="url(#paint0_linear_1_3246)"/>
<path d="M51.354 24.1897H43.3959V21.5689H53.4223V18.948H43.3693C43.0258 18.9462 42.6854 19.012 42.3674 19.1417C42.0493 19.2714 41.7598 19.4625 41.5158 19.7041C41.2716 19.9456 41.0773 20.2329 40.9442 20.5495C40.811 20.8662 40.7414 21.2059 40.7396 21.5494V24.2056C40.741 24.5494 40.8101 24.8896 40.9431 25.2066C41.0761 25.5236 41.2702 25.8113 41.5144 26.0532C41.7587 26.2952 42.0483 26.4866 42.3665 26.6165C42.6847 26.7465 43.0256 26.8124 43.3693 26.8105H51.3381V29.4314H40.9291V32.0522H51.354C51.6975 32.0541 52.0379 31.9883 52.3559 31.8585C52.674 31.7288 52.9633 31.5377 53.2075 31.2962C53.4517 31.0546 53.646 30.7673 53.7792 30.4507C53.9123 30.1341 53.9819 29.7943 53.9837 29.4508V26.7946C53.9823 26.4508 53.9132 26.1107 53.7802 25.7937C53.6472 25.4766 53.4531 25.1889 53.2089 24.947C52.9646 24.7051 52.675 24.5137 52.3568 24.3837C52.0386 24.2538 51.6977 24.1878 51.354 24.1897Z" fill="#09032F"/>
<path d="M66.7709 18.9481H58.7826C58.4386 18.9453 58.0973 19.0104 57.7784 19.1397C57.4597 19.269 57.1694 19.4599 56.9245 19.7016C56.6794 19.9433 56.4846 20.2309 56.3511 20.5479C56.2174 20.865 56.1476 21.2054 56.1459 21.5494V29.4509C56.1476 29.795 56.2174 30.1353 56.3511 30.4524C56.4846 30.7695 56.6794 31.0571 56.9245 31.2987C57.1694 31.5404 57.4597 31.7313 57.7784 31.8606C58.0973 31.9899 58.4386 32.055 58.7826 32.0523H66.7709C67.1144 32.0541 67.4548 31.9883 67.7728 31.8586C68.0909 31.7289 68.3804 31.5378 68.6244 31.2962C68.8686 31.0547 69.0629 30.7674 69.196 30.4507C69.3292 30.1341 69.3988 29.7944 69.4006 29.4509V21.5494C69.3988 21.206 69.3292 20.8662 69.196 20.5496C69.0629 20.233 68.8686 19.9457 68.6244 19.7041C68.3804 19.4626 68.0909 19.2715 67.7728 19.1417C67.4548 19.012 67.1144 18.9462 66.7709 18.9481ZM66.7514 29.4314H58.8021V21.5689H66.7479L66.7514 29.4314Z" fill="#09032F"/>
<path d="M94.75 18.9479H86.9584C86.6148 18.9461 86.2745 19.0119 85.9564 19.1416C85.6384 19.2713 85.3489 19.4624 85.1048 19.704C84.8606 19.9455 84.6664 20.2328 84.5332 20.5495C84.4 20.8661 84.3304 21.2058 84.3287 21.5493V32.0521H86.9849V27.7472H94.7412V32.0521H97.3974V21.5493C97.3957 21.2043 97.3255 20.8631 97.1913 20.5453C97.0569 20.2276 96.8612 19.9395 96.6151 19.6977C96.3691 19.4559 96.0776 19.2652 95.7575 19.1365C95.4373 19.0078 95.095 18.9438 94.75 18.9479ZM94.7306 25.1264H86.9743V21.5688H94.7306V25.1264Z" fill="#09032F"/>
<path d="M125.766 18.948H117.974C117.631 18.9462 117.291 19.012 116.973 19.1417C116.654 19.2714 116.365 19.4625 116.121 19.7041C115.877 19.9456 115.682 20.2329 115.549 20.5495C115.416 20.8662 115.347 21.2059 115.345 21.5494V32.0522H118.001V27.7473H125.74V32.0522H128.396V21.5494C128.394 21.2059 128.324 20.8662 128.191 20.5495C128.058 20.2329 127.864 19.9456 127.62 19.7041C127.375 19.4625 127.086 19.2714 126.768 19.1417C126.45 19.012 126.11 18.9462 125.766 18.948ZM125.74 25.1265H117.983V21.5689H125.74V25.1265Z" fill="#09032F"/>
<path d="M110.333 29.4314H109.271L105.472 20.0459C105.342 19.7221 105.118 19.4446 104.829 19.249C104.54 19.0534 104.199 18.9486 103.85 18.948H101.493C101.264 18.9469 101.037 18.9908 100.825 19.0774C100.613 19.164 100.42 19.2915 100.257 19.4526C100.095 19.6138 99.9651 19.8054 99.8764 20.0166C99.7877 20.2278 99.7415 20.4544 99.7402 20.6834V32.0522H102.396V21.5689H103.459L107.256 30.9543C107.388 31.2774 107.614 31.5538 107.904 31.7481C108.194 31.9424 108.536 32.0458 108.885 32.0451H111.242C111.471 32.0463 111.698 32.0023 111.91 31.9157C112.122 31.8292 112.315 31.7016 112.478 31.5405C112.641 31.3793 112.77 31.1877 112.859 30.9765C112.947 30.7653 112.994 30.5388 112.995 30.3097V18.948H110.333V29.4314Z" fill="#09032F"/>
<path d="M74.4031 18.948H71.7469V29.4508C71.7487 29.795 71.8186 30.1355 71.9523 30.4527C72.086 30.7699 72.281 31.0576 72.5261 31.2993C72.7711 31.541 73.0617 31.7319 73.3807 31.8611C73.6998 31.9903 74.0412 32.0552 74.3854 32.0522H82.3542V29.4313H74.4031V18.948Z" fill="#09032F"/>
</g>
<defs>
<linearGradient id="paint0_linear_1_3246" x1="15.9143" y1="34.4056" x2="31.5118" y2="16.8212" gradientUnits="userSpaceOnUse">
<stop offset="0.08" stop-color="#9945FF"/>
<stop offset="0.3" stop-color="#8752F3"/>
<stop offset="0.5" stop-color="#5497D5"/>
<stop offset="0.6" stop-color="#43B4CA"/>
<stop offset="0.72" stop-color="#28E0B9"/>
<stop offset="0.97" stop-color="#19FB9B"/>
</linearGradient>
<clipPath id="clip0_1_3246">
<rect width="114.396" height="17" fill="white" transform="translate(14 17)"/>
</clipPath>
</defs>
</svg>
