<svg width="138" height="50" viewBox="0 0 138 50" fill="none" xmlns="http://www.w3.org/2000/svg">
<g clip-path="url(#clip0_1_3244)">
<path d="M44.4604 25.9829V32.4473C44.4581 32.8505 44.3512 33.2461 44.1501 33.5956C43.9491 33.945 43.6608 34.2363 43.3135 34.441L37.7134 37.6667C37.3665 37.8734 36.9702 37.9826 36.5664 37.9826C36.1627 37.9826 35.7663 37.8734 35.4195 37.6667L29.8194 34.441C29.472 34.2363 29.1838 33.945 28.9827 33.5956C28.7817 33.2461 28.6748 32.8505 28.6725 32.4473V30.6329L31.5397 28.9685V32.1226L36.5575 35.0346L41.5752 32.1226V26.3118L36.5575 23.3998L24.8015 30.2097C24.4514 30.407 24.0564 30.5106 23.6545 30.5106C23.2528 30.5106 22.8578 30.407 22.5077 30.2097L16.9075 26.9706C16.5655 26.7628 16.2828 26.4704 16.0866 26.1216C15.8904 25.7728 15.7874 25.3794 15.7875 24.9792V18.5141C15.7898 18.111 15.8967 17.7154 16.0978 17.3659C16.2988 17.0164 16.5871 16.7252 16.9344 16.5205L22.5345 13.2948C22.8821 13.0901 23.2781 12.9822 23.6814 12.9822C24.0848 12.9822 24.4808 13.0901 24.8284 13.2948L30.4285 16.5205C30.7758 16.7252 31.0641 17.0164 31.2651 17.3659C31.4662 17.7154 31.5731 18.111 31.5754 18.5141V20.3286L28.6902 21.9817V18.8456L23.6725 15.9336L18.6547 18.8456V24.6497L23.6725 27.5618L35.4285 20.7518C35.7786 20.5545 36.1736 20.4509 36.5754 20.4509C36.9772 20.4509 37.3722 20.5545 37.7223 20.7518L43.3225 23.9909C43.6678 24.1965 43.9541 24.4879 44.1535 24.8369C44.3529 25.1858 44.4586 25.5804 44.4604 25.9823V25.9829Z" fill="#7E56E5"/>
<path d="M54.4394 34.7972V29.7593C54.986 30.447 55.9783 30.8323 57.1275 30.8323C60.0619 30.8323 62.0444 28.749 62.0444 25.5727C62.0444 22.3962 60.2232 20.313 57.3717 20.313C56.0567 20.313 55.0442 20.7991 54.4372 21.5876V20.4675H51.6281V34.7903L54.4394 34.7972ZM56.7803 28.4042C55.2615 28.4042 54.2714 27.2708 54.2714 25.5728C54.2714 23.8749 55.2615 22.7212 56.7803 22.7212C58.2564 22.7212 59.2689 23.8413 59.2689 25.5728C59.2689 27.3044 58.2632 28.4042 56.7803 28.4042Z" fill="#09032F"/>
<path d="M68.4268 30.8323C71.5632 30.8323 73.803 28.6057 73.803 25.5727C73.803 22.5396 71.5632 20.313 68.4268 20.313C65.2907 20.313 63.0507 22.5374 63.0507 25.5727C63.0507 28.6079 65.2907 30.8323 68.4268 30.8323ZM68.4268 28.404C66.9103 28.404 65.8776 27.2504 65.8776 25.5727C65.8776 23.8948 66.9125 22.721 68.4268 22.721C69.9411 22.721 70.9758 23.8724 70.9758 25.5727C70.9758 27.2728 69.9453 28.404 68.4268 28.404Z" fill="#09032F"/>
<path d="M78.3214 30.6708V16.043H75.5103V30.6708H78.3214Z" fill="#09032F"/>
<path d="M86.7742 20.4744L84.6506 27.049L82.5067 20.4744H79.6283L83.3287 30.588L81.8324 34.7971H84.5207L85.9653 30.6328L89.6681 20.4787L86.7742 20.4744Z" fill="#09032F"/>
<path d="M97.5682 21.4865C97.0011 20.7786 96.0004 20.3127 94.7566 20.3127C91.7823 20.3127 89.9833 22.396 89.9833 25.5724C89.9833 28.7488 91.7751 30.832 94.7971 30.832C95.9908 30.832 97.0619 30.3841 97.5885 29.6381V30.9821C97.5885 31.9319 96.9612 32.5994 96.1124 32.5994H91.4189V34.8059H96.5579C98.8627 34.8059 100.4 33.4104 100.4 31.2845V20.4739H97.5682V21.4865ZM95.2426 28.4037C93.7445 28.4037 92.7544 27.2837 92.7544 25.5723C92.7544 23.8609 93.7445 22.7207 95.2426 22.7207C96.7414 22.7207 97.7493 23.8407 97.7493 25.5723C97.7493 27.3039 96.7593 28.4037 95.2426 28.4037Z" fill="#09032F"/>
<path d="M107.486 30.8323C110.623 30.8323 112.863 28.6057 112.863 25.5727C112.863 22.5396 110.623 20.313 107.486 20.313C104.351 20.313 102.11 22.5374 102.11 25.5727C102.11 28.6079 104.351 30.8323 107.486 30.8323ZM107.486 28.404C105.968 28.404 104.937 27.2504 104.937 25.5727C104.937 23.8948 105.968 22.721 107.486 22.721C109.005 22.721 110.036 23.8724 110.036 25.5727C110.036 27.2728 109.003 28.404 107.486 28.404Z" fill="#09032F"/>
<path d="M117.238 30.671V25.0865C117.238 23.7716 118.107 22.8219 119.341 22.8219C120.515 22.8219 121.304 23.7178 121.304 24.9454V30.671H124.135V24.3179C124.135 21.9704 122.639 20.3127 120.327 20.3127C118.931 20.3127 117.8 20.8996 117.234 21.8808V20.474H114.407V30.6711L117.238 30.671Z" fill="#09032F"/>
</g>
<defs>
<clipPath id="clip0_1_3244">
<rect width="108.416" height="25.0191" fill="white" transform="translate(15.7527 12.9729)"/>
</clipPath>
</defs>
</svg>
