<svg width="138" height="50" viewBox="0 0 138 50" fill="none" xmlns="http://www.w3.org/2000/svg">
<g clip-path="url(#clip0_1_3250)">
<path d="M107.04 28.7747C107.052 29.113 106.981 29.2541 106.604 29.2965C100.282 30.0156 93.9612 30.7458 87.6411 31.4872C82.1796 32.1223 76.7222 32.7605 71.2689 33.4017C65.2613 34.1006 59.2491 34.7944 53.2324 35.4832C50.4668 35.8048 47.7012 36.1476 44.934 36.4617C44.5821 36.5011 44.5138 36.6376 44.5153 36.9577C44.5275 39.8993 44.5153 42.8409 44.5153 45.7825V46.3363C44.2772 46.2999 44.2013 46.1542 44.0981 46.0511C41.2875 43.2354 38.4754 40.4222 35.6617 37.6116C35.5727 37.5292 35.5022 37.4288 35.4549 37.3172C35.4076 37.2055 35.3845 37.0851 35.3871 36.9638C35.2233 29.163 35.0529 21.3643 34.8759 13.5676C34.8652 13.1837 34.976 13.0684 35.3416 13.0275C39.1874 12.5936 43.0316 12.14 46.8713 11.6925C52.083 11.0856 57.2946 10.4788 62.5063 9.87198C65.8286 9.48513 69.1495 9.11344 72.4704 8.72507C76.8365 8.21938 81.2021 7.70864 85.5672 7.19283C91.3625 6.51824 97.1587 5.84568 102.956 5.17513C103.969 5.05528 104.987 4.94909 105.998 4.81103C106.369 4.75945 106.509 4.82772 106.516 5.24188C106.651 11.8159 106.797 18.3934 106.953 24.9744C106.981 26.2366 106.997 27.5064 107.04 28.7747Z" fill="black"/>
<path d="M105.526 27.693C105.538 28.0313 105.467 28.1724 105.089 28.2149C98.7667 28.934 92.4456 29.6642 86.1255 30.4055C80.664 31.0407 75.2071 31.6788 69.7548 32.3201C63.7441 33.0189 57.732 33.7127 51.7183 34.4015C48.9527 34.7231 46.1871 35.066 43.4199 35.38C43.068 35.4194 42.9997 35.556 43.0012 35.8761C43.0118 38.8177 43.0012 41.7593 43.0012 44.7009V45.25C42.763 45.2136 42.6872 45.0665 42.584 44.9648C39.7714 42.1522 36.9592 39.3406 34.1476 36.5299C34.0586 36.4475 33.9881 36.3472 33.9408 36.2355C33.8934 36.1238 33.8703 36.0034 33.873 35.8821C33.7092 28.0854 33.5377 20.2851 33.3587 12.4813C33.3496 12.0975 33.4604 11.9822 33.826 11.9413C37.6718 11.5074 41.5145 11.0538 45.3557 10.6062C50.5674 9.99941 55.779 9.39258 60.9906 8.78576C64.3115 8.3989 67.6339 8.02722 70.9548 7.63885C75.3209 7.13316 79.6865 6.62241 84.0516 6.10661C89.8468 5.43101 95.6425 4.75844 101.439 4.08891C102.455 3.96603 103.472 3.85831 104.484 3.72026C104.855 3.6702 104.995 3.73846 105.002 4.15262C105.137 10.7266 105.283 17.3041 105.439 23.8852C105.467 25.1549 105.483 26.4247 105.526 27.693Z" fill="black"/>
<path d="M37.5323 18.0111L40.7303 17.6409C42.2291 17.468 43.3487 17.5802 44.1953 18.0718C44.59 18.2904 44.9264 18.6006 45.1764 18.9762C45.4264 19.3519 45.5826 19.782 45.6319 20.2305C45.6869 20.7677 45.62 21.3104 45.4361 21.8182C45.2522 22.3259 44.9562 22.7856 44.57 23.163C43.7765 23.9641 42.6145 24.445 41.0549 24.6255L39.5379 24.8015L39.2663 28.7459L36.7859 29.0326L37.5323 18.0111ZM41.1065 22.67C41.95 22.5729 42.4309 22.3666 42.754 22.0116C42.9119 21.8493 43.0307 21.6532 43.1017 21.4383C43.1727 21.2233 43.1938 20.995 43.1637 20.7706C43.149 20.5796 43.0854 20.3956 42.9792 20.2362C42.8729 20.0768 42.7275 19.9474 42.5568 19.8604C42.1715 19.6632 41.6299 19.6359 40.9442 19.7087L39.8822 19.8316L39.6714 22.8369L41.1065 22.67Z" fill="white"/>
<path d="M36.666 29.1525L37.4246 17.914L40.712 17.5332C42.2852 17.3512 43.4079 17.4923 44.2438 17.9777C44.653 18.2051 45.0018 18.5272 45.261 18.917C45.5202 19.3069 45.6822 19.7531 45.7335 20.2185C45.7888 20.7722 45.7187 21.3313 45.5283 21.8542C45.3379 22.3771 45.0321 22.8504 44.6337 23.2389C43.822 24.0597 42.6509 24.5482 41.0549 24.7333L39.6304 24.8986L39.3588 28.843L36.666 29.1525ZM37.6339 18.1082L36.8996 28.9067L39.1616 28.6458L39.4332 24.7014L41.0352 24.5148C42.5811 24.3373 43.7098 23.8685 44.4865 23.0842C44.8616 22.7188 45.1497 22.2736 45.3293 21.7818C45.5089 21.2899 45.5755 20.7639 45.5242 20.2427C45.4763 19.8112 45.3259 19.3973 45.0855 19.0358C44.845 18.6742 44.5216 18.3754 44.1421 18.1643C43.3472 17.7092 42.267 17.5727 40.7439 17.7487L37.6339 18.1082ZM39.5545 22.9628L39.776 19.7421L40.9275 19.6086C41.686 19.5206 42.22 19.5707 42.5962 19.7603C42.7839 19.8546 42.9441 19.9958 43.0613 20.1701C43.1785 20.3445 43.2488 20.5461 43.2653 20.7555C43.2976 20.9956 43.2748 21.24 43.1986 21.47C43.1224 21.7 42.9947 21.9096 42.8253 22.0829C42.4749 22.4683 41.9621 22.6761 41.1141 22.7747L39.5545 22.9628ZM39.9808 19.9393L39.7881 22.7171L41.0943 22.5654C41.8878 22.4743 42.3596 22.2877 42.6736 21.9418C42.8209 21.7908 42.9319 21.6082 42.9981 21.4079C43.0644 21.2076 43.0841 20.9949 43.0559 20.7858C43.043 20.6121 42.9853 20.4447 42.8885 20.2998C42.7918 20.1549 42.6592 20.0375 42.5037 19.959C42.1608 19.7846 41.6678 19.7421 40.9517 19.8255L39.9808 19.9393Z" fill="white"/>
<path d="M50.2786 16.538L52.6968 16.2573L56.441 26.757L53.8817 27.0528L53.1368 24.8439L48.7525 25.3506L47.6905 27.7688L45.0857 28.0723L50.2786 16.538ZM49.6126 23.3648L52.5148 23.0295L52.0839 21.7597C51.8215 20.9906 51.5712 20.1881 51.3375 19.4007H51.3057C50.9765 20.2396 50.5896 21.1302 50.2134 21.9888L49.6126 23.3648Z" fill="white"/>
<path d="M44.9052 28.1996L50.2058 16.4362L52.7772 16.1465L52.8061 16.2269L56.5987 26.8555L53.8179 27.1771L53.0731 24.9667L48.8328 25.4507L47.7709 27.8689L44.9052 28.1996ZM50.3499 16.638L45.2571 27.9402L47.6192 27.6762L48.6811 25.2489L53.2141 24.7255L53.959 26.9344L56.2953 26.6643L52.6255 16.3756L50.3499 16.638ZM49.4397 23.4921L50.1163 21.9523C50.5259 21.0163 50.89 20.1758 51.2071 19.3733L51.2313 19.3126L51.4164 19.2914L51.4422 19.3778C51.6971 20.235 51.9474 21.0284 52.1886 21.7339L52.6619 23.125L49.4397 23.4921ZM51.3117 19.6995C51.0083 20.4352 50.6837 21.2014 50.315 22.0464L49.7901 23.2418L52.3691 22.9384L51.9823 21.8006C51.7638 21.1619 51.5393 20.4534 51.3102 19.6919L51.3117 19.6995Z" fill="white"/>
<path d="M58.266 15.6139L60.7464 15.3271L60.1471 24.2293L64.9836 23.671L64.8318 25.7949L57.515 26.6399L58.266 15.6139Z" fill="white"/>
<path d="M57.3998 26.7553L58.1583 15.5169L60.8572 15.2043L60.2504 24.108L65.0883 23.5482L64.9214 25.8845L57.3998 26.7553ZM58.3677 15.711L57.6319 26.5111L64.7303 25.6888L64.8653 23.7925L60.0289 24.3523L60.6281 15.4486L58.3677 15.711Z" fill="white"/>
<path d="M77.1096 18.328C77.2878 19.8738 76.8885 21.4309 75.9884 22.7002C75.492 23.3896 74.8544 23.9652 74.118 24.3887C73.3816 24.8122 72.5634 25.0739 71.7179 25.1563C68.7854 25.4962 66.1472 23.8835 65.7892 20.7842C65.6113 19.2382 66.0111 17.681 66.9118 16.412C67.8645 15.0785 69.3391 14.1682 71.1824 13.9543C74.1133 13.616 76.747 15.2362 77.1096 18.328ZM73.9237 21.5943C74.4805 20.7732 74.7297 19.782 74.6276 18.7953C74.4334 17.1113 73.1682 15.884 71.3265 16.0964C70.8529 16.1426 70.3955 16.2935 69.9875 16.5383C69.5795 16.7831 69.231 17.1157 68.9674 17.5118C68.4113 18.3332 68.1621 19.3241 68.2635 20.3108C68.4577 21.9948 69.7229 23.2221 71.5647 23.0097C72.0392 22.9641 72.4977 22.8134 72.9068 22.5686C73.3159 22.3238 73.6653 21.9909 73.9298 21.5943H73.9237Z" fill="white"/>
<path d="M70.9549 25.3096C69.8054 25.3272 68.6781 24.992 67.725 24.3493C66.563 23.5361 65.856 22.3073 65.68 20.7963C65.4989 19.2232 65.9064 17.6388 66.8239 16.3482C67.3299 15.6476 67.9788 15.0623 68.7278 14.631C69.4768 14.1998 70.3088 13.9324 71.1688 13.8466C74.3865 13.4749 76.8699 15.3136 77.2173 18.3159C77.3983 19.8889 76.9908 21.4733 76.0735 22.7639C75.5674 23.4644 74.9184 24.0494 74.1694 24.4804C73.4204 24.9114 72.5885 25.1785 71.7286 25.2641C71.4718 25.2942 71.2134 25.3094 70.9549 25.3096ZM71.9743 14.0226C71.7133 14.0229 71.4524 14.0381 71.1931 14.0681C70.3633 14.1506 69.5604 14.4083 68.8376 14.8241C68.1148 15.2399 67.4884 15.8044 66.9999 16.4802C66.1128 17.7269 65.7193 19.2582 65.8954 20.7781C66.0623 22.2254 66.7389 23.4011 67.8494 24.1778C68.8977 24.9106 70.2661 25.2216 71.7043 25.0562C72.5342 24.9734 73.3372 24.7156 74.0602 24.2998C74.7833 23.8841 75.41 23.3197 75.899 22.6441C76.785 21.3969 77.1779 19.8659 77.0019 18.3462C76.6985 15.7126 74.6762 14.0226 71.9743 14.0226ZM71.1521 23.1538C70.4472 23.1676 69.7618 22.9225 69.2254 22.4651C68.6182 21.9149 68.2393 21.157 68.1635 20.3412C68.061 19.3284 68.3165 18.3118 68.8856 17.4678C69.1567 17.057 69.5158 16.7116 69.937 16.4568C70.3582 16.2021 70.8307 16.0442 71.3205 15.9948C71.737 15.9329 72.1619 15.96 72.5673 16.0743C72.9726 16.1886 73.3491 16.3874 73.6719 16.6577C74.2788 17.2082 74.6576 17.9659 74.7339 18.7816C74.8379 19.7938 74.584 20.8105 74.0163 21.6549C73.7439 22.0658 73.3833 22.4108 72.9608 22.6648C72.5383 22.9188 72.0645 23.0755 71.5738 23.1235C71.4338 23.1396 71.293 23.1477 71.1521 23.1477V23.1538ZM71.7407 16.1798C71.6079 16.1798 71.4751 16.1879 71.3432 16.2041C70.8836 16.2483 70.4395 16.3944 70.0435 16.6319C69.6474 16.8694 69.3094 17.1923 69.054 17.5771C68.5134 18.3792 68.2708 19.3454 68.3683 20.3078C68.4386 21.0726 68.7938 21.783 69.3635 22.2982C69.6644 22.5474 70.0145 22.7303 70.3909 22.8349C70.7674 22.9395 71.1617 22.9634 71.548 22.905C72.0078 22.8606 72.4519 22.7142 72.8479 22.4764C73.244 22.2386 73.582 21.9155 73.8373 21.5305C74.3788 20.7288 74.6215 19.7623 74.523 18.7998C74.453 18.0349 74.0977 17.3244 73.5278 16.8094C73.0286 16.389 72.3932 16.1652 71.7407 16.1798Z" fill="white"/>
<path d="M79.1242 13.2018L81.3861 12.9409L84.3459 17.2084L87.9247 12.19L90.3884 11.8987L89.642 22.9187L87.1616 23.2054L87.4574 18.7922C87.5211 17.8335 87.5955 16.8443 87.6804 15.928H87.6486C87.066 16.7816 86.4663 17.6373 85.8493 18.4949L84.1199 20.9131L82.7697 18.9409C82.2766 18.2279 81.7214 17.4011 81.2405 16.6562H81.2101C81.1722 17.5665 81.1221 18.4949 81.0584 19.4522L80.755 23.9427L78.3687 24.2188L79.1242 13.2018Z" fill="white"/>
<path d="M78.264 24.3388L79.0226 13.1125L81.4378 12.8334L84.3475 17.0159L87.8641 12.0839L90.5053 11.7805L89.7467 23.019L87.0479 23.3315L87.3513 18.7879C87.4105 17.8943 87.4742 17.0554 87.5409 16.2862C87.019 17.0447 86.479 17.8033 85.9465 18.5618L84.126 21.1075L82.6878 19.0063C82.2418 18.3616 81.7487 17.6273 81.3134 16.9598C81.2785 17.7563 81.2329 18.58 81.1738 19.4675L80.8704 24.0475L78.264 24.3388ZM79.2319 13.2946L78.4977 24.0946L80.6656 23.8443L80.969 19.4448C81.0342 18.4496 81.0843 17.5363 81.1207 16.6518V16.5593L81.2982 16.5411L81.3346 16.5972C81.8049 17.3254 82.3616 18.1568 82.8623 18.8728L84.126 20.7191L85.7629 18.4253C86.3697 17.5803 86.9766 16.7186 87.5531 15.8645L87.5819 15.8235L87.7943 15.7992L87.7821 15.9327C87.7017 16.7959 87.6304 17.7532 87.5591 18.7939L87.2724 23.0781L89.5374 22.8218L90.2716 12.0232L87.9839 12.2872L84.3429 17.3922L81.3346 13.0564L79.2319 13.2946Z" fill="white"/>
<path d="M95.8954 11.2629L98.3136 10.9883L102.058 21.4879L99.503 21.7792L98.7581 19.5703L94.3738 20.077L93.3118 22.4953L90.707 22.7987L95.8954 11.2629ZM95.2294 18.0897L98.1376 17.7544L97.7068 16.4907C97.4443 15.72 97.194 14.919 96.9604 14.1301H96.9285C96.5993 14.9676 96.2125 15.8581 95.8362 16.7167L95.2294 18.0897Z" fill="white"/>
<path d="M90.522 22.9264L95.8226 11.163L98.3865 10.8672L98.4153 10.9476L102.208 21.5747L99.4272 21.8963L98.6808 19.6874L94.4451 20.1774L93.3832 22.5957L90.522 22.9264ZM95.9683 11.3633L90.8755 22.67L93.2299 22.3984L94.2919 19.9802L98.8249 19.4553L99.5698 21.6642L101.906 21.3941L98.2408 11.1008L95.9683 11.3633ZM95.058 18.2189L95.7346 16.6791C96.126 15.7825 96.5038 14.9102 96.8254 14.1001L96.8497 14.0394L97.0348 14.0181L97.0605 14.1046C97.3154 14.9618 97.5657 15.7537 97.8069 16.4606L98.2803 17.8518L95.058 18.2189ZM96.924 14.4171C96.6206 15.165 96.2808 15.9554 95.9273 16.7656L95.4069 17.9671L97.986 17.6637L97.5991 16.5274C97.3791 15.8872 97.1561 15.1802 96.924 14.4171Z" fill="white"/>
</g>
<defs>
<clipPath id="clip0_1_3250">
<rect width="73.6826" height="42.6251" fill="white" transform="translate(33.3588 3.70654)"/>
</clipPath>
</defs>
</svg>
