<svg width="136" height="90" viewBox="0 0 136 90" fill="none" xmlns="http://www.w3.org/2000/svg">
<g clip-path="url(#clip0_57_4738)">
<rect x="0.105255" y="0.672653" width="135.105" height="88.8363" rx="10.1792" fill="white"/>
<g clip-path="url(#clip1_57_4738)">
<path d="M19.5481 29.7793C18.4014 29.785 17.2671 30.0177 16.2099 30.4643C15.1527 30.9108 14.1934 31.5624 13.3867 32.3817C12.58 33.2011 11.9417 34.1722 11.5083 35.2396C11.0749 36.307 10.8549 37.4497 10.8608 38.6026V41.5171H17.9193V37.2946C17.9192 37.0963 17.958 36.9 18.0334 36.7167C18.1088 36.5335 18.2194 36.367 18.3589 36.2268C18.4983 36.0866 18.6639 35.9754 18.8461 35.8995C19.0283 35.8236 19.2236 35.7846 19.4209 35.7847H19.6753C19.8726 35.7846 20.0679 35.8237 20.2501 35.8995C20.4323 35.9754 20.5979 36.0866 20.7374 36.2268C20.8769 36.367 20.9874 36.5335 21.063 36.7167C21.1384 36.9 21.1772 37.0963 21.1772 37.2946V48.6139C22.1041 48.6139 23.022 48.4303 23.8784 48.0737C24.7347 47.7171 25.5129 47.1943 26.1684 46.5354C26.8238 45.8763 27.3437 45.094 27.6984 44.2329C28.0531 43.3719 28.2357 42.449 28.2357 41.5171V38.6026C28.2407 36.2667 27.3258 34.0238 25.691 32.364C24.8889 31.5449 23.9326 30.8946 22.8779 30.4508C21.8233 30.0071 20.6914 29.7788 19.5481 29.7793Z" fill="#201755"/>
<path d="M19.6757 54.3436H19.4212C19.224 54.3436 19.0287 54.3045 18.8465 54.2287C18.6643 54.1529 18.4988 54.0416 18.3593 53.9014C18.2199 53.7612 18.1093 53.5948 18.0338 53.4117C17.9584 53.2285 17.9196 53.0321 17.9196 52.8338V41.5147C16.9927 41.5146 16.0748 41.6981 15.2184 42.0546C14.362 42.4113 13.5838 42.934 12.9284 43.593C12.2729 44.252 11.753 45.0344 11.3983 45.8955C11.0436 46.7565 10.8611 47.6795 10.8612 48.6114V51.4853C10.8494 52.6399 11.0654 53.7853 11.4967 54.8554C11.9281 55.9256 12.5661 56.8991 13.374 57.7197C14.1818 58.5403 15.1435 59.1917 16.2033 59.6363C17.2632 60.0809 18.4002 60.3099 19.5486 60.3099C20.697 60.3099 21.8339 60.0809 22.8938 59.6363C23.9536 59.1917 24.9153 58.5403 25.7232 57.7197C26.5311 56.8991 27.1691 55.9256 27.6004 54.8554C28.0317 53.7853 28.2477 52.6399 28.2359 51.4853V48.6114H21.1776V52.8338C21.1776 53.0321 21.1387 53.2285 21.0632 53.4117C20.9877 53.5948 20.877 53.7613 20.7376 53.9015C20.5982 54.0417 20.4326 54.1529 20.2503 54.2287C20.0682 54.3045 19.8729 54.3436 19.6757 54.3436ZM40.301 38.7395H37.8271V51.3578H45.0881V48.9789H40.3013L40.301 38.7395ZM53.0106 43.413C52.6617 42.977 52.2149 42.6304 51.7069 42.4017C51.199 42.173 50.6442 42.0686 50.0883 42.0971C49.5074 42.0925 48.9324 42.2133 48.402 42.4512C47.8715 42.6892 47.3981 43.0388 47.0135 43.4765C46.1879 44.4066 45.7316 45.6097 45.7316 46.8565C45.7316 48.1032 46.1879 49.3063 47.0135 50.2365C47.3982 50.674 47.8717 51.0235 48.4022 51.2614C48.9326 51.4992 49.5075 51.6199 50.0883 51.6153C51.3434 51.6153 52.3176 51.1766 53.0106 50.2995V51.3631H55.3236V42.3501H53.0106V43.413ZM52.3029 48.6859C52.0695 48.9207 51.7909 49.1049 51.4841 49.2273C51.1773 49.3498 50.8489 49.4078 50.5189 49.3978C50.1902 49.4084 49.8629 49.3507 49.5574 49.2282C49.2519 49.1057 48.975 48.9211 48.7437 48.6859C48.2935 48.184 48.0444 47.532 48.0444 46.8561C48.0444 46.1801 48.2935 45.5282 48.7437 45.0262C48.9751 44.7913 49.2521 44.6068 49.5576 44.4843C49.8629 44.3619 50.1903 44.3041 50.5189 44.3145C50.8488 44.3047 51.1772 44.3628 51.4839 44.4852C51.7908 44.6075 52.0695 44.7916 52.3029 45.0262C52.7582 45.5257 53.0106 46.1785 53.0106 46.8561C53.0106 47.5335 52.7582 48.1864 52.3029 48.6859ZM61.2826 48.4001L58.9445 42.3422H56.4165L60.0907 51.0671C59.937 51.5878 59.6345 52.0516 59.2211 52.4011C58.7866 52.6974 58.2652 52.8372 57.7417 52.7979V54.9614C58.7624 55.0562 59.783 54.7775 60.6157 54.1764C61.385 53.5926 62.003 52.6574 62.4696 51.3707L65.7377 42.3428H63.2636L61.2826 48.4001ZM70.7429 42.0954C70.1124 42.0731 69.4841 42.1825 68.8978 42.4168C68.3115 42.6511 67.78 43.0052 67.3367 43.4567C66.4809 44.3817 66.0067 45.5991 66.0099 46.8625C66.0131 48.1259 66.4937 49.3408 67.3544 50.2614C68.251 51.1624 69.4403 51.613 70.9223 51.6132C72.643 51.6132 73.9458 50.9704 74.8307 49.6849L72.9662 48.6029C72.7292 48.9054 72.4225 49.1455 72.0727 49.3025C71.723 49.4595 71.3404 49.5288 70.9581 49.5042C69.5834 49.5042 68.7407 48.9395 68.43 47.81H75.1893C75.247 47.4947 75.277 47.1748 75.2789 46.8541C75.3131 45.5987 74.8524 44.3806 73.9972 43.4653C73.5829 43.0172 73.0784 42.6632 72.5171 42.4269C71.9559 42.1907 71.351 42.0776 70.7429 42.0954ZM68.3944 46.0072C68.4967 45.4776 68.7824 45.0016 69.2009 44.6639C69.6458 44.3332 70.1896 44.1647 70.7425 44.1863C71.2479 44.1797 71.7419 44.338 72.1503 44.6373C72.5847 44.9736 72.8762 45.4631 72.9659 46.0069L68.3944 46.0072ZM79.2057 43.8943V42.3436H76.8928V51.3568H79.2057V47.0486C79.2057 46.1834 79.4835 45.5645 80.0392 45.1919C80.5957 44.8192 81.269 44.6651 81.9311 44.7592V42.1641C81.3496 42.1567 80.7769 42.3061 80.2724 42.5967C79.7742 42.8873 79.3959 43.3477 79.2057 43.8943ZM93.2061 40.691V38.7395H84.9795V41.1191H90.0715L84.8471 49.3705V51.3574H93.306V48.9785H87.9812L93.2061 40.691ZM98.7655 42.0954C98.135 42.0731 97.5066 42.1825 96.9203 42.4168C96.334 42.6511 95.8024 43.0052 95.3591 43.4567C94.5032 44.3817 94.0288 45.5992 94.0322 46.8626C94.0355 48.126 94.5162 49.3409 95.377 50.2614C96.2736 51.1624 97.4628 51.613 98.9446 51.6132C100.665 51.6132 101.968 50.9704 102.853 49.6849L100.989 48.6029C100.751 48.9054 100.445 49.1454 100.095 49.3024C99.7455 49.4595 99.3631 49.5287 98.9808 49.5042C97.6059 49.5042 96.7631 48.9395 96.4529 47.81H103.212C103.27 47.4946 103.3 47.1748 103.301 46.8541C103.336 45.5987 102.875 44.3806 102.02 43.4653C101.606 43.0172 101.101 42.6632 100.54 42.4269C99.9785 42.1907 99.3736 42.0776 98.7655 42.0954ZM96.4171 46.0072C96.5193 45.4776 96.8052 45.0016 97.2238 44.6639C97.6687 44.333 98.2126 44.1646 98.7655 44.1864C99.2709 44.1795 99.7648 44.3378 100.173 44.6373C100.608 44.9736 100.899 45.4631 100.989 46.0069L96.4171 46.0072ZM107.228 43.8943V42.3436H104.915V51.3568H107.228V47.0486C107.228 46.1834 107.506 45.5645 108.062 45.1919C108.618 44.8192 109.291 44.6652 109.953 44.7592V42.1641C109.372 42.1567 108.799 42.3061 108.295 42.5967C107.796 42.8873 107.418 43.3476 107.228 43.8943ZM115.227 42.0937C114.141 42.1058 113.094 42.495 112.262 43.1955C111.43 43.896 110.864 44.8645 110.662 45.9364C110.46 47.0084 110.632 48.1178 111.151 49.0763C111.67 50.0348 112.502 50.7832 113.507 51.1946C114.512 51.6059 115.628 51.6548 116.665 51.333C117.702 51.0111 118.596 50.3382 119.196 49.4287C119.796 48.5192 120.063 47.4292 119.955 46.3435C119.845 45.2579 119.366 44.2437 118.598 43.4731C118.159 43.0233 117.634 42.6688 117.054 42.4315C116.475 42.1943 115.853 42.0793 115.227 42.0937ZM116.966 48.6373C116.739 48.8675 116.468 49.0486 116.169 49.1694C115.87 49.2902 115.55 49.348 115.227 49.3395C114.906 49.3487 114.586 49.2911 114.288 49.1703C113.991 49.0494 113.72 48.868 113.496 48.6373C113.052 48.1502 112.806 47.5134 112.806 46.8526C112.806 46.1919 113.052 45.5552 113.496 45.0679C113.72 44.8374 113.991 44.656 114.288 44.5352C114.586 44.4144 114.906 44.3566 115.227 44.3657C115.55 44.3572 115.869 44.4152 116.169 44.536C116.468 44.6567 116.739 44.8378 116.966 45.0679C117.415 45.5524 117.665 46.1902 117.665 46.8526C117.665 47.5151 117.415 48.1529 116.966 48.6373ZM124.828 48.5845H122.014V51.3605H124.828V48.5845Z" fill="#201755"/>
</g>
</g>
<defs>
<clipPath id="clip0_57_4738">
<rect x="0.105255" y="0.672653" width="135.105" height="88.8363" rx="4" fill="white"/>
</clipPath>
<clipPath id="clip1_57_4738">
<rect width="114.31" height="31.0471" fill="white" transform="translate(10.7777 29.7793)"/>
</clipPath>
</defs>
</svg>
