<svg width="136" height="90" viewBox="0 0 136 90" fill="none" xmlns="http://www.w3.org/2000/svg">
<g clip-path="url(#clip0_57_4760)">
<rect y="0.672607" width="135.105" height="88.8363" rx="10.1792" fill="white"/>
<path d="M115.317 50.0939C115.332 50.5251 115.241 50.705 114.759 50.7591C106.7 51.6757 98.6391 52.6071 90.5768 53.5534C83.6119 54.3642 76.6524 55.1777 69.6981 55.9937C62.033 56.8833 54.3661 57.7677 46.6972 58.6468C43.1704 59.0568 39.6436 59.4919 36.1148 59.8922C35.6659 59.9424 35.5789 60.1184 35.5809 60.5265C35.5963 64.276 35.5809 68.0236 35.5809 71.775V72.4731C35.2771 72.4286 35.1804 72.241 35.0488 72.1115C31.4556 68.5263 27.8649 64.9425 24.2768 61.3599C24.1632 61.2546 24.0732 61.1263 24.0128 60.9836C23.9525 60.841 23.9231 60.6871 23.9266 60.5322C23.7177 50.589 23.4997 40.6463 23.2727 30.7043C23.2592 30.2169 23.4004 30.07 23.8667 30.0178C28.771 29.4628 33.6733 28.8846 38.5698 28.3142C45.2146 27.5407 51.8608 26.7672 58.5082 25.9937C62.745 25.5006 66.9798 25.0268 71.2148 24.5318C76.7826 23.8872 82.3499 23.2368 87.9164 22.5806C95.3069 21.7195 102.697 20.8615 110.089 20.0068C111.384 19.856 112.682 19.7206 113.97 19.5427C114.444 19.4789 114.622 19.564 114.632 20.0919C114.805 28.4715 114.991 36.8562 115.189 45.246C115.232 46.8607 115.253 48.4792 115.317 50.0939Z" fill="black"/>
<path d="M26.668 36.3818L30.7462 35.9119C32.6576 35.6896 34.0854 35.8326 35.165 36.4592C35.6683 36.7379 36.0974 37.1333 36.4162 37.6121C36.7349 38.0909 36.9342 38.6392 36.9971 39.2109C37.0676 39.8957 36.9824 40.5875 36.7479 41.2348C36.5134 41.882 36.1356 42.4679 35.6428 42.9488C34.6329 43.9698 33.151 44.5847 31.1622 44.8148L29.2275 45.0372L28.8813 50.065L25.7181 50.4304L26.668 36.3818ZM31.2261 42.3223C32.3017 42.1985 32.915 41.9355 33.3271 41.4831C33.5278 41.2762 33.6791 41.0266 33.7695 40.753C33.86 40.4794 33.8873 40.1889 33.8494 39.9031C33.8304 39.6597 33.7494 39.4253 33.6139 39.2221C33.4784 39.019 33.2931 38.854 33.0755 38.7429C32.5841 38.4915 31.8935 38.4567 31.019 38.5496L29.6648 38.7062L29.4017 42.5292L31.2261 42.3223Z" fill="white" stroke="white" stroke-width="0.970221" stroke-miterlimit="10"/>
<path d="M42.9228 34.4964L46.0066 34.1407L50.7813 47.524L47.5175 47.9011L46.5676 45.0837L40.9766 45.7295L39.6223 48.8119L36.3005 49.1987L42.9228 34.4964ZM42.0734 43.1983L45.7744 42.7632L45.225 41.1524C44.8903 40.17 44.5711 39.149 44.2731 38.1435H44.2325C43.8127 39.2109 43.3194 40.346 42.8396 41.4405L42.0734 43.1983Z" fill="white" stroke="white" stroke-width="0.970221" stroke-miterlimit="10"/>
<path d="M53.1086 33.3188L56.2717 32.9533L55.5075 44.3102L61.6751 43.5966L61.4817 46.3039L52.1509 47.3829L53.1086 33.3188Z" fill="white" stroke="white" stroke-width="0.970221" stroke-miterlimit="10"/>
<path d="M77.1386 36.7782C77.3653 38.7494 76.8554 40.7349 75.707 42.3533C75.074 43.232 74.2608 43.9656 73.3217 44.5055C72.3826 45.0453 71.3392 45.3789 70.261 45.4839C66.5213 45.9171 63.1571 43.8596 62.7005 39.909C62.4742 37.9385 62.984 35.9537 64.1321 34.336C64.7651 33.4573 65.5783 32.7235 66.5174 32.1837C67.4565 31.6438 68.4999 31.3103 69.5781 31.2052C73.3177 30.774 76.682 32.8276 77.1386 36.7782ZM73.0759 40.9436C73.786 39.8963 74.1039 38.6323 73.9736 37.3739C73.7259 35.2274 72.1125 33.663 69.7638 33.9337C69.1597 33.9941 68.5765 34.188 68.0565 34.5014C67.5366 34.8147 67.0928 35.2397 66.7574 35.7457C66.0474 36.7922 65.7295 38.0556 65.8597 39.3134C66.1073 41.4598 67.7208 43.0262 70.0695 42.7535C70.6748 42.6946 71.2595 42.5016 71.7809 42.1885C72.3022 41.8754 72.7473 41.4501 73.0836 40.9436H73.0759Z" fill="white" stroke="white" stroke-width="0.970221" stroke-miterlimit="10"/>
<path d="M79.7078 30.2461L82.5924 29.9116L86.367 35.3473L90.929 28.9486L94.0726 28.585L93.117 42.6317L89.9536 42.9972L90.3403 37.3719C90.4221 36.1498 90.5167 34.8871 90.6247 33.721H90.5845C89.843 34.8078 89.0817 35.8965 88.3012 36.9871L86.096 40.0811L84.3742 37.5673C83.7454 36.6565 83.0373 35.6025 82.4241 34.655H82.3854C82.337 35.8153 82.2732 36.9968 82.1919 38.2189L81.805 43.9408L78.7522 44.2908L79.7078 30.2461Z" fill="white" stroke="white" stroke-width="0.970221" stroke-miterlimit="10"/>
<path d="M101.095 27.7749L104.179 27.4171L108.954 40.8006L105.69 41.1777L104.74 38.3621L99.1492 39.008L97.7947 42.0904L94.4708 42.4771L101.095 27.7749ZM100.246 36.4767L103.947 36.0474L103.397 34.4366C103.063 33.4562 102.743 32.4352 102.446 31.4297H102.405C101.985 32.499 101.492 33.6341 101.012 34.7286L100.246 36.4767Z" fill="white" stroke="white" stroke-width="0.970221" stroke-miterlimit="10"/>
</g>
<defs>
<clipPath id="clip0_57_4760">
<rect y="0.672607" width="135.105" height="88.8363" rx="4" fill="white"/>
</clipPath>
</defs>
</svg>
