<svg width="136" height="90" viewBox="0 0 136 90" fill="none" xmlns="http://www.w3.org/2000/svg">
<g clip-path="url(#clip0_57_4734)">
<rect x="0.187134" y="0.836327" width="135.105" height="88.8363" rx="10.1792" fill="white"/>
<g clip-path="url(#clip1_57_4734)">
<path d="M30.3235 40.2636C29.8239 39.9559 29.1744 39.9559 28.6248 40.2636L24.7278 42.6224L22.0799 44.1608L18.1829 46.5198C17.6833 46.8274 17.0338 46.8274 16.4842 46.5198L13.3866 44.6737C12.887 44.366 12.5373 43.8019 12.5373 43.1865V39.5457C12.5373 38.9303 12.837 38.3662 13.3866 38.0585L16.4343 36.2637C16.9339 35.9561 17.5833 35.9561 18.133 36.2637L21.1806 38.0585C21.6802 38.3662 22.0299 38.9303 22.0299 39.5457V41.9046L24.6778 40.3149V37.956C24.6778 37.3406 24.3781 36.7765 23.8285 36.4689L18.1829 33.0844C17.6833 32.7767 17.0338 32.7767 16.4842 33.0844L10.7387 36.4689C10.1891 36.7765 9.88934 37.3406 9.88934 37.956V44.7763C9.88934 45.3916 10.1891 45.9557 10.7387 46.2633L16.4842 49.6478C16.9838 49.9556 17.6334 49.9556 18.1829 49.6478L22.0799 47.3402L24.7278 45.7506L28.6248 43.443C29.1244 43.1353 29.7739 43.1353 30.3235 43.443L33.3711 45.2378C33.8708 45.5455 34.2205 46.1095 34.2205 46.7249V50.3658C34.2205 50.9811 33.9207 51.5452 33.3711 51.8529L30.3235 53.699C29.8239 54.0067 29.1744 54.0067 28.6248 53.699L25.5772 51.9042C25.0775 51.5965 24.7278 51.0324 24.7278 50.417V48.0582L22.0799 49.6478V52.0067C22.0799 52.6221 22.3796 53.1862 22.9293 53.4938L28.6748 56.8784C29.1744 57.1861 29.8239 57.1861 30.3734 56.8784L36.119 53.4938C36.6186 53.1862 36.9683 52.6221 36.9683 52.0067V45.1865C36.9683 44.5711 36.6686 44.007 36.119 43.6994L30.3235 40.2636Z" fill="#201755"/>
<path d="M47.5173 54.928V49.2659C48.1266 50.039 49.2322 50.4711 50.5185 50.4711C53.7905 50.4711 56.002 48.1289 56.002 44.5588C56.002 40.9887 53.9711 38.6465 50.7893 38.6465C49.3225 38.6465 48.1943 39.1922 47.5173 40.0791V38.8284H44.3806V54.928H47.5173ZM50.1349 47.7423C48.4425 47.7423 47.3367 46.4689 47.3367 44.5588C47.3367 42.6259 48.4425 41.3525 50.1349 41.3525C51.7822 41.3525 52.9105 42.6259 52.9105 44.5588C52.9105 46.4689 51.7822 47.7423 50.1349 47.7423Z" fill="#201755"/>
<path d="M63.1245 50.4711C66.6222 50.4711 69.1271 47.9697 69.1271 44.5588C69.1271 41.1478 66.6222 38.6465 63.1245 38.6465C59.6269 38.6465 57.122 41.1478 57.122 44.5588C57.122 47.9697 59.6269 50.4711 63.1245 50.4711ZM63.1245 47.7423C61.4321 47.7423 60.2812 46.4462 60.2812 44.5588C60.2812 42.6487 61.4321 41.3525 63.1245 41.3525C64.817 41.3525 65.9679 42.6487 65.9679 44.5588C65.9679 46.4462 64.817 47.7423 63.1245 47.7423Z" fill="#201755"/>
<path d="M74.1599 50.2891V33.8485H71.0233V50.2891H74.1599Z" fill="#201755"/>
<path d="M83.5887 38.8284L81.2193 46.2188L78.8274 38.8284H75.623L79.7526 50.1982L78.0827 54.928H81.084L82.6861 50.2437L86.8157 38.8284H83.5887Z" fill="#201755"/>
<path d="M95.625 39.9654C94.9928 39.1695 93.8649 38.6465 92.4884 38.6465C89.1707 38.6465 87.1628 40.9887 87.1628 44.5588C87.1628 48.1289 89.1707 50.4711 92.5332 50.4711C93.8649 50.4711 95.0603 49.9708 95.6477 49.1294V50.6302C95.6477 51.699 94.9481 52.4494 93.9999 52.4494H88.7645V54.928H94.4963C97.0689 54.928 98.7843 53.359 98.7843 50.9713V38.8284H95.625V39.9654ZM93.0296 47.7423C91.3598 47.7423 90.2539 46.4916 90.2539 44.5588C90.2539 42.6259 91.3598 41.3525 93.0296 41.3525C94.7222 41.3525 95.8281 42.6259 95.8281 44.5588C95.8281 46.4916 94.7222 47.7423 93.0296 47.7423Z" fill="#201755"/>
<path d="M106.692 50.4711C110.19 50.4711 112.694 47.9697 112.694 44.5588C112.694 41.1478 110.19 38.6465 106.692 38.6465C103.194 38.6465 100.689 41.1478 100.689 44.5588C100.689 47.9697 103.194 50.4711 106.692 50.4711ZM106.692 47.7423C104.999 47.7423 103.848 46.4462 103.848 44.5588C103.848 42.6487 104.999 41.3525 106.692 41.3525C108.384 41.3525 109.535 42.6487 109.535 44.5588C109.535 46.4462 108.384 47.7423 106.692 47.7423Z" fill="#201755"/>
<path d="M117.569 50.2891V44.013C117.569 42.535 118.54 41.4662 119.916 41.4662C121.224 41.4662 122.104 42.4667 122.104 43.8539V50.2891H125.264V43.1489C125.264 40.5111 123.594 38.6465 121.021 38.6465C119.464 38.6465 118.201 39.3059 117.569 40.4202V38.8284H114.41V50.2891H117.569Z" fill="#201755"/>
</g>
</g>
<defs>
<clipPath id="clip0_57_4734">
<rect x="0.187134" y="0.836327" width="135.105" height="88.8363" rx="4" fill="white"/>
</clipPath>
<clipPath id="clip1_57_4734">
<rect width="115.972" height="24.2555" fill="white" transform="translate(9.88934 32.8536)"/>
</clipPath>
</defs>
</svg>
