<svg width="136" height="89" viewBox="0 0 136 89" fill="none" xmlns="http://www.w3.org/2000/svg">
<g clip-path="url(#clip0_57_4730)">
<rect x="0.21051" width="135.105" height="88.8363" rx="10.1792" fill="white"/>
<path d="M29.3375 49.6674L26.1139 53.1238C26.0442 53.1989 25.9598 53.2588 25.8659 53.2998C25.772 53.3408 25.6706 53.362 25.5682 53.3621H10.2872C10.2144 53.3621 10.1431 53.3408 10.0821 53.3009C10.0211 53.2609 9.97315 53.2041 9.944 53.1373C9.91484 53.0705 9.9058 52.9966 9.91798 52.9248C9.93016 52.8529 9.96302 52.7862 10.0126 52.7327L13.2325 49.2763C13.3022 49.2012 13.3866 49.1413 13.4805 49.1003C13.5744 49.0593 13.6758 49.0381 13.7782 49.038H29.0591C29.1326 49.0365 29.205 49.0567 29.2671 49.0963C29.3291 49.1358 29.3782 49.1927 29.4079 49.26C29.4377 49.3273 29.4468 49.4019 29.4342 49.4744C29.4217 49.5469 29.388 49.614 29.3375 49.6674ZM26.1139 42.7055C26.0439 42.6308 25.9594 42.5711 25.8656 42.5301C25.7718 42.4892 25.6705 42.4677 25.5682 42.4672H10.2872C10.2144 42.4673 10.1431 42.4885 10.0821 42.5285C10.0211 42.5684 9.97315 42.6253 9.944 42.6921C9.91484 42.7589 9.9058 42.8327 9.91798 42.9046C9.93016 42.9764 9.96302 43.0432 10.0126 43.0966L13.2325 46.5549C13.3024 46.6296 13.3869 46.6893 13.4808 46.7302C13.5746 46.7712 13.6758 46.7926 13.7782 46.7932H29.0591C29.1319 46.7928 29.2028 46.7712 29.2636 46.7312C29.3244 46.6911 29.372 46.6342 29.4009 46.5675C29.4299 46.5008 29.4388 46.427 29.4264 46.3554C29.4142 46.2837 29.3815 46.2171 29.332 46.1637L26.1139 42.7055ZM10.2872 40.2224H25.5682C25.6706 40.2223 25.772 40.201 25.8659 40.16C25.9598 40.1191 26.0442 40.0591 26.1139 39.9841L29.3375 36.5277C29.388 36.4743 29.4217 36.4071 29.4342 36.3346C29.4468 36.2621 29.4377 36.1876 29.4079 36.1203C29.3782 36.053 29.3291 35.996 29.2671 35.9565C29.205 35.917 29.1326 35.8967 29.0591 35.8982H13.7782C13.6758 35.8983 13.5744 35.9196 13.4805 35.9606C13.3866 36.0016 13.3022 36.0615 13.2325 36.1365L10.0126 39.5929C9.96302 39.6464 9.93016 39.7132 9.91798 39.785C9.9058 39.8569 9.91484 39.9307 9.944 39.9975C9.97315 40.0643 10.0211 40.1212 10.0821 40.1611C10.1431 40.201 10.2144 40.2223 10.2872 40.2224Z" fill="url(#paint0_linear_57_4730)"/>
<path d="M47.967 43.2838H39.7917V40.5915H50.0917V37.8991H39.7644C39.4115 37.8972 39.0618 37.9648 38.7351 38.0981C38.4084 38.2314 38.111 38.4277 37.8603 38.6758C37.6094 38.924 37.4099 39.2191 37.2731 39.5444C37.1363 39.8696 37.0648 40.2186 37.0629 40.5715V43.3002C37.0644 43.6534 37.1353 44.0028 37.272 44.3285C37.4086 44.6541 37.608 44.9497 37.8588 45.1982C38.1099 45.4468 38.4073 45.6434 38.7342 45.7769C39.0611 45.9104 39.4113 45.9781 39.7644 45.9762H47.9506V48.6686H37.2576V51.3609H47.967C48.3199 51.3628 48.6695 51.2952 48.9962 51.162C49.323 51.0287 49.6202 50.8324 49.8711 50.5842C50.1219 50.3361 50.3215 50.041 50.4583 49.7157C50.5951 49.3904 50.6666 49.0414 50.6684 48.6886V45.9598C50.667 45.6067 50.596 45.2573 50.4594 44.9316C50.3228 44.6059 50.1234 44.3103 49.8725 44.0618C49.6215 43.8133 49.3241 43.6166 48.9972 43.4832C48.6703 43.3497 48.3201 43.2819 47.967 43.2838Z" fill="#201755"/>
<path d="M63.8045 37.8992H55.5983C55.2448 37.8963 54.8943 37.9632 54.5666 38.096C54.2392 38.2289 53.941 38.425 53.6894 38.6733C53.4377 38.9215 53.2376 39.217 53.1004 39.5427C52.963 39.8685 52.8914 40.2181 52.8895 40.5715V48.6886C52.8914 49.0421 52.963 49.3917 53.1004 49.7174C53.2376 50.0432 53.4377 50.3386 53.6894 50.5869C53.941 50.8351 54.2392 51.0313 54.5666 51.1641C54.8943 51.2969 55.2448 51.3638 55.5983 51.361H63.8045C64.1574 51.3629 64.507 51.2953 64.8338 51.162C65.1605 51.0287 65.4579 50.8324 65.7086 50.5843C65.9595 50.3361 66.159 50.041 66.2958 49.7157C66.4326 49.3905 66.5041 49.0415 66.5059 48.6886V40.5715C66.5041 40.2187 66.4326 39.8697 66.2958 39.5444C66.159 39.2192 65.9595 38.924 65.7086 38.6759C65.4579 38.4277 65.1605 38.2314 64.8338 38.0981C64.507 37.9649 64.1574 37.8973 63.8045 37.8992ZM63.7845 48.6686H55.6183V40.5915H63.7808L63.7845 48.6686Z" fill="#201755"/>
<path d="M92.5477 37.8993H84.5434C84.1905 37.8974 83.8409 37.965 83.5141 38.0982C83.1874 38.2315 82.89 38.4278 82.6393 38.676C82.3884 38.9241 82.1889 39.2193 82.0521 39.5445C81.9153 39.8698 81.8438 40.2188 81.842 40.5716V51.3611H84.5707V46.9387H92.5386V51.3611H95.2674V40.5716C95.2655 40.2173 95.1935 39.8667 95.0556 39.5403C94.9175 39.2138 94.7165 38.9179 94.4636 38.6695C94.211 38.4211 93.9115 38.2252 93.5826 38.093C93.2537 37.9608 92.9021 37.895 92.5477 37.8993ZM92.5277 44.2463H84.5598V40.5917H92.5277V44.2463Z" fill="#201755"/>
<path d="M124.41 37.8991H116.406C116.053 37.8972 115.703 37.9648 115.377 38.0981C115.05 38.2314 114.753 38.4277 114.502 38.6758C114.251 38.924 114.051 39.2191 113.914 39.5444C113.778 39.8696 113.706 40.2186 113.704 40.5715V51.3609H116.433V46.9385H124.383V51.3609H127.112V40.5715C127.11 40.2186 127.038 39.8696 126.901 39.5444C126.765 39.2191 126.565 38.924 126.314 38.6758C126.063 38.4277 125.766 38.2314 125.439 38.0981C125.113 37.9648 124.763 37.8972 124.41 37.8991ZM124.383 44.2462H116.415V40.5915H124.383V44.2462Z" fill="#201755"/>
<path d="M108.557 48.6685H107.465L103.563 39.027C103.429 38.6944 103.199 38.4093 102.902 38.2084C102.605 38.0074 102.255 37.8997 101.897 37.8991H99.4754C99.24 37.8979 99.0068 37.9431 98.789 38.032C98.5711 38.121 98.373 38.252 98.2056 38.4175C98.0384 38.5831 97.9055 38.7799 97.8143 38.9969C97.7232 39.2138 97.6757 39.4466 97.6744 39.6819V51.3609H100.403V40.5915H101.495L105.395 50.233C105.531 50.565 105.763 50.8489 106.061 51.0485C106.359 51.2481 106.71 51.3543 107.069 51.3536H109.49C109.725 51.3548 109.958 51.3097 110.176 51.2207C110.394 51.1318 110.592 51.0008 110.76 50.8352C110.927 50.6697 111.06 50.4728 111.151 50.2559C111.242 50.0389 111.29 49.8062 111.291 49.5708V37.8991H108.557V48.6685Z" fill="#201755"/>
<path d="M71.6454 37.8991H68.9167V48.6885C68.9185 49.0422 68.9903 49.3919 69.1277 49.7178C69.265 50.0436 69.4653 50.3392 69.7171 50.5874C69.9689 50.8357 70.2674 51.0318 70.595 51.1645C70.9228 51.2973 71.2736 51.364 71.6272 51.3609H79.8134V48.6685H71.6454V37.8991Z" fill="#201755"/>
</g>
<defs>
<linearGradient id="paint0_linear_57_4730" x1="11.5607" y1="53.7787" x2="27.5838" y2="35.7145" gradientUnits="userSpaceOnUse">
<stop offset="0.08" stop-color="#9945FF"/>
<stop offset="0.3" stop-color="#8752F3"/>
<stop offset="0.5" stop-color="#5497D5"/>
<stop offset="0.6" stop-color="#43B4CA"/>
<stop offset="0.72" stop-color="#28E0B9"/>
<stop offset="0.97" stop-color="#19FB9B"/>
</linearGradient>
<clipPath id="clip0_57_4730">
<rect x="0.21051" width="135.105" height="88.8363" rx="4" fill="white"/>
</clipPath>
</defs>
</svg>
