<svg width="135" height="87" viewBox="0 0 135 87" fill="none" xmlns="http://www.w3.org/2000/svg">
<rect x="0.5" y="1.36349" width="134" height="85" rx="9.37603" fill="#5151FF" stroke="#09032F"/>
<path d="M48.7912 37.8635L45.9472 28.9355H48.3592L50.4292 36.2075H50.7532L52.8232 28.9355H55.2352L52.3912 37.8635H48.7912ZM56.7805 37.8635V28.9355H59.0485V37.8635H56.7805ZM57.9145 27.8915C57.5065 27.8915 57.1585 27.7595 56.8705 27.4955C56.5945 27.2315 56.4565 26.8835 56.4565 26.4515C56.4565 26.0195 56.5945 25.6715 56.8705 25.4075C57.1585 25.1435 57.5065 25.0115 57.9145 25.0115C58.3345 25.0115 58.6825 25.1435 58.9585 25.4075C59.2345 25.6715 59.3725 26.0195 59.3725 26.4515C59.3725 26.8835 59.2345 27.2315 58.9585 27.4955C58.6825 27.7595 58.3345 27.8915 57.9145 27.8915ZM65.6298 38.1155C64.7418 38.1155 63.9558 37.9295 63.2718 37.5575C62.5998 37.1735 62.0718 36.6395 61.6878 35.9555C61.3158 35.2595 61.1298 34.4435 61.1298 33.5075V33.2915C61.1298 32.3555 61.3158 31.5455 61.6878 30.8615C62.0598 30.1655 62.5818 29.6315 63.2538 29.2595C63.9258 28.8755 64.7058 28.6835 65.5938 28.6835C66.4698 28.6835 67.2318 28.8815 67.8798 29.2775C68.5278 29.6615 69.0318 30.2015 69.3918 30.8975C69.7518 31.5815 69.9318 32.3795 69.9318 33.2915V34.0655H63.4338C63.4578 34.6775 63.6858 35.1755 64.1178 35.5595C64.5498 35.9435 65.0778 36.1355 65.7018 36.1355C66.3378 36.1355 66.8058 35.9975 67.1058 35.7215C67.4058 35.4455 67.6338 35.1395 67.7898 34.8035L69.6438 35.7755C69.4758 36.0875 69.2298 36.4295 68.9058 36.8015C68.5938 37.1615 68.1738 37.4735 67.6458 37.7375C67.1178 37.9895 66.4458 38.1155 65.6298 38.1155ZM63.4518 32.3735H67.6278C67.5798 31.8575 67.3698 31.4435 66.9978 31.1315C66.6378 30.8195 66.1638 30.6635 65.5758 30.6635C64.9638 30.6635 64.4778 30.8195 64.1178 31.1315C63.7578 31.4435 63.5358 31.8575 63.4518 32.3735ZM72.6353 37.8635L71.3753 28.9355H73.6253L74.4173 36.3335H74.7413L75.8933 28.9355H79.5293L80.6813 36.3335H81.0053L81.7973 28.9355H84.0473L82.7873 37.8635H79.0253L77.8733 30.4655H77.5493L76.3973 37.8635H72.6353ZM31.9303 62.1155C31.2223 62.1155 30.5563 61.9415 29.9323 61.5935C29.3203 61.2335 28.8283 60.7115 28.4563 60.0275C28.0843 59.3435 27.8983 58.5155 27.8983 57.5435V57.2555C27.8983 56.2835 28.0843 55.4555 28.4563 54.7715C28.8283 54.0875 29.3203 53.5715 29.9323 53.2235C30.5443 52.8635 31.2103 52.6835 31.9303 52.6835C32.4703 52.6835 32.9203 52.7495 33.2803 52.8815C33.6523 53.0015 33.9523 53.1575 34.1803 53.3495C34.4083 53.5415 34.5823 53.7455 34.7023 53.9615H35.0263V49.2635H37.2943V61.8635H35.0623V60.7835H34.7383C34.5343 61.1195 34.2163 61.4255 33.7843 61.7015C33.3643 61.9775 32.7463 62.1155 31.9303 62.1155ZM32.6143 60.1355C33.3103 60.1355 33.8923 59.9135 34.3603 59.4695C34.8283 59.0135 35.0623 58.3535 35.0623 57.4895V57.3095C35.0623 56.4455 34.8283 55.7915 34.3603 55.3475C33.9043 54.8915 33.3223 54.6635 32.6143 54.6635C31.9183 54.6635 31.3363 54.8915 30.8683 55.3475C30.4003 55.7915 30.1663 56.4455 30.1663 57.3095V57.4895C30.1663 58.3535 30.4003 59.0135 30.8683 59.4695C31.3363 59.9135 31.9183 60.1355 32.6143 60.1355ZM39.8088 61.8635V52.9355H42.0768V61.8635H39.8088ZM40.9428 51.8915C40.5348 51.8915 40.1868 51.7595 39.8988 51.4955C39.6228 51.2315 39.4848 50.8835 39.4848 50.4515C39.4848 50.0195 39.6228 49.6715 39.8988 49.4075C40.1868 49.1435 40.5348 49.0115 40.9428 49.0115C41.3628 49.0115 41.7108 49.1435 41.9868 49.4075C42.2628 49.6715 42.4008 50.0195 42.4008 50.4515C42.4008 50.8835 42.2628 51.2315 41.9868 51.4955C41.7108 51.7595 41.3628 51.8915 40.9428 51.8915ZM44.5901 61.8635V52.9355H46.8221V53.9435H47.1461C47.2781 53.5835 47.4941 53.3195 47.7941 53.1515C48.1061 52.9835 48.4661 52.8995 48.8741 52.8995H49.9541V54.9155H48.8381C48.2621 54.9155 47.7881 55.0715 47.4161 55.3835C47.0441 55.6835 46.8581 56.1515 46.8581 56.7875V61.8635H44.5901ZM55.4784 62.1155C54.5904 62.1155 53.8044 61.9295 53.1204 61.5575C52.4484 61.1735 51.9204 60.6395 51.5364 59.9555C51.1644 59.2595 50.9784 58.4435 50.9784 57.5075V57.2915C50.9784 56.3555 51.1644 55.5455 51.5364 54.8615C51.9084 54.1655 52.4304 53.6315 53.1024 53.2595C53.7744 52.8755 54.5544 52.6835 55.4424 52.6835C56.3184 52.6835 57.0804 52.8815 57.7284 53.2775C58.3764 53.6615 58.8804 54.2015 59.2404 54.8975C59.6004 55.5815 59.7804 56.3795 59.7804 57.2915V58.0655H53.2824C53.3064 58.6775 53.5344 59.1755 53.9664 59.5595C54.3984 59.9435 54.9264 60.1355 55.5504 60.1355C56.1864 60.1355 56.6544 59.9975 56.9544 59.7215C57.2544 59.4455 57.4824 59.1395 57.6384 58.8035L59.4924 59.7755C59.3244 60.0875 59.0784 60.4295 58.7544 60.8015C58.4424 61.1615 58.0224 61.4735 57.4944 61.7375C56.9664 61.9895 56.2944 62.1155 55.4784 62.1155ZM53.3004 56.3735H57.4764C57.4284 55.8575 57.2184 55.4435 56.8464 55.1315C56.4864 54.8195 56.0124 54.6635 55.4244 54.6635C54.8124 54.6635 54.3264 54.8195 53.9664 55.1315C53.6064 55.4435 53.3844 55.8575 53.3004 56.3735ZM65.9931 62.1155C65.1291 62.1155 64.3431 61.9355 63.6351 61.5755C62.9391 61.2155 62.3871 60.6935 61.9791 60.0095C61.5711 59.3255 61.3671 58.4975 61.3671 57.5255V57.2735C61.3671 56.3015 61.5711 55.4735 61.9791 54.7895C62.3871 54.1055 62.9391 53.5835 63.6351 53.2235C64.3431 52.8635 65.1291 52.6835 65.9931 52.6835C66.8451 52.6835 67.5771 52.8335 68.1891 53.1335C68.8011 53.4335 69.2931 53.8475 69.6651 54.3755C70.0491 54.8915 70.3011 55.4795 70.4211 56.1395L68.2251 56.6075C68.1771 56.2475 68.0691 55.9235 67.9011 55.6355C67.7331 55.3475 67.4931 55.1195 67.1811 54.9515C66.8811 54.7835 66.5031 54.6995 66.0471 54.6995C65.5911 54.6995 65.1771 54.8015 64.8051 55.0055C64.4451 55.1975 64.1571 55.4915 63.9411 55.8875C63.7371 56.2715 63.6351 56.7455 63.6351 57.3095V57.4895C63.6351 58.0535 63.7371 58.5335 63.9411 58.9295C64.1571 59.3135 64.4451 59.6075 64.8051 59.8115C65.1771 60.0035 65.5911 60.0995 66.0471 60.0995C66.7311 60.0995 67.2471 59.9255 67.5951 59.5775C67.9551 59.2175 68.1831 58.7495 68.2791 58.1735L70.4751 58.6955C70.3191 59.3315 70.0491 59.9135 69.6651 60.4415C69.2931 60.9575 68.8011 61.3655 68.1891 61.6655C67.5771 61.9655 66.8451 62.1155 65.9931 62.1155ZM75.4671 61.8635C74.8791 61.8635 74.3991 61.6835 74.0271 61.3235C73.6671 60.9515 73.4871 60.4595 73.4871 59.8475V54.8075H71.2551V52.9355H73.4871V50.1635H75.7551V52.9355H78.2031V54.8075H75.7551V59.4515C75.7551 59.8115 75.9231 59.9915 76.2591 59.9915H77.9871V61.8635H75.4671ZM84.1877 62.1155C83.2997 62.1155 82.5017 61.9355 81.7937 61.5755C81.0857 61.2155 80.5277 60.6935 80.1197 60.0095C79.7117 59.3255 79.5077 58.5035 79.5077 57.5435V57.2555C79.5077 56.2955 79.7117 55.4735 80.1197 54.7895C80.5277 54.1055 81.0857 53.5835 81.7937 53.2235C82.5017 52.8635 83.2997 52.6835 84.1877 52.6835C85.0757 52.6835 85.8737 52.8635 86.5817 53.2235C87.2897 53.5835 87.8477 54.1055 88.2557 54.7895C88.6637 55.4735 88.8677 56.2955 88.8677 57.2555V57.5435C88.8677 58.5035 88.6637 59.3255 88.2557 60.0095C87.8477 60.6935 87.2897 61.2155 86.5817 61.5755C85.8737 61.9355 85.0757 62.1155 84.1877 62.1155ZM84.1877 60.0995C84.8837 60.0995 85.4597 59.8775 85.9157 59.4335C86.3717 58.9775 86.5997 58.3295 86.5997 57.4895V57.3095C86.5997 56.4695 86.3717 55.8275 85.9157 55.3835C85.4717 54.9275 84.8957 54.6995 84.1877 54.6995C83.4917 54.6995 82.9157 54.9275 82.4597 55.3835C82.0037 55.8275 81.7757 56.4695 81.7757 57.3095V57.4895C81.7757 58.3295 82.0037 58.9775 82.4597 59.4335C82.9157 59.8775 83.4917 60.0995 84.1877 60.0995ZM90.9612 61.8635V52.9355H93.1932V53.9435H93.5172C93.6492 53.5835 93.8652 53.3195 94.1652 53.1515C94.4772 52.9835 94.8372 52.8995 95.2452 52.8995H96.3252V54.9155H95.2092C94.6332 54.9155 94.1592 55.0715 93.7872 55.3835C93.4152 55.6835 93.2292 56.1515 93.2292 56.7875V61.8635H90.9612ZM99.0699 65.4635V63.4835H103.93C104.266 63.4835 104.434 63.3035 104.434 62.9435V60.6935H104.11C104.014 60.8975 103.864 61.1015 103.66 61.3055C103.456 61.5095 103.18 61.6775 102.832 61.8095C102.484 61.9415 102.04 62.0075 101.5 62.0075C100.804 62.0075 100.192 61.8515 99.6639 61.5395C99.1479 61.2155 98.7459 60.7715 98.4579 60.2075C98.1699 59.6435 98.0259 58.9955 98.0259 58.2635V52.9355H100.294V58.0835C100.294 58.7555 100.456 59.2595 100.78 59.5955C101.116 59.9315 101.59 60.0995 102.202 60.0995C102.898 60.0995 103.438 59.8715 103.822 59.4155C104.206 58.9475 104.398 58.2995 104.398 57.4715V52.9355H106.666V63.4475C106.666 64.0595 106.486 64.5455 106.126 64.9055C105.766 65.2775 105.286 65.4635 104.686 65.4635H99.0699Z" fill="#FAFAFA"/>
</svg>
